<ttFont>
    <TTGlyph name=".notdef" xMin="32" yMin="0" xMax="440" yMax="780">
      <contour>
        <pt x="32" y="0" on="1"/>
        <pt x="32" y="780" on="1"/>
        <pt x="440" y="780" on="1"/>
        <pt x="440" y="0" on="1"/>
      </contour>
      <contour>
        <pt x="58" y="26" on="1"/>
        <pt x="414" y="26" on="1"/>
        <pt x="414" y="754" on="1"/>
        <pt x="58" y="754" on="1"/>
      </contour>
    </TTGlyph>
    <TTGlyph name="A" xMin="-16" yMin="0" xMax="526" yMax="698">
      <contour>
        <pt x="489" y="0" on="1"/>
        <pt x="449" y="227" on="1"/>
        <pt x="142" y="227" on="1"/>
        <pt x="23" y="0" on="1"/>
        <pt x="-16" y="0" on="1"/>
        <pt x="352" y="698" on="1"/>
        <pt x="400" y="698" on="1"/>
        <pt x="526" y="0" on="1"/>
      </contour>
      <contour>
        <pt x="372" y="661" on="1"/>
        <pt x="368" y="661" on="1"/>
        <pt x="158" y="259" on="1"/>
        <pt x="444" y="259" on="1"/>
      </contour>
    </TTGlyph>
    <TTGlyph name="AE" xMin="-26" yMin="0" xMax="905" yMax="698">
      <contour>
        <pt x="425" y="227" on="1"/>
        <pt x="182" y="227" on="1"/>
        <pt x="15" y="0" on="1"/>
        <pt x="-26" y="0" on="1"/>
        <pt x="487" y="698" on="1"/>
        <pt x="905" y="698" on="1"/>
        <pt x="898" y="666" on="1"/>
        <pt x="549" y="666" on="1"/>
        <pt x="489" y="370" on="1"/>
        <pt x="822" y="370" on="1"/>
        <pt x="816" y="338" on="1"/>
        <pt x="482" y="338" on="1"/>
        <pt x="421" y="32" on="1"/>
        <pt x="775" y="32" on="1"/>
        <pt x="769" y="0" on="1"/>
        <pt x="379" y="0" on="1"/>
      </contour>
      <contour>
        <pt x="503" y="667" on="1"/>
        <pt x="205" y="258" on="1"/>
        <pt x="431" y="258" on="1"/>
        <pt x="513" y="667" on="1"/>
      </contour>
    </TTGlyph>
    <TTGlyph name="AEacute" xMin="-26" yMin="0" xMax="905" yMax="936">
      <component glyphName="AE" x="0" y="0" flags="0x204"/>
      <component glyphName="acute.case" x="350" y="0" flags="0x4"/>
    </TTGlyph>
    <TTGlyph name="Aacute" xMin="-16" yMin="0" xMax="528" yMax="936">
      <component glyphName="A" x="0" y="0" flags="0x204"/>
      <component glyphName="acute.case" x="75" y="0" flags="0x4"/>
    </TTGlyph>
    <TTGlyph name="Abreve" xMin="-16" yMin="0" xMax="548" yMax="912">
      <component glyphName="A" x="0" y="0" flags="0x204"/>
      <component glyphName="breve.case" x="75" y="0" flags="0x4"/>
    </TTGlyph>
    <TTGlyph name="Acircumflex" xMin="-16" yMin="0" xMax="540" yMax="926">
      <component glyphName="A" x="0" y="0" flags="0x204"/>
      <component glyphName="circumflex.case" x="75" y="0" flags="0x4"/>
    </TTGlyph>
    <TTGlyph name="Adieresis" xMin="-16" yMin="0" xMax="526" yMax="876">
      <component glyphName="A" x="0" y="0" flags="0x204"/>
      <component glyphName="dieresis.case" x="75" y="0" flags="0x4"/>
    </TTGlyph>
    <TTGlyph name="Agrave" xMin="-16" yMin="0" xMax="526" yMax="936">
      <component glyphName="A" x="0" y="0" flags="0x204"/>
      <component glyphName="grave.case" x="75" y="0" flags="0x4"/>
    </TTGlyph>
    <TTGlyph name="Alpha" xMin="-16" yMin="0" xMax="526" yMax="698">
      <component glyphName="A" x="0" y="0" flags="0x204"/>
    </TTGlyph>
    <TTGlyph name="Alphatonos" xMin="-16" yMin="0" xMax="526" yMax="758">
      <component glyphName="A" x="0" y="0" flags="0x204"/>
      <component glyphName="tonos.case" x="-191" y="0" flags="0x4"/>
    </TTGlyph>
    <TTGlyph name="Amacron" xMin="-16" yMin="0" xMax="548" yMax="861">
      <component glyphName="A" x="0" y="0" flags="0x204"/>
      <component glyphName="macron.case" x="75" y="0" flags="0x4"/>
    </TTGlyph>
    <TTGlyph name="Aogonek" xMin="-16" yMin="-203" xMax="526" yMax="698">
      <contour>
        <pt x="352" y="698" on="1"/>
        <pt x="400" y="698" on="1"/>
        <pt x="526" y="0" on="1"/>
        <pt x="487" y="-23" on="0"/>
        <pt x="433" y="-58" on="0"/>
        <pt x="400" y="-88" on="0"/>
        <pt x="385" y="-117" on="0"/>
        <pt x="385" y="-133" on="1"/>
        <pt x="385" y="-155" on="0"/>
        <pt x="411" y="-177" on="0"/>
        <pt x="431" y="-177" on="1"/>
        <pt x="453" y="-177" on="0"/>
        <pt x="483" y="-162" on="0"/>
        <pt x="494" y="-151" on="1"/>
        <pt x="513" y="-170" on="1"/>
        <pt x="500" y="-184" on="0"/>
        <pt x="458" y="-203" on="0"/>
        <pt x="430" y="-203" on="1"/>
        <pt x="398" y="-203" on="0"/>
        <pt x="353" y="-170" on="0"/>
        <pt x="353" y="-135" on="1"/>
        <pt x="353" y="-119" on="0"/>
        <pt x="366" y="-88" on="0"/>
        <pt x="397" y="-55" on="0"/>
        <pt x="449" y="-20" on="0"/>
        <pt x="488" y="0" on="1"/>
        <pt x="449" y="227" on="1"/>
        <pt x="142" y="227" on="1"/>
        <pt x="23" y="0" on="1"/>
        <pt x="-16" y="0" on="1"/>
      </contour>
      <contour>
        <pt x="372" y="661" on="1"/>
        <pt x="368" y="661" on="1"/>
        <pt x="158" y="259" on="1"/>
        <pt x="444" y="259" on="1"/>
      </contour>
    </TTGlyph>
    <TTGlyph name="Aring" xMin="-16" yMin="0" xMax="526" yMax="957">
      <component glyphName="A" x="0" y="0" flags="0x204"/>
      <component glyphName="ring.case" x="75" y="0" flags="0x4"/>
    </TTGlyph>
    <TTGlyph name="Aringacute" xMin="-16" yMin="0" xMax="528" yMax="1096">
      <component glyphName="A" x="0" y="0" flags="0x204"/>
      <component glyphName="ringacute.case" x="75" y="0" flags="0x4"/>
    </TTGlyph>
    <TTGlyph name="Atilde" xMin="-16" yMin="0" xMax="566" yMax="886">
      <component glyphName="A" x="0" y="0" flags="0x204"/>
      <component glyphName="tilde.case" x="75" y="0" flags="0x4"/>
    </TTGlyph>
    <TTGlyph name="B" xMin="52" yMin="0" xMax="573" yMax="698">
      <contour>
        <pt x="190" y="698" on="1"/>
        <pt x="419" y="698" on="1"/>
        <pt x="494" y="698" on="0"/>
        <pt x="573" y="625" on="0"/>
        <pt x="573" y="558" on="1"/>
        <pt x="573" y="527" on="0"/>
        <pt x="559" y="466" on="0"/>
        <pt x="527" y="415" on="0"/>
        <pt x="475" y="377" on="0"/>
        <pt x="437" y="369" on="1"/>
        <pt x="436" y="366" on="1"/>
        <pt x="486" y="355" on="0"/>
        <pt x="538" y="282" on="0"/>
        <pt x="538" y="230" on="1"/>
        <pt x="538" y="177" on="0"/>
        <pt x="508" y="92" on="0"/>
        <pt x="452" y="32" on="0"/>
        <pt x="373" y="0" on="0"/>
        <pt x="324" y="0" on="1"/>
        <pt x="52" y="0" on="1"/>
      </contour>
      <contour>
        <pt x="325" y="32" on="1"/>
        <pt x="397" y="32" on="0"/>
        <pt x="480" y="105" on="0"/>
        <pt x="492" y="165" on="1"/>
        <pt x="498" y="194" on="0"/>
        <pt x="501" y="223" on="0"/>
        <pt x="501" y="231" on="1"/>
        <pt x="501" y="256" on="0"/>
        <pt x="486" y="299" on="0"/>
        <pt x="455" y="331" on="0"/>
        <pt x="408" y="350" on="0"/>
        <pt x="376" y="350" on="1"/>
        <pt x="156" y="350" on="1"/>
        <pt x="94" y="32" on="1"/>
      </contour>
      <contour>
        <pt x="367" y="382" on="1"/>
        <pt x="434" y="382" on="0"/>
        <pt x="517" y="440" on="0"/>
        <pt x="528" y="495" on="1"/>
        <pt x="533" y="525" on="0"/>
        <pt x="536" y="551" on="0"/>
        <pt x="536" y="559" on="1"/>
        <pt x="536" y="608" on="0"/>
        <pt x="479" y="666" on="0"/>
        <pt x="416" y="666" on="1"/>
        <pt x="219" y="666" on="1"/>
        <pt x="163" y="382" on="1"/>
      </contour>
    </TTGlyph>
    <TTGlyph name="Beta" xMin="52" yMin="0" xMax="573" yMax="698">
      <component glyphName="B" x="0" y="0" flags="0x204"/>
    </TTGlyph>
    <TTGlyph name="C" xMin="66" yMin="-12" xMax="595" yMax="710">
      <contour>
        <pt x="291" y="-12" on="1"/>
        <pt x="241" y="-12" on="0"/>
        <pt x="158" y="19" on="0"/>
        <pt x="99" y="81" on="0"/>
        <pt x="66" y="172" on="0"/>
        <pt x="66" y="231" on="1"/>
        <pt x="66" y="309" on="0"/>
        <pt x="104" y="478" on="0"/>
        <pt x="185" y="619" on="0"/>
        <pt x="309" y="710" on="0"/>
        <pt x="396" y="710" on="1"/>
        <pt x="481" y="710" on="0"/>
        <pt x="576" y="634" on="0"/>
        <pt x="595" y="565" on="1"/>
        <pt x="562" y="553" on="1"/>
        <pt x="545" y="611" on="0"/>
        <pt x="469" y="677" on="0"/>
        <pt x="394" y="677" on="1"/>
        <pt x="344" y="677" on="0"/>
        <pt x="257" y="637" on="0"/>
        <pt x="187" y="563" on="0"/>
        <pt x="138" y="458" on="0"/>
        <pt x="125" y="394" on="1"/>
        <pt x="111" y="325" on="1"/>
        <pt x="105" y="296" on="0"/>
        <pt x="102" y="246" on="0"/>
        <pt x="102" y="226" on="1"/>
        <pt x="102" y="132" on="0"/>
        <pt x="200" y="21" on="0"/>
        <pt x="292" y="21" on="1"/>
        <pt x="363" y="21" on="0"/>
        <pt x="459" y="91" on="0"/>
        <pt x="497" y="160" on="1"/>
        <pt x="528" y="145" on="1"/>
        <pt x="481" y="62" on="0"/>
        <pt x="368" y="-12" on="0"/>
      </contour>
    </TTGlyph>
    <TTGlyph name="Cacute" xMin="66" yMin="-12" xMax="595" yMax="936">
      <component glyphName="C" x="0" y="0" flags="0x204"/>
      <component glyphName="acute.case" x="97" y="0" flags="0x4"/>
    </TTGlyph>
    <TTGlyph name="Ccaron" xMin="66" yMin="-12" xMax="595" yMax="931">
      <component glyphName="C" x="0" y="0" flags="0x204"/>
      <component glyphName="caron.case" x="97" y="0" flags="0x4"/>
    </TTGlyph>
    <TTGlyph name="Ccedilla" xMin="66" yMin="-203" xMax="595" yMax="710">
      <contour>
        <pt x="394" y="677" on="1"/>
        <pt x="344" y="677" on="0"/>
        <pt x="257" y="637" on="0"/>
        <pt x="187" y="563" on="0"/>
        <pt x="138" y="458" on="0"/>
        <pt x="125" y="394" on="1"/>
        <pt x="111" y="325" on="1"/>
        <pt x="105" y="296" on="0"/>
        <pt x="102" y="246" on="0"/>
        <pt x="102" y="226" on="1"/>
        <pt x="102" y="132" on="0"/>
        <pt x="200" y="21" on="0"/>
        <pt x="292" y="21" on="1"/>
        <pt x="363" y="21" on="0"/>
        <pt x="459" y="91" on="0"/>
        <pt x="497" y="160" on="1"/>
        <pt x="528" y="145" on="1"/>
        <pt x="482" y="64" on="0"/>
        <pt x="373" y="-10" on="0"/>
        <pt x="297" y="-12" on="1"/>
        <pt x="273" y="-70" on="1"/>
        <pt x="275" y="-72" on="1"/>
        <pt x="282" y="-71" on="0"/>
        <pt x="297" y="-69" on="0"/>
        <pt x="305" y="-69" on="1"/>
        <pt x="331" y="-69" on="0"/>
        <pt x="362" y="-97" on="0"/>
        <pt x="362" y="-123" on="1"/>
        <pt x="362" y="-157" on="0"/>
        <pt x="309" y="-203" on="0"/>
        <pt x="265" y="-203" on="1"/>
        <pt x="235" y="-203" on="0"/>
        <pt x="192" y="-184" on="0"/>
        <pt x="183" y="-170" on="1"/>
        <pt x="204" y="-150" on="1"/>
        <pt x="213" y="-162" on="0"/>
        <pt x="243" y="-177" on="0"/>
        <pt x="264" y="-177" on="1"/>
        <pt x="294" y="-177" on="0"/>
        <pt x="331" y="-147" on="0"/>
        <pt x="331" y="-124" on="1"/>
        <pt x="331" y="-107" on="0"/>
        <pt x="308" y="-86" on="0"/>
        <pt x="278" y="-84" on="1"/>
        <pt x="244" y="-82" on="1"/>
        <pt x="273" y="-12" on="1"/>
        <pt x="180" y="-5" on="0"/>
        <pt x="66" y="118" on="0"/>
        <pt x="66" y="231" on="1"/>
        <pt x="66" y="309" on="0"/>
        <pt x="104" y="478" on="0"/>
        <pt x="185" y="619" on="0"/>
        <pt x="309" y="710" on="0"/>
        <pt x="396" y="710" on="1"/>
        <pt x="481" y="710" on="0"/>
        <pt x="576" y="634" on="0"/>
        <pt x="595" y="565" on="1"/>
        <pt x="562" y="553" on="1"/>
        <pt x="545" y="611" on="0"/>
        <pt x="469" y="677" on="0"/>
      </contour>
    </TTGlyph>
    <TTGlyph name="Ccircumflex" xMin="66" yMin="-12" xMax="595" yMax="926">
      <component glyphName="C" x="0" y="0" flags="0x204"/>
      <component glyphName="circumflex.case" x="97" y="0" flags="0x4"/>
    </TTGlyph>
    <TTGlyph name="Cdotaccent" xMin="66" yMin="-12" xMax="595" yMax="876">
      <component glyphName="C" x="0" y="0" flags="0x204"/>
      <component glyphName="dotaccent.case" x="97" y="0" flags="0x4"/>
    </TTGlyph>
    <TTGlyph name="Chi" xMin="-28" yMin="0" xMax="614" yMax="698">
      <component glyphName="X" x="0" y="0" flags="0x204"/>
    </TTGlyph>
    <TTGlyph name="D" xMin="50" yMin="0" xMax="612" yMax="698">
      <contour>
        <pt x="190" y="698" on="1"/>
        <pt x="379" y="698" on="1"/>
        <pt x="494" y="698" on="0"/>
        <pt x="612" y="573" on="0"/>
        <pt x="612" y="458" on="1"/>
        <pt x="612" y="374" on="0"/>
        <pt x="572" y="210" on="0"/>
        <pt x="490" y="80" on="0"/>
        <pt x="365" y="0" on="0"/>
        <pt x="280" y="0" on="1"/>
        <pt x="50" y="0" on="1"/>
      </contour>
      <contour>
        <pt x="281" y="32" on="1"/>
        <pt x="337" y="32" on="0"/>
        <pt x="428" y="74" on="0"/>
        <pt x="497" y="146" on="0"/>
        <pt x="543" y="244" on="0"/>
        <pt x="554" y="300" on="1"/>
        <pt x="567" y="367" on="1"/>
        <pt x="572" y="394" on="0"/>
        <pt x="576" y="445" on="0"/>
        <pt x="576" y="465" on="1"/>
        <pt x="576" y="559" on="0"/>
        <pt x="476" y="666" on="0"/>
        <pt x="376" y="666" on="1"/>
        <pt x="219" y="666" on="1"/>
        <pt x="93" y="32" on="1"/>
      </contour>
    </TTGlyph>
    <TTGlyph name="Dcaron" xMin="50" yMin="0" xMax="612" yMax="931">
      <component glyphName="D" x="0" y="0" flags="0x204"/>
      <component glyphName="caron.case" x="69" y="0" flags="0x4"/>
    </TTGlyph>
    <TTGlyph name="Dcroat" xMin="40" yMin="0" xMax="615" yMax="698">
      <contour>
        <pt x="124" y="353" on="1"/>
        <pt x="40" y="353" on="1"/>
        <pt x="46" y="383" on="1"/>
        <pt x="130" y="383" on="1"/>
        <pt x="193" y="698" on="1"/>
        <pt x="382" y="698" on="1"/>
        <pt x="496" y="698" on="0"/>
        <pt x="615" y="573" on="0"/>
        <pt x="615" y="458" on="1"/>
        <pt x="615" y="374" on="0"/>
        <pt x="575" y="210" on="0"/>
        <pt x="493" y="80" on="0"/>
        <pt x="368" y="0" on="0"/>
        <pt x="283" y="0" on="1"/>
        <pt x="53" y="0" on="1"/>
      </contour>
      <contour>
        <pt x="284" y="32" on="1"/>
        <pt x="340" y="32" on="0"/>
        <pt x="431" y="74" on="0"/>
        <pt x="500" y="146" on="0"/>
        <pt x="546" y="244" on="0"/>
        <pt x="557" y="300" on="1"/>
        <pt x="570" y="367" on="1"/>
        <pt x="575" y="394" on="0"/>
        <pt x="579" y="445" on="0"/>
        <pt x="579" y="465" on="1"/>
        <pt x="579" y="559" on="0"/>
        <pt x="479" y="666" on="0"/>
        <pt x="379" y="666" on="1"/>
        <pt x="222" y="666" on="1"/>
        <pt x="166" y="383" on="1"/>
        <pt x="325" y="383" on="1"/>
        <pt x="319" y="353" on="1"/>
        <pt x="160" y="353" on="1"/>
        <pt x="96" y="32" on="1"/>
      </contour>
    </TTGlyph>
    <TTGlyph name="Delta" xMin="-6" yMin="0" xMax="522" yMax="698">
      <contour>
        <pt x="1" y="34" on="1"/>
        <pt x="352" y="698" on="1"/>
        <pt x="400" y="698" on="1"/>
        <pt x="522" y="35" on="1"/>
        <pt x="516" y="0" on="1"/>
        <pt x="-6" y="0" on="1"/>
      </contour>
      <contour>
        <pt x="372" y="661" on="1"/>
        <pt x="368" y="661" on="1"/>
        <pt x="38" y="32" on="1"/>
        <pt x="486" y="32" on="1"/>
      </contour>
    </TTGlyph>
    <TTGlyph name="E" xMin="50" yMin="0" xMax="576" yMax="698">
      <contour>
        <pt x="50" y="0" on="1"/>
        <pt x="190" y="698" on="1"/>
        <pt x="576" y="698" on="1"/>
        <pt x="570" y="666" on="1"/>
        <pt x="220" y="666" on="1"/>
        <pt x="160" y="370" on="1"/>
        <pt x="493" y="370" on="1"/>
        <pt x="487" y="338" on="1"/>
        <pt x="153" y="338" on="1"/>
        <pt x="92" y="32" on="1"/>
        <pt x="447" y="32" on="1"/>
        <pt x="440" y="0" on="1"/>
      </contour>
    </TTGlyph>
    <TTGlyph name="Eacute" xMin="50" yMin="0" xMax="576" yMax="936">
      <component glyphName="E" x="0" y="0" flags="0x204"/>
      <component glyphName="acute.case" x="79" y="0" flags="0x4"/>
    </TTGlyph>
    <TTGlyph name="Ebreve" xMin="50" yMin="0" xMax="576" yMax="912">
      <component glyphName="E" x="0" y="0" flags="0x204"/>
      <component glyphName="breve.case" x="79" y="0" flags="0x4"/>
    </TTGlyph>
    <TTGlyph name="Ecaron" xMin="50" yMin="0" xMax="576" yMax="931">
      <component glyphName="E" x="0" y="0" flags="0x204"/>
      <component glyphName="caron.case" x="79" y="0" flags="0x4"/>
    </TTGlyph>
    <TTGlyph name="Ecircumflex" xMin="50" yMin="0" xMax="576" yMax="926">
      <component glyphName="E" x="0" y="0" flags="0x204"/>
      <component glyphName="circumflex.case" x="79" y="0" flags="0x4"/>
    </TTGlyph>
    <TTGlyph name="Edieresis" xMin="50" yMin="0" xMax="576" yMax="876">
      <component glyphName="E" x="0" y="0" flags="0x204"/>
      <component glyphName="dieresis.case" x="79" y="0" flags="0x4"/>
    </TTGlyph>
    <TTGlyph name="Edotaccent" xMin="50" yMin="0" xMax="576" yMax="876">
      <component glyphName="E" x="0" y="0" flags="0x204"/>
      <component glyphName="dotaccent.case" x="79" y="0" flags="0x4"/>
    </TTGlyph>
    <TTGlyph name="Egrave" xMin="50" yMin="0" xMax="576" yMax="936">
      <component glyphName="E" x="0" y="0" flags="0x204"/>
      <component glyphName="grave.case" x="79" y="0" flags="0x4"/>
    </TTGlyph>
    <TTGlyph name="Emacron" xMin="50" yMin="0" xMax="576" yMax="861">
      <component glyphName="E" x="0" y="0" flags="0x204"/>
      <component glyphName="macron.case" x="79" y="0" flags="0x4"/>
    </TTGlyph>
    <TTGlyph name="Eng" xMin="50" yMin="-200" xMax="668" yMax="698">
      <contour>
        <pt x="50" y="0" on="1"/>
        <pt x="190" y="698" on="1"/>
        <pt x="236" y="698" on="1"/>
        <pt x="501" y="49" on="1"/>
        <pt x="504" y="49" on="1"/>
        <pt x="633" y="698" on="1"/>
        <pt x="668" y="698" on="1"/>
        <pt x="497" y="-154" on="1"/>
        <pt x="488" y="-200" on="0"/>
        <pt x="444" y="-200" on="1"/>
        <pt x="369" y="-200" on="1"/>
        <pt x="375" y="-169" on="1"/>
        <pt x="460" y="-169" on="1"/>
        <pt x="493" y="0" on="1"/>
        <pt x="483" y="0" on="1"/>
        <pt x="218" y="650" on="1"/>
        <pt x="215" y="650" on="1"/>
        <pt x="85" y="0" on="1"/>
      </contour>
    </TTGlyph>
    <TTGlyph name="Eogonek" xMin="50" yMin="-203" xMax="576" yMax="698">
      <contour>
        <pt x="190" y="698" on="1"/>
        <pt x="576" y="698" on="1"/>
        <pt x="570" y="666" on="1"/>
        <pt x="220" y="666" on="1"/>
        <pt x="160" y="370" on="1"/>
        <pt x="493" y="370" on="1"/>
        <pt x="487" y="338" on="1"/>
        <pt x="153" y="338" on="1"/>
        <pt x="92" y="32" on="1"/>
        <pt x="447" y="32" on="1"/>
        <pt x="441" y="0" on="1"/>
        <pt x="402" y="-23" on="0"/>
        <pt x="348" y="-58" on="0"/>
        <pt x="314" y="-88" on="0"/>
        <pt x="299" y="-117" on="0"/>
        <pt x="299" y="-133" on="1"/>
        <pt x="299" y="-155" on="0"/>
        <pt x="326" y="-177" on="0"/>
        <pt x="346" y="-177" on="1"/>
        <pt x="367" y="-177" on="0"/>
        <pt x="398" y="-162" on="0"/>
        <pt x="409" y="-151" on="1"/>
        <pt x="427" y="-170" on="1"/>
        <pt x="415" y="-184" on="0"/>
        <pt x="373" y="-203" on="0"/>
        <pt x="345" y="-203" on="1"/>
        <pt x="313" y="-203" on="0"/>
        <pt x="267" y="-170" on="0"/>
        <pt x="267" y="-135" on="1"/>
        <pt x="267" y="-105" on="0"/>
        <pt x="325" y="-41" on="0"/>
        <pt x="403" y="-3" on="1"/>
        <pt x="402" y="0" on="1"/>
        <pt x="50" y="0" on="1"/>
      </contour>
    </TTGlyph>
    <TTGlyph name="Epsilon" xMin="50" yMin="0" xMax="576" yMax="698">
      <component glyphName="E" x="0" y="0" flags="0x204"/>
    </TTGlyph>
    <TTGlyph name="Epsilontonos" xMin="51" yMin="0" xMax="602" yMax="758">
      <component glyphName="E" x="26" y="0" flags="0x4"/>
      <component glyphName="tonos.case" x="-282" y="0" flags="0x4"/>
    </TTGlyph>
    <TTGlyph name="Eta" xMin="50" yMin="0" xMax="668" yMax="698">
      <component glyphName="H" x="0" y="0" flags="0x204"/>
    </TTGlyph>
    <TTGlyph name="Etatonos" xMin="51" yMin="0" xMax="694" yMax="758">
      <component glyphName="H" x="26" y="0" flags="0x4"/>
      <component glyphName="tonos.case" x="-282" y="0" flags="0x4"/>
    </TTGlyph>
    <TTGlyph name="Eth" xMin="40" yMin="0" xMax="615" yMax="698">
      <component glyphName="Dcroat" x="0" y="0" flags="0x204"/>
    </TTGlyph>
    <TTGlyph name="Euro" xMin="66" yMin="-12" xMax="595" yMax="710">
      <contour>
        <pt x="289" y="-12" on="1"/>
        <pt x="240" y="-12" on="0"/>
        <pt x="158" y="19" on="0"/>
        <pt x="99" y="81" on="0"/>
        <pt x="66" y="172" on="0"/>
        <pt x="66" y="231" on="1"/>
        <pt x="66" y="283" on="0"/>
        <pt x="83" y="395" on="0"/>
        <pt x="118" y="501" on="0"/>
        <pt x="171" y="596" on="0"/>
        <pt x="244" y="668" on="0"/>
        <pt x="338" y="710" on="0"/>
        <pt x="396" y="710" on="1"/>
        <pt x="481" y="710" on="0"/>
        <pt x="576" y="634" on="0"/>
        <pt x="595" y="566" on="1"/>
        <pt x="562" y="553" on="1"/>
        <pt x="545" y="611" on="0"/>
        <pt x="469" y="677" on="0"/>
        <pt x="394" y="677" on="1"/>
        <pt x="303" y="677" on="0"/>
        <pt x="168" y="552" on="0"/>
        <pt x="136" y="443" on="1"/>
        <pt x="396" y="443" on="1"/>
        <pt x="390" y="413" on="1"/>
        <pt x="128" y="413" on="1"/>
        <pt x="120" y="383" on="0"/>
        <pt x="110" y="323" on="0"/>
        <pt x="105" y="285" on="1"/>
        <pt x="365" y="285" on="1"/>
        <pt x="359" y="255" on="1"/>
        <pt x="103" y="255" on="1"/>
        <pt x="102" y="246" on="0"/>
        <pt x="102" y="226" on="1"/>
        <pt x="102" y="131" on="0"/>
        <pt x="200" y="21" on="0"/>
        <pt x="291" y="21" on="1"/>
        <pt x="362" y="21" on="0"/>
        <pt x="458" y="91" on="0"/>
        <pt x="497" y="161" on="1"/>
        <pt x="525" y="142" on="1"/>
        <pt x="478" y="61" on="0"/>
        <pt x="369" y="-12" on="0"/>
      </contour>
    </TTGlyph>
    <TTGlyph name="F" xMin="50" yMin="0" xMax="568" yMax="698">
      <contour>
        <pt x="50" y="0" on="1"/>
        <pt x="190" y="698" on="1"/>
        <pt x="568" y="698" on="1"/>
        <pt x="561" y="666" on="1"/>
        <pt x="219" y="666" on="1"/>
        <pt x="159" y="370" on="1"/>
        <pt x="484" y="370" on="1"/>
        <pt x="478" y="338" on="1"/>
        <pt x="153" y="338" on="1"/>
        <pt x="86" y="0" on="1"/>
      </contour>
    </TTGlyph>
    <TTGlyph name="G" xMin="66" yMin="-12" xMax="617" yMax="710">
      <contour>
        <pt x="515" y="111" on="1"/>
        <pt x="512" y="111" on="1"/>
        <pt x="477" y="49" on="0"/>
        <pt x="364" y="-12" on="0"/>
        <pt x="291" y="-12" on="1"/>
        <pt x="241" y="-12" on="0"/>
        <pt x="158" y="19" on="0"/>
        <pt x="99" y="81" on="0"/>
        <pt x="66" y="172" on="0"/>
        <pt x="66" y="231" on="1"/>
        <pt x="66" y="282" on="0"/>
        <pt x="82" y="394" on="0"/>
        <pt x="117" y="500" on="0"/>
        <pt x="171" y="596" on="0"/>
        <pt x="246" y="668" on="0"/>
        <pt x="343" y="710" on="0"/>
        <pt x="403" y="710" on="1"/>
        <pt x="494" y="710" on="0"/>
        <pt x="598" y="633" on="0"/>
        <pt x="617" y="565" on="1"/>
        <pt x="584" y="553" on="1"/>
        <pt x="566" y="611" on="0"/>
        <pt x="482" y="677" on="0"/>
        <pt x="400" y="677" on="1"/>
        <pt x="347" y="677" on="0"/>
        <pt x="258" y="637" on="0"/>
        <pt x="187" y="563" on="0"/>
        <pt x="137" y="457" on="0"/>
        <pt x="124" y="392" on="1"/>
        <pt x="111" y="325" on="1"/>
        <pt x="106" y="297" on="0"/>
        <pt x="102" y="248" on="0"/>
        <pt x="102" y="228" on="1"/>
        <pt x="102" y="131" on="0"/>
        <pt x="202" y="21" on="0"/>
        <pt x="297" y="21" on="1"/>
        <pt x="336" y="21" on="0"/>
        <pt x="412" y="43" on="0"/>
        <pt x="476" y="90" on="0"/>
        <pt x="523" y="161" on="0"/>
        <pt x="533" y="211" on="1"/>
        <pt x="552" y="306" on="1"/>
        <pt x="382" y="306" on="1"/>
        <pt x="389" y="339" on="1"/>
        <pt x="594" y="339" on="1"/>
        <pt x="527" y="0" on="1"/>
        <pt x="493" y="0" on="1"/>
      </contour>
    </TTGlyph>
    <TTGlyph name="Gamma" xMin="50" yMin="0" xMax="536" yMax="698">
      <component glyphName="uni0413" x="0" y="0" flags="0x204"/>
    </TTGlyph>
    <TTGlyph name="Gbreve" xMin="66" yMin="-12" xMax="617" yMax="912">
      <component glyphName="G" x="0" y="0" flags="0x204"/>
      <component glyphName="breve.case" x="106" y="0" flags="0x4"/>
    </TTGlyph>
    <TTGlyph name="Gcircumflex" xMin="66" yMin="-12" xMax="617" yMax="926">
      <component glyphName="G" x="0" y="0" flags="0x204"/>
      <component glyphName="circumflex.case" x="106" y="0" flags="0x4"/>
    </TTGlyph>
    <TTGlyph name="Gcommaaccent" xMin="66" yMin="-220" xMax="617" yMax="710">
      <component glyphName="G" x="0" y="0" flags="0x204"/>
      <component glyphName="uni0326" x="292" y="0" flags="0x4"/>
    </TTGlyph>
    <TTGlyph name="Gdotaccent" xMin="66" yMin="-12" xMax="617" yMax="876">
      <component glyphName="G" x="0" y="0" flags="0x204"/>
      <component glyphName="dotaccent.case" x="106" y="0" flags="0x4"/>
    </TTGlyph>
    <TTGlyph name="H" xMin="50" yMin="0" xMax="668" yMax="698">
      <contour>
        <pt x="560" y="338" on="1"/>
        <pt x="154" y="338" on="1"/>
        <pt x="86" y="0" on="1"/>
        <pt x="50" y="0" on="1"/>
        <pt x="190" y="698" on="1"/>
        <pt x="226" y="698" on="1"/>
        <pt x="160" y="370" on="1"/>
        <pt x="566" y="370" on="1"/>
        <pt x="632" y="698" on="1"/>
        <pt x="668" y="698" on="1"/>
        <pt x="528" y="0" on="1"/>
        <pt x="492" y="0" on="1"/>
      </contour>
    </TTGlyph>
    <TTGlyph name="Hbar" xMin="53" yMin="0" xMax="723" yMax="698">
      <contour>
        <pt x="563" y="338" on="1"/>
        <pt x="157" y="338" on="1"/>
        <pt x="89" y="0" on="1"/>
        <pt x="53" y="0" on="1"/>
        <pt x="160" y="532" on="1"/>
        <pt x="82" y="532" on="1"/>
        <pt x="88" y="562" on="1"/>
        <pt x="167" y="562" on="1"/>
        <pt x="193" y="698" on="1"/>
        <pt x="229" y="698" on="1"/>
        <pt x="203" y="562" on="1"/>
        <pt x="608" y="562" on="1"/>
        <pt x="635" y="698" on="1"/>
        <pt x="671" y="698" on="1"/>
        <pt x="644" y="562" on="1"/>
        <pt x="723" y="562" on="1"/>
        <pt x="717" y="532" on="1"/>
        <pt x="638" y="532" on="1"/>
        <pt x="531" y="0" on="1"/>
        <pt x="495" y="0" on="1"/>
      </contour>
      <contour>
        <pt x="569" y="370" on="1"/>
        <pt x="602" y="532" on="1"/>
        <pt x="196" y="532" on="1"/>
        <pt x="163" y="370" on="1"/>
      </contour>
    </TTGlyph>
    <TTGlyph name="Hcircumflex" xMin="50" yMin="0" xMax="668" yMax="926">
      <component glyphName="H" x="0" y="0" flags="0x204"/>
      <component glyphName="circumflex.case" x="129" y="0" flags="0x4"/>
    </TTGlyph>
    <TTGlyph name="I" xMin="15" yMin="0" xMax="397" yMax="698">
      <contour>
        <pt x="15" y="0" on="1"/>
        <pt x="21" y="31" on="1"/>
        <pt x="124" y="31" on="1"/>
        <pt x="252" y="667" on="1"/>
        <pt x="148" y="667" on="1"/>
        <pt x="154" y="698" on="1"/>
        <pt x="397" y="698" on="1"/>
        <pt x="391" y="667" on="1"/>
        <pt x="288" y="667" on="1"/>
        <pt x="160" y="31" on="1"/>
        <pt x="264" y="31" on="1"/>
        <pt x="258" y="0" on="1"/>
      </contour>
    </TTGlyph>
    <TTGlyph name="IJ" xMin="70" yMin="-12" xMax="622" yMax="698">
      <contour>
        <pt x="622" y="698" on="1"/>
        <pt x="523" y="207" on="1"/>
        <pt x="502" y="100" on="0"/>
        <pt x="371" y="-12" on="0"/>
        <pt x="267" y="-12" on="1"/>
        <pt x="177" y="-12" on="0"/>
        <pt x="75" y="71" on="0"/>
        <pt x="70" y="139" on="1"/>
        <pt x="103" y="147" on="1"/>
        <pt x="109" y="82" on="0"/>
        <pt x="198" y="20" on="0"/>
        <pt x="270" y="20" on="1"/>
        <pt x="358" y="20" on="0"/>
        <pt x="469" y="117" on="0"/>
        <pt x="487" y="208" on="1"/>
        <pt x="579" y="665" on="1"/>
        <pt x="393" y="665" on="1"/>
        <pt x="399" y="698" on="1"/>
      </contour>
      <contour>
        <pt x="184" y="698" on="1"/>
        <pt x="220" y="698" on="1"/>
        <pt x="138" y="290" on="1"/>
        <pt x="102" y="290" on="1"/>
      </contour>
    </TTGlyph>
    <TTGlyph name="IJacute" xMin="70" yMin="-12" xMax="689" yMax="936">
      <component glyphName="IJ" x="0" y="0" flags="0x204"/>
      <component glyphName="acute.case" x="-79" y="0" flags="0x4"/>
      <component glyphName="acute.case" x="236" y="0" flags="0x4"/>
    </TTGlyph>
    <TTGlyph name="Iacute" xMin="15" yMin="0" xMax="428" yMax="936">
      <component glyphName="I" x="0" y="0" flags="0x204"/>
      <component glyphName="acute.case" x="-25" y="0" flags="0x4"/>
    </TTGlyph>
    <TTGlyph name="Ibreve" xMin="15" yMin="0" xMax="448" yMax="912">
      <component glyphName="I" x="0" y="0" flags="0x204"/>
      <component glyphName="breve.case" x="-25" y="0" flags="0x4"/>
    </TTGlyph>
    <TTGlyph name="Icircumflex" xMin="15" yMin="0" xMax="440" yMax="926">
      <component glyphName="I" x="0" y="0" flags="0x204"/>
      <component glyphName="circumflex.case" x="-25" y="0" flags="0x4"/>
    </TTGlyph>
    <TTGlyph name="Idieresis" xMin="15" yMin="0" xMax="425" yMax="876">
      <component glyphName="I" x="0" y="0" flags="0x204"/>
      <component glyphName="dieresis.case" x="-25" y="0" flags="0x4"/>
    </TTGlyph>
    <TTGlyph name="Idotaccent" xMin="15" yMin="0" xMax="397" yMax="876">
      <component glyphName="I" x="0" y="0" flags="0x204"/>
      <component glyphName="dotaccent.case" x="-25" y="0" flags="0x4"/>
    </TTGlyph>
    <TTGlyph name="Igrave" xMin="15" yMin="0" xMax="397" yMax="936">
      <component glyphName="I" x="0" y="0" flags="0x204"/>
      <component glyphName="grave.case" x="-25" y="0" flags="0x4"/>
    </TTGlyph>
    <TTGlyph name="Imacron" xMin="15" yMin="0" xMax="448" yMax="861">
      <component glyphName="I" x="0" y="0" flags="0x204"/>
      <component glyphName="macron.case" x="-25" y="0" flags="0x4"/>
    </TTGlyph>
    <TTGlyph name="Iogonek" xMin="14" yMin="-203" xMax="397" yMax="698">
      <contour>
        <pt x="20" y="31" on="1"/>
        <pt x="124" y="31" on="1"/>
        <pt x="251" y="667" on="1"/>
        <pt x="147" y="667" on="1"/>
        <pt x="153" y="698" on="1"/>
        <pt x="397" y="698" on="1"/>
        <pt x="390" y="667" on="1"/>
        <pt x="287" y="667" on="1"/>
        <pt x="160" y="31" on="1"/>
        <pt x="263" y="31" on="1"/>
        <pt x="257" y="0" on="1"/>
        <pt x="218" y="-23" on="0"/>
        <pt x="164" y="-58" on="0"/>
        <pt x="131" y="-88" on="0"/>
        <pt x="116" y="-117" on="0"/>
        <pt x="116" y="-133" on="1"/>
        <pt x="116" y="-155" on="0"/>
        <pt x="143" y="-177" on="0"/>
        <pt x="163" y="-177" on="1"/>
        <pt x="184" y="-177" on="0"/>
        <pt x="215" y="-162" on="0"/>
        <pt x="225" y="-151" on="1"/>
        <pt x="244" y="-170" on="1"/>
        <pt x="232" y="-184" on="0"/>
        <pt x="189" y="-203" on="0"/>
        <pt x="162" y="-203" on="1"/>
        <pt x="129" y="-203" on="0"/>
        <pt x="84" y="-170" on="0"/>
        <pt x="84" y="-135" on="1"/>
        <pt x="84" y="-120" on="0"/>
        <pt x="97" y="-89" on="0"/>
        <pt x="128" y="-56" on="0"/>
        <pt x="181" y="-22" on="0"/>
        <pt x="220" y="-3" on="1"/>
        <pt x="219" y="0" on="1"/>
        <pt x="14" y="0" on="1"/>
      </contour>
    </TTGlyph>
    <TTGlyph name="Iota" xMin="15" yMin="0" xMax="397" yMax="698">
      <component glyphName="I" x="0" y="0" flags="0x204"/>
    </TTGlyph>
    <TTGlyph name="Iotadieresis" xMin="15" yMin="0" xMax="427" yMax="876">
      <component glyphName="I" x="0" y="0" flags="0x204"/>
      <component glyphName="dieresis.case" x="-23" y="0" flags="0x4"/>
    </TTGlyph>
    <TTGlyph name="Iotatonos" xMin="51" yMin="0" xMax="452" yMax="758">
      <component glyphName="I" x="55" y="0" flags="0x4"/>
      <component glyphName="tonos.case" x="-282" y="0" flags="0x4"/>
    </TTGlyph>
    <TTGlyph name="Itilde" xMin="15" yMin="0" xMax="466" yMax="886">
      <component glyphName="I" x="0" y="0" flags="0x204"/>
      <component glyphName="tilde.case" x="-25" y="0" flags="0x4"/>
    </TTGlyph>
    <TTGlyph name="J" xMin="-10" yMin="-12" xMax="458" yMax="698">
      <contour>
        <pt x="458" y="698" on="1"/>
        <pt x="355" y="180" on="1"/>
        <pt x="336" y="87" on="0"/>
        <pt x="230" y="-12" on="0"/>
        <pt x="149" y="-12" on="1"/>
        <pt x="76" y="-12" on="0"/>
        <pt x="-6" y="64" on="0"/>
        <pt x="-10" y="126" on="1"/>
        <pt x="23" y="134" on="1"/>
        <pt x="28" y="78" on="0"/>
        <pt x="93" y="21" on="0"/>
        <pt x="150" y="21" on="1"/>
        <pt x="219" y="21" on="0"/>
        <pt x="304" y="107" on="0"/>
        <pt x="320" y="187" on="1"/>
        <pt x="416" y="666" on="1"/>
        <pt x="173" y="666" on="1"/>
        <pt x="178" y="698" on="1"/>
      </contour>
    </TTGlyph>
    <TTGlyph name="Jacute" xMin="-10" yMin="-12" xMax="458" yMax="936">
      <component glyphName="J" x="0" y="0" flags="0x204"/>
      <component glyphName="acute.case" x="1" y="0" flags="0x4"/>
    </TTGlyph>
    <TTGlyph name="Jcircumflex" xMin="-10" yMin="-12" xMax="466" yMax="926">
      <component glyphName="J" x="0" y="0" flags="0x204"/>
      <component glyphName="circumflex.case" x="1" y="0" flags="0x4"/>
    </TTGlyph>
    <TTGlyph name="K" xMin="50" yMin="0" xMax="641" yMax="698">
      <contour>
        <pt x="290" y="377" on="1"/>
        <pt x="134" y="234" on="1"/>
        <pt x="86" y="0" on="1"/>
        <pt x="50" y="0" on="1"/>
        <pt x="190" y="698" on="1"/>
        <pt x="226" y="698" on="1"/>
        <pt x="145" y="288" on="1"/>
        <pt x="148" y="288" on="1"/>
        <pt x="303" y="431" on="1"/>
        <pt x="594" y="698" on="1"/>
        <pt x="641" y="698" on="1"/>
        <pt x="318" y="400" on="1"/>
        <pt x="509" y="0" on="1"/>
        <pt x="471" y="0" on="1"/>
      </contour>
    </TTGlyph>
    <TTGlyph name="Kappa" xMin="50" yMin="0" xMax="641" yMax="698">
      <component glyphName="K" x="0" y="0" flags="0x204"/>
    </TTGlyph>
    <TTGlyph name="Kcommaaccent" xMin="50" yMin="-220" xMax="641" yMax="698">
      <component glyphName="K" x="0" y="0" flags="0x204"/>
      <component glyphName="uni0326" x="262" y="0" flags="0x4"/>
    </TTGlyph>
    <TTGlyph name="L" xMin="50" yMin="0" xMax="409" yMax="698">
      <contour>
        <pt x="50" y="0" on="1"/>
        <pt x="190" y="698" on="1"/>
        <pt x="226" y="698" on="1"/>
        <pt x="93" y="32" on="1"/>
        <pt x="409" y="32" on="1"/>
        <pt x="403" y="0" on="1"/>
      </contour>
    </TTGlyph>
    <TTGlyph name="Lacute" xMin="50" yMin="0" xMax="409" yMax="936">
      <component glyphName="L" x="0" y="0" flags="0x204"/>
      <component glyphName="acute.case" x="-85" y="0" flags="0x4"/>
    </TTGlyph>
    <TTGlyph name="Lambda" xMin="-16" yMin="0" xMax="523" yMax="698">
      <contour>
        <pt x="399" y="698" on="1"/>
        <pt x="523" y="0" on="1"/>
        <pt x="487" y="0" on="1"/>
        <pt x="371" y="661" on="1"/>
        <pt x="367" y="661" on="1"/>
        <pt x="23" y="0" on="1"/>
        <pt x="-16" y="0" on="1"/>
        <pt x="351" y="698" on="1"/>
      </contour>
    </TTGlyph>
    <TTGlyph name="Lcaron" xMin="50" yMin="0" xMax="409" yMax="740">
      <component glyphName="L" x="0" y="0" flags="0x204"/>
      <component glyphName="uni02BC" x="29" y="0" flags="0x4"/>
    </TTGlyph>
    <TTGlyph name="Lcommaaccent" xMin="50" yMin="-220" xMax="409" yMax="698">
      <component glyphName="L" x="0" y="0" flags="0x204"/>
      <component glyphName="uni0326" x="230" y="0" flags="0x4"/>
    </TTGlyph>
    <TTGlyph name="Ldot" xMin="50" yMin="0" xMax="409" yMax="698">
      <component glyphName="L" x="0" y="0" flags="0x204"/>
      <component glyphName="dotaccent" x="33" y="-358" flags="0x4"/>
    </TTGlyph>
    <TTGlyph name="Lslash" xMin="13" yMin="0" xMax="413" yMax="698">
      <contour>
        <pt x="406" y="0" on="1"/>
        <pt x="54" y="0" on="1"/>
        <pt x="113" y="294" on="1"/>
        <pt x="13" y="262" on="1"/>
        <pt x="17" y="295" on="1"/>
        <pt x="119" y="328" on="1"/>
        <pt x="194" y="698" on="1"/>
        <pt x="230" y="698" on="1"/>
        <pt x="158" y="340" on="1"/>
        <pt x="356" y="404" on="1"/>
        <pt x="352" y="371" on="1"/>
        <pt x="151" y="307" on="1"/>
        <pt x="96" y="32" on="1"/>
        <pt x="413" y="32" on="1"/>
      </contour>
    </TTGlyph>
    <TTGlyph name="M" xMin="50" yMin="0" xMax="768" yMax="698">
      <contour>
        <pt x="724" y="652" on="1"/>
        <pt x="721" y="652" on="1"/>
        <pt x="384" y="219" on="1"/>
        <pt x="220" y="652" on="1"/>
        <pt x="216" y="652" on="1"/>
        <pt x="85" y="0" on="1"/>
        <pt x="50" y="0" on="1"/>
        <pt x="190" y="698" on="1"/>
        <pt x="240" y="698" on="1"/>
        <pt x="394" y="288" on="1"/>
        <pt x="397" y="288" on="1"/>
        <pt x="715" y="698" on="1"/>
        <pt x="768" y="698" on="1"/>
        <pt x="628" y="0" on="1"/>
        <pt x="593" y="0" on="1"/>
      </contour>
    </TTGlyph>
    <TTGlyph name="Mu" xMin="50" yMin="0" xMax="768" yMax="698">
      <component glyphName="M" x="0" y="0" flags="0x204"/>
    </TTGlyph>
    <TTGlyph name="N" xMin="50" yMin="0" xMax="668" yMax="698">
      <contour>
        <pt x="217" y="649" on="1"/>
        <pt x="214" y="649" on="1"/>
        <pt x="85" y="0" on="1"/>
        <pt x="50" y="0" on="1"/>
        <pt x="190" y="698" on="1"/>
        <pt x="235" y="698" on="1"/>
        <pt x="501" y="49" on="1"/>
        <pt x="504" y="49" on="1"/>
        <pt x="633" y="698" on="1"/>
        <pt x="668" y="698" on="1"/>
        <pt x="528" y="0" on="1"/>
        <pt x="483" y="0" on="1"/>
      </contour>
    </TTGlyph>
    <TTGlyph name="Nacute" xMin="50" yMin="0" xMax="668" yMax="936">
      <component glyphName="N" x="0" y="0" flags="0x204"/>
      <component glyphName="acute.case" x="136" y="0" flags="0x4"/>
    </TTGlyph>
    <TTGlyph name="Ncaron" xMin="50" yMin="0" xMax="668" yMax="931">
      <component glyphName="N" x="0" y="0" flags="0x204"/>
      <component glyphName="caron.case" x="136" y="0" flags="0x4"/>
    </TTGlyph>
    <TTGlyph name="Ncommaaccent" xMin="50" yMin="-220" xMax="668" yMax="698">
      <component glyphName="N" x="0" y="0" flags="0x204"/>
      <component glyphName="uni0326" x="295" y="0" flags="0x4"/>
    </TTGlyph>
    <TTGlyph name="Ntilde" xMin="50" yMin="0" xMax="668" yMax="886">
      <component glyphName="N" x="0" y="0" flags="0x204"/>
      <component glyphName="tilde.case" x="136" y="0" flags="0x4"/>
    </TTGlyph>
    <TTGlyph name="Nu" xMin="50" yMin="0" xMax="668" yMax="698">
      <component glyphName="N" x="0" y="0" flags="0x204"/>
    </TTGlyph>
    <TTGlyph name="O" xMin="66" yMin="-12" xMax="630" yMax="710">
      <contour>
        <pt x="293" y="-12" on="1"/>
        <pt x="243" y="-12" on="0"/>
        <pt x="159" y="19" on="0"/>
        <pt x="99" y="81" on="0"/>
        <pt x="66" y="170" on="0"/>
        <pt x="66" y="229" on="1"/>
        <pt x="66" y="280" on="0"/>
        <pt x="83" y="392" on="0"/>
        <pt x="118" y="499" on="0"/>
        <pt x="172" y="595" on="0"/>
        <pt x="247" y="667" on="0"/>
        <pt x="343" y="710" on="0"/>
        <pt x="403" y="710" on="1"/>
        <pt x="453" y="710" on="0"/>
        <pt x="537" y="679" on="0"/>
        <pt x="597" y="617" on="0"/>
        <pt x="630" y="527" on="0"/>
        <pt x="630" y="469" on="1"/>
        <pt x="630" y="418" on="0"/>
        <pt x="613" y="306" on="0"/>
        <pt x="578" y="199" on="0"/>
        <pt x="524" y="103" on="0"/>
        <pt x="449" y="31" on="0"/>
        <pt x="352" y="-12" on="0"/>
      </contour>
      <contour>
        <pt x="295" y="21" on="1"/>
        <pt x="347" y="21" on="0"/>
        <pt x="437" y="61" on="0"/>
        <pt x="508" y="136" on="0"/>
        <pt x="559" y="243" on="0"/>
        <pt x="572" y="309" on="1"/>
        <pt x="585" y="375" on="1"/>
        <pt x="590" y="404" on="0"/>
        <pt x="594" y="454" on="0"/>
        <pt x="594" y="474" on="1"/>
        <pt x="594" y="568" on="0"/>
        <pt x="495" y="677" on="0"/>
        <pt x="401" y="677" on="1"/>
        <pt x="349" y="677" on="0"/>
        <pt x="259" y="636" on="0"/>
        <pt x="188" y="561" on="0"/>
        <pt x="137" y="455" on="0"/>
        <pt x="124" y="389" on="1"/>
        <pt x="111" y="323" on="1"/>
        <pt x="106" y="294" on="0"/>
        <pt x="102" y="244" on="0"/>
        <pt x="102" y="224" on="1"/>
        <pt x="102" y="130" on="0"/>
        <pt x="201" y="21" on="0"/>
      </contour>
    </TTGlyph>
    <TTGlyph name="OE" xMin="66" yMin="-12" xMax="951" yMax="710">
      <contour>
        <pt x="427" y="0" on="1"/>
        <pt x="401" y="-7" on="0"/>
        <pt x="335" y="-12" on="0"/>
        <pt x="309" y="-12" on="1"/>
        <pt x="255" y="-12" on="0"/>
        <pt x="166" y="18" on="0"/>
        <pt x="101" y="78" on="0"/>
        <pt x="66" y="168" on="0"/>
        <pt x="66" y="227" on="1"/>
        <pt x="66" y="260" on="0"/>
        <pt x="77" y="358" on="0"/>
        <pt x="105" y="465" on="0"/>
        <pt x="156" y="572" on="0"/>
        <pt x="236" y="657" on="0"/>
        <pt x="348" y="710" on="0"/>
        <pt x="425" y="710" on="1"/>
        <pt x="458" y="710" on="0"/>
        <pt x="537" y="703" on="0"/>
        <pt x="565" y="698" on="1"/>
        <pt x="951" y="698" on="1"/>
        <pt x="945" y="666" on="1"/>
        <pt x="595" y="666" on="1"/>
        <pt x="535" y="370" on="1"/>
        <pt x="868" y="370" on="1"/>
        <pt x="862" y="338" on="1"/>
        <pt x="528" y="338" on="1"/>
        <pt x="467" y="32" on="1"/>
        <pt x="822" y="32" on="1"/>
        <pt x="815" y="0" on="1"/>
      </contour>
      <contour>
        <pt x="313" y="21" on="1"/>
        <pt x="339" y="21" on="0"/>
        <pt x="406" y="25" on="0"/>
        <pt x="432" y="35" on="1"/>
        <pt x="558" y="665" on="1"/>
        <pt x="535" y="670" on="0"/>
        <pt x="457" y="677" on="0"/>
        <pt x="422" y="677" on="1"/>
        <pt x="362" y="677" on="0"/>
        <pt x="264" y="636" on="0"/>
        <pt x="189" y="563" on="0"/>
        <pt x="139" y="462" on="0"/>
        <pt x="127" y="401" on="1"/>
        <pt x="113" y="333" on="1"/>
        <pt x="107" y="301" on="0"/>
        <pt x="101" y="244" on="0"/>
        <pt x="101" y="222" on="1"/>
        <pt x="101" y="125" on="0"/>
        <pt x="210" y="21" on="0"/>
      </contour>
    </TTGlyph>
    <TTGlyph name="Oacute" xMin="66" yMin="-12" xMax="630" yMax="936">
      <component glyphName="O" x="0" y="0" flags="0x204"/>
      <component glyphName="acute.case" x="117" y="0" flags="0x4"/>
    </TTGlyph>
    <TTGlyph name="Obreve" xMin="66" yMin="-12" xMax="630" yMax="912">
      <component glyphName="O" x="0" y="0" flags="0x204"/>
      <component glyphName="breve.case" x="117" y="0" flags="0x4"/>
    </TTGlyph>
    <TTGlyph name="Ocircumflex" xMin="66" yMin="-12" xMax="630" yMax="926">
      <component glyphName="O" x="0" y="0" flags="0x204"/>
      <component glyphName="circumflex.case" x="117" y="0" flags="0x4"/>
    </TTGlyph>
    <TTGlyph name="Odieresis" xMin="66" yMin="-12" xMax="630" yMax="876">
      <component glyphName="O" x="0" y="0" flags="0x204"/>
      <component glyphName="dieresis.case" x="117" y="0" flags="0x4"/>
    </TTGlyph>
    <TTGlyph name="Ograve" xMin="66" yMin="-12" xMax="630" yMax="936">
      <component glyphName="O" x="0" y="0" flags="0x204"/>
      <component glyphName="grave.case" x="117" y="0" flags="0x4"/>
    </TTGlyph>
    <TTGlyph name="Ohorn" xMin="66" yMin="-12" xMax="676" yMax="809">
      <contour>
        <pt x="676" y="809" on="1"/>
        <pt x="656" y="709" on="1"/>
        <pt x="652" y="692" on="0"/>
        <pt x="634" y="672" on="0"/>
        <pt x="613" y="672" on="1"/>
        <pt x="539" y="672" on="1"/>
        <pt x="582" y="643" on="0"/>
        <pt x="630" y="540" on="0"/>
        <pt x="630" y="469" on="1"/>
        <pt x="630" y="418" on="0"/>
        <pt x="613" y="306" on="0"/>
        <pt x="578" y="199" on="0"/>
        <pt x="524" y="103" on="0"/>
        <pt x="449" y="31" on="0"/>
        <pt x="352" y="-12" on="0"/>
        <pt x="293" y="-12" on="1"/>
        <pt x="243" y="-12" on="0"/>
        <pt x="159" y="19" on="0"/>
        <pt x="99" y="81" on="0"/>
        <pt x="66" y="170" on="0"/>
        <pt x="66" y="229" on="1"/>
        <pt x="66" y="280" on="0"/>
        <pt x="83" y="392" on="0"/>
        <pt x="118" y="499" on="0"/>
        <pt x="172" y="595" on="0"/>
        <pt x="247" y="667" on="0"/>
        <pt x="343" y="710" on="0"/>
        <pt x="403" y="710" on="1"/>
        <pt x="425" y="710" on="0"/>
        <pt x="468" y="705" on="0"/>
        <pt x="485" y="698" on="1"/>
        <pt x="622" y="698" on="1"/>
        <pt x="644" y="809" on="1"/>
      </contour>
      <contour>
        <pt x="295" y="21" on="1"/>
        <pt x="347" y="21" on="0"/>
        <pt x="437" y="61" on="0"/>
        <pt x="508" y="136" on="0"/>
        <pt x="559" y="243" on="0"/>
        <pt x="572" y="309" on="1"/>
        <pt x="585" y="375" on="1"/>
        <pt x="590" y="404" on="0"/>
        <pt x="594" y="454" on="0"/>
        <pt x="594" y="474" on="1"/>
        <pt x="594" y="568" on="0"/>
        <pt x="495" y="677" on="0"/>
        <pt x="401" y="677" on="1"/>
        <pt x="349" y="677" on="0"/>
        <pt x="259" y="636" on="0"/>
        <pt x="188" y="561" on="0"/>
        <pt x="137" y="455" on="0"/>
        <pt x="124" y="389" on="1"/>
        <pt x="111" y="323" on="1"/>
        <pt x="106" y="294" on="0"/>
        <pt x="102" y="244" on="0"/>
        <pt x="102" y="224" on="1"/>
        <pt x="102" y="130" on="0"/>
        <pt x="201" y="21" on="0"/>
      </contour>
    </TTGlyph>
    <TTGlyph name="Ohungarumlaut" xMin="66" yMin="-12" xMax="643" yMax="935">
      <component glyphName="O" x="0" y="0" flags="0x204"/>
      <component glyphName="hungarumlaut.case" x="117" y="0" flags="0x4"/>
    </TTGlyph>
    <TTGlyph name="Omacron" xMin="66" yMin="-12" xMax="630" yMax="861">
      <component glyphName="O" x="0" y="0" flags="0x204"/>
      <component glyphName="macron.case" x="117" y="0" flags="0x4"/>
    </TTGlyph>
    <TTGlyph name="Omega" xMin="15" yMin="0" xMax="634" yMax="710">
      <contour>
        <pt x="21" y="32" on="1"/>
        <pt x="190" y="32" on="1"/>
        <pt x="193" y="51" on="1"/>
        <pt x="171" y="68" on="0"/>
        <pt x="131" y="110" on="0"/>
        <pt x="101" y="165" on="0"/>
        <pt x="83" y="234" on="0"/>
        <pt x="83" y="279" on="1"/>
        <pt x="83" y="348" on="0"/>
        <pt x="119" y="500" on="0"/>
        <pt x="197" y="627" on="0"/>
        <pt x="322" y="710" on="0"/>
        <pt x="411" y="710" on="1"/>
        <pt x="515" y="710" on="0"/>
        <pt x="634" y="593" on="0"/>
        <pt x="634" y="482" on="1"/>
        <pt x="634" y="323" on="0"/>
        <pt x="511" y="101" on="0"/>
        <pt x="399" y="50" on="1"/>
        <pt x="395" y="32" on="1"/>
        <pt x="562" y="32" on="1"/>
        <pt x="557" y="0" on="1"/>
        <pt x="357" y="0" on="1"/>
        <pt x="369" y="64" on="1"/>
        <pt x="444" y="97" on="0"/>
        <pt x="558" y="226" on="0"/>
        <pt x="576" y="320" on="1"/>
        <pt x="590" y="393" on="1"/>
        <pt x="595" y="416" on="0"/>
        <pt x="599" y="464" on="0"/>
        <pt x="599" y="488" on="1"/>
        <pt x="599" y="579" on="0"/>
        <pt x="501" y="677" on="0"/>
        <pt x="409" y="677" on="1"/>
        <pt x="358" y="677" on="0"/>
        <pt x="270" y="643" on="0"/>
        <pt x="200" y="576" on="0"/>
        <pt x="150" y="478" on="0"/>
        <pt x="138" y="415" on="1"/>
        <pt x="124" y="345" on="1"/>
        <pt x="121" y="330" on="0"/>
        <pt x="119" y="290" on="0"/>
        <pt x="119" y="271" on="1"/>
        <pt x="119" y="230" on="0"/>
        <pt x="136" y="166" on="0"/>
        <pt x="165" y="116" on="0"/>
        <pt x="205" y="79" on="0"/>
        <pt x="228" y="64" on="1"/>
        <pt x="215" y="0" on="1"/>
        <pt x="15" y="0" on="1"/>
      </contour>
    </TTGlyph>
    <TTGlyph name="Omegatonos" xMin="29" yMin="0" xMax="648" yMax="758">
      <component glyphName="Omega" x="14" y="0" flags="0x4"/>
      <component glyphName="tonos.case" x="-282" y="0" flags="0x4"/>
    </TTGlyph>
    <TTGlyph name="Omicron" xMin="66" yMin="-12" xMax="630" yMax="710">
      <component glyphName="O" x="0" y="0" flags="0x204"/>
    </TTGlyph>
    <TTGlyph name="Omicrontonos" xMin="51" yMin="-12" xMax="646" yMax="758">
      <component glyphName="O" x="16" y="0" flags="0x4"/>
      <component glyphName="tonos.case" x="-282" y="0" flags="0x4"/>
    </TTGlyph>
    <TTGlyph name="Oslash" xMin="3" yMin="-36" xMax="693" yMax="734">
      <contour>
        <pt x="293" y="-12" on="1"/>
        <pt x="178" y="-12" on="0"/>
        <pt x="116" y="65" on="1"/>
        <pt x="27" y="-36" on="1"/>
        <pt x="3" y="-16" on="1"/>
        <pt x="98" y="91" on="1"/>
        <pt x="83" y="119" on="0"/>
        <pt x="66" y="187" on="0"/>
        <pt x="66" y="229" on="1"/>
        <pt x="66" y="280" on="0"/>
        <pt x="83" y="392" on="0"/>
        <pt x="118" y="499" on="0"/>
        <pt x="172" y="595" on="0"/>
        <pt x="247" y="667" on="0"/>
        <pt x="343" y="710" on="0"/>
        <pt x="403" y="710" on="1"/>
        <pt x="518" y="710" on="0"/>
        <pt x="580" y="633" on="1"/>
        <pt x="669" y="734" on="1"/>
        <pt x="693" y="714" on="1"/>
        <pt x="598" y="607" on="1"/>
        <pt x="613" y="579" on="0"/>
        <pt x="630" y="511" on="0"/>
        <pt x="630" y="469" on="1"/>
        <pt x="630" y="418" on="0"/>
        <pt x="613" y="306" on="0"/>
        <pt x="578" y="199" on="0"/>
        <pt x="524" y="103" on="0"/>
        <pt x="449" y="31" on="0"/>
        <pt x="352" y="-12" on="0"/>
      </contour>
      <contour>
        <pt x="111" y="323" on="1"/>
        <pt x="106" y="294" on="0"/>
        <pt x="102" y="244" on="0"/>
        <pt x="102" y="224" on="1"/>
        <pt x="102" y="162" on="0"/>
        <pt x="123" y="119" on="1"/>
        <pt x="556" y="607" on="1"/>
        <pt x="532" y="641" on="0"/>
        <pt x="454" y="677" on="0"/>
        <pt x="401" y="677" on="1"/>
        <pt x="349" y="677" on="0"/>
        <pt x="259" y="636" on="0"/>
        <pt x="188" y="561" on="0"/>
        <pt x="137" y="455" on="0"/>
        <pt x="124" y="389" on="1"/>
      </contour>
      <contour>
        <pt x="585" y="375" on="1"/>
        <pt x="590" y="404" on="0"/>
        <pt x="594" y="454" on="0"/>
        <pt x="594" y="474" on="1"/>
        <pt x="594" y="535" on="0"/>
        <pt x="573" y="579" on="1"/>
        <pt x="140" y="91" on="1"/>
        <pt x="164" y="57" on="0"/>
        <pt x="242" y="21" on="0"/>
        <pt x="295" y="21" on="1"/>
        <pt x="347" y="21" on="0"/>
        <pt x="437" y="61" on="0"/>
        <pt x="508" y="136" on="0"/>
        <pt x="559" y="243" on="0"/>
        <pt x="572" y="309" on="1"/>
      </contour>
    </TTGlyph>
    <TTGlyph name="Oslashacute" xMin="3" yMin="-36" xMax="693" yMax="936">
      <component glyphName="Oslash" x="0" y="0" flags="0x204"/>
      <component glyphName="acute.case" x="111" y="0" flags="0x4"/>
    </TTGlyph>
    <TTGlyph name="Otilde" xMin="66" yMin="-12" xMax="630" yMax="886">
      <component glyphName="O" x="0" y="0" flags="0x204"/>
      <component glyphName="tilde.case" x="117" y="0" flags="0x4"/>
    </TTGlyph>
    <TTGlyph name="P" xMin="50" yMin="0" xMax="596" yMax="698">
      <contour>
        <pt x="50" y="0" on="1"/>
        <pt x="190" y="698" on="1"/>
        <pt x="441" y="698" on="1"/>
        <pt x="518" y="698" on="0"/>
        <pt x="596" y="611" on="0"/>
        <pt x="596" y="545" on="1"/>
        <pt x="596" y="492" on="0"/>
        <pt x="566" y="408" on="0"/>
        <pt x="511" y="348" on="0"/>
        <pt x="431" y="316" on="0"/>
        <pt x="381" y="316" on="1"/>
        <pt x="150" y="316" on="1"/>
        <pt x="86" y="0" on="1"/>
      </contour>
      <contour>
        <pt x="156" y="348" on="1"/>
        <pt x="385" y="348" on="1"/>
        <pt x="456" y="348" on="0"/>
        <pt x="539" y="421" on="0"/>
        <pt x="551" y="479" on="1"/>
        <pt x="557" y="509" on="0"/>
        <pt x="560" y="540" on="0"/>
        <pt x="560" y="549" on="1"/>
        <pt x="560" y="598" on="0"/>
        <pt x="503" y="666" on="0"/>
        <pt x="438" y="666" on="1"/>
        <pt x="219" y="666" on="1"/>
      </contour>
    </TTGlyph>
    <TTGlyph name="Phi" xMin="70" yMin="-29" xMax="773" yMax="725">
      <contour>
        <pt x="340" y="36" on="1"/>
        <pt x="312" y="36" on="1"/>
        <pt x="252" y="36" on="0"/>
        <pt x="162" y="72" on="0"/>
        <pt x="101" y="137" on="0"/>
        <pt x="70" y="230" on="0"/>
        <pt x="70" y="287" on="1"/>
        <pt x="70" y="368" on="0"/>
        <pt x="120" y="509" on="0"/>
        <pt x="214" y="612" on="0"/>
        <pt x="350" y="672" on="0"/>
        <pt x="436" y="672" on="1"/>
        <pt x="467" y="672" on="1"/>
        <pt x="478" y="725" on="1"/>
        <pt x="514" y="725" on="1"/>
        <pt x="503" y="672" on="1"/>
        <pt x="531" y="672" on="1"/>
        <pt x="591" y="672" on="0"/>
        <pt x="681" y="636" on="0"/>
        <pt x="742" y="571" on="0"/>
        <pt x="773" y="478" on="0"/>
        <pt x="773" y="421" on="1"/>
        <pt x="773" y="340" on="0"/>
        <pt x="723" y="199" on="0"/>
        <pt x="629" y="96" on="0"/>
        <pt x="493" y="36" on="0"/>
        <pt x="407" y="36" on="1"/>
        <pt x="376" y="36" on="1"/>
        <pt x="363" y="-29" on="1"/>
        <pt x="327" y="-29" on="1"/>
      </contour>
      <contour>
        <pt x="462" y="641" on="1"/>
        <pt x="433" y="641" on="1"/>
        <pt x="363" y="641" on="0"/>
        <pt x="254" y="598" on="0"/>
        <pt x="177" y="530" on="0"/>
        <pt x="130" y="446" on="0"/>
        <pt x="122" y="404" on="1"/>
        <pt x="113" y="357" on="1"/>
        <pt x="108" y="331" on="0"/>
        <pt x="106" y="302" on="0"/>
        <pt x="106" y="285" on="1"/>
        <pt x="106" y="184" on="0"/>
        <pt x="210" y="67" on="0"/>
        <pt x="318" y="67" on="1"/>
        <pt x="347" y="67" on="1"/>
      </contour>
      <contour>
        <pt x="410" y="67" on="1"/>
        <pt x="480" y="67" on="0"/>
        <pt x="589" y="110" on="0"/>
        <pt x="666" y="178" on="0"/>
        <pt x="713" y="262" on="0"/>
        <pt x="721" y="304" on="1"/>
        <pt x="730" y="351" on="1"/>
        <pt x="735" y="377" on="0"/>
        <pt x="737" y="406" on="0"/>
        <pt x="737" y="423" on="1"/>
        <pt x="737" y="524" on="0"/>
        <pt x="632" y="641" on="0"/>
        <pt x="524" y="641" on="1"/>
        <pt x="496" y="641" on="1"/>
        <pt x="381" y="67" on="1"/>
      </contour>
    </TTGlyph>
    <TTGlyph name="Pi" xMin="50" yMin="0" xMax="652" yMax="698">
      <component glyphName="uni041F" x="0" y="0" flags="0x204"/>
    </TTGlyph>
    <TTGlyph name="Psi" xMin="110" yMin="0" xMax="734" yMax="698">
      <contour>
        <pt x="332" y="207" on="1"/>
        <pt x="222" y="207" on="0"/>
        <pt x="110" y="302" on="0"/>
        <pt x="110" y="385" on="1"/>
        <pt x="110" y="413" on="0"/>
        <pt x="117" y="473" on="0"/>
        <pt x="126" y="515" on="1"/>
        <pt x="162" y="698" on="1"/>
        <pt x="198" y="698" on="1"/>
        <pt x="160" y="507" on="1"/>
        <pt x="152" y="470" on="0"/>
        <pt x="146" y="415" on="0"/>
        <pt x="146" y="387" on="1"/>
        <pt x="146" y="315" on="0"/>
        <pt x="238" y="238" on="0"/>
        <pt x="338" y="238" on="1"/>
        <pt x="430" y="698" on="1"/>
        <pt x="466" y="698" on="1"/>
        <pt x="374" y="238" on="1"/>
        <pt x="435" y="238" on="0"/>
        <pt x="528" y="263" on="0"/>
        <pt x="595" y="321" on="0"/>
        <pt x="641" y="416" on="0"/>
        <pt x="655" y="486" on="1"/>
        <pt x="698" y="698" on="1"/>
        <pt x="734" y="698" on="1"/>
        <pt x="690" y="482" on="1"/>
        <pt x="674" y="404" on="0"/>
        <pt x="621" y="298" on="0"/>
        <pt x="543" y="234" on="0"/>
        <pt x="437" y="207" on="0"/>
        <pt x="368" y="207" on="1"/>
        <pt x="326" y="0" on="1"/>
        <pt x="290" y="0" on="1"/>
      </contour>
    </TTGlyph>
    <TTGlyph name="Q" xMin="66" yMin="-151" xMax="630" yMax="710">
      <contour>
        <pt x="236" y="-122" on="1"/>
        <pt x="236" y="-117" on="0"/>
        <pt x="238" y="-103" on="0"/>
        <pt x="240" y="-94" on="1"/>
        <pt x="259" y="-10" on="1"/>
        <pt x="216" y="-5" on="0"/>
        <pt x="145" y="31" on="0"/>
        <pt x="94" y="91" on="0"/>
        <pt x="66" y="176" on="0"/>
        <pt x="66" y="229" on="1"/>
        <pt x="66" y="280" on="0"/>
        <pt x="83" y="392" on="0"/>
        <pt x="118" y="499" on="0"/>
        <pt x="172" y="595" on="0"/>
        <pt x="247" y="667" on="0"/>
        <pt x="343" y="710" on="0"/>
        <pt x="403" y="710" on="1"/>
        <pt x="453" y="710" on="0"/>
        <pt x="537" y="679" on="0"/>
        <pt x="597" y="617" on="0"/>
        <pt x="630" y="527" on="0"/>
        <pt x="630" y="469" on="1"/>
        <pt x="630" y="418" on="0"/>
        <pt x="613" y="306" on="0"/>
        <pt x="578" y="200" on="0"/>
        <pt x="524" y="104" on="0"/>
        <pt x="449" y="31" on="0"/>
        <pt x="352" y="-12" on="0"/>
        <pt x="293" y="-12" on="1"/>
        <pt x="270" y="-118" on="1"/>
        <pt x="373" y="-118" on="1"/>
        <pt x="366" y="-151" on="1"/>
        <pt x="271" y="-151" on="1"/>
        <pt x="251" y="-151" on="0"/>
        <pt x="236" y="-134" on="0"/>
      </contour>
      <contour>
        <pt x="295" y="21" on="1"/>
        <pt x="347" y="21" on="0"/>
        <pt x="437" y="61" on="0"/>
        <pt x="508" y="136" on="0"/>
        <pt x="559" y="243" on="0"/>
        <pt x="572" y="309" on="1"/>
        <pt x="585" y="375" on="1"/>
        <pt x="590" y="404" on="0"/>
        <pt x="594" y="454" on="0"/>
        <pt x="594" y="474" on="1"/>
        <pt x="594" y="568" on="0"/>
        <pt x="495" y="677" on="0"/>
        <pt x="401" y="677" on="1"/>
        <pt x="348" y="677" on="0"/>
        <pt x="259" y="636" on="0"/>
        <pt x="188" y="561" on="0"/>
        <pt x="137" y="455" on="0"/>
        <pt x="124" y="389" on="1"/>
        <pt x="111" y="323" on="1"/>
        <pt x="105" y="294" on="0"/>
        <pt x="101" y="244" on="0"/>
        <pt x="101" y="224" on="1"/>
        <pt x="101" y="130" on="0"/>
        <pt x="201" y="21" on="0"/>
      </contour>
    </TTGlyph>
    <TTGlyph name="R" xMin="50" yMin="0" xMax="596" yMax="698">
      <contour>
        <pt x="86" y="0" on="1"/>
        <pt x="50" y="0" on="1"/>
        <pt x="190" y="698" on="1"/>
        <pt x="441" y="698" on="1"/>
        <pt x="518" y="698" on="0"/>
        <pt x="596" y="611" on="0"/>
        <pt x="596" y="545" on="1"/>
        <pt x="596" y="443" on="0"/>
        <pt x="489" y="322" on="0"/>
        <pt x="390" y="318" on="1"/>
        <pt x="510" y="0" on="1"/>
        <pt x="472" y="0" on="1"/>
        <pt x="354" y="316" on="1"/>
        <pt x="149" y="316" on="1"/>
      </contour>
      <contour>
        <pt x="385" y="348" on="1"/>
        <pt x="456" y="348" on="0"/>
        <pt x="539" y="421" on="0"/>
        <pt x="551" y="479" on="1"/>
        <pt x="557" y="509" on="0"/>
        <pt x="560" y="540" on="0"/>
        <pt x="560" y="549" on="1"/>
        <pt x="560" y="598" on="0"/>
        <pt x="503" y="666" on="0"/>
        <pt x="438" y="666" on="1"/>
        <pt x="219" y="666" on="1"/>
        <pt x="156" y="348" on="1"/>
      </contour>
    </TTGlyph>
    <TTGlyph name="Racute" xMin="50" yMin="0" xMax="596" yMax="936">
      <component glyphName="R" x="0" y="0" flags="0x204"/>
      <component glyphName="acute.case" x="78" y="0" flags="0x4"/>
    </TTGlyph>
    <TTGlyph name="Rcaron" xMin="50" yMin="0" xMax="596" yMax="931">
      <component glyphName="R" x="0" y="0" flags="0x204"/>
      <component glyphName="caron.case" x="78" y="0" flags="0x4"/>
    </TTGlyph>
    <TTGlyph name="Rcommaaccent" xMin="50" yMin="-220" xMax="596" yMax="698">
      <component glyphName="R" x="0" y="0" flags="0x204"/>
      <component glyphName="uni0326" x="272" y="0" flags="0x4"/>
    </TTGlyph>
    <TTGlyph name="Rho" xMin="50" yMin="0" xMax="596" yMax="698">
      <component glyphName="P" x="0" y="0" flags="0x204"/>
    </TTGlyph>
    <TTGlyph name="S" xMin="13" yMin="-12" xMax="538" yMax="710">
      <contour>
        <pt x="238" y="-12" on="1"/>
        <pt x="151" y="-12" on="0"/>
        <pt x="44" y="49" on="0"/>
        <pt x="13" y="102" on="1"/>
        <pt x="42" y="123" on="1"/>
        <pt x="71" y="73" on="0"/>
        <pt x="161" y="21" on="0"/>
        <pt x="240" y="21" on="1"/>
        <pt x="293" y="21" on="0"/>
        <pt x="369" y="51" on="0"/>
        <pt x="417" y="101" on="0"/>
        <pt x="440" y="168" on="0"/>
        <pt x="440" y="205" on="1"/>
        <pt x="440" y="257" on="0"/>
        <pt x="385" y="318" on="0"/>
        <pt x="323" y="333" on="1"/>
        <pt x="241" y="353" on="1"/>
        <pt x="172" y="370" on="0"/>
        <pt x="107" y="448" on="0"/>
        <pt x="107" y="511" on="1"/>
        <pt x="107" y="551" on="0"/>
        <pt x="135" y="624" on="0"/>
        <pt x="190" y="678" on="0"/>
        <pt x="273" y="710" on="0"/>
        <pt x="329" y="710" on="1"/>
        <pt x="414" y="710" on="0"/>
        <pt x="510" y="658" on="0"/>
        <pt x="538" y="610" on="1"/>
        <pt x="510" y="590" on="1"/>
        <pt x="483" y="636" on="0"/>
        <pt x="398" y="677" on="0"/>
        <pt x="327" y="677" on="1"/>
        <pt x="280" y="677" on="0"/>
        <pt x="211" y="651" on="0"/>
        <pt x="166" y="607" on="0"/>
        <pt x="143" y="546" on="0"/>
        <pt x="143" y="512" on="1"/>
        <pt x="143" y="459" on="0"/>
        <pt x="196" y="399" on="0"/>
        <pt x="255" y="384" on="1"/>
        <pt x="335" y="364" on="1"/>
        <pt x="477" y="330" on="0"/>
        <pt x="477" y="206" on="1"/>
        <pt x="477" y="161" on="0"/>
        <pt x="448" y="82" on="0"/>
        <pt x="389" y="23" on="0"/>
        <pt x="299" y="-12" on="0"/>
      </contour>
    </TTGlyph>
    <TTGlyph name="Sacute" xMin="13" yMin="-12" xMax="538" yMax="936">
      <component glyphName="S" x="0" y="0" flags="0x204"/>
      <component glyphName="acute.case" x="31" y="0" flags="0x4"/>
    </TTGlyph>
    <TTGlyph name="Scaron" xMin="13" yMin="-12" xMax="538" yMax="931">
      <component glyphName="S" x="0" y="0" flags="0x204"/>
      <component glyphName="caron.case" x="31" y="0" flags="0x4"/>
    </TTGlyph>
    <TTGlyph name="Scedilla" xMin="13" yMin="-203" xMax="538" yMax="710">
      <contour>
        <pt x="204" y="-203" on="1"/>
        <pt x="174" y="-203" on="0"/>
        <pt x="132" y="-184" on="0"/>
        <pt x="123" y="-170" on="1"/>
        <pt x="143" y="-150" on="1"/>
        <pt x="152" y="-162" on="0"/>
        <pt x="183" y="-177" on="0"/>
        <pt x="204" y="-177" on="1"/>
        <pt x="234" y="-177" on="0"/>
        <pt x="271" y="-147" on="0"/>
        <pt x="271" y="-124" on="1"/>
        <pt x="271" y="-107" on="0"/>
        <pt x="248" y="-86" on="0"/>
        <pt x="218" y="-84" on="1"/>
        <pt x="183" y="-82" on="1"/>
        <pt x="212" y="-11" on="1"/>
        <pt x="137" y="-6" on="0"/>
        <pt x="42" y="52" on="0"/>
        <pt x="13" y="102" on="1"/>
        <pt x="42" y="123" on="1"/>
        <pt x="71" y="73" on="0"/>
        <pt x="161" y="21" on="0"/>
        <pt x="240" y="21" on="1"/>
        <pt x="293" y="21" on="0"/>
        <pt x="369" y="51" on="0"/>
        <pt x="417" y="101" on="0"/>
        <pt x="440" y="168" on="0"/>
        <pt x="440" y="205" on="1"/>
        <pt x="440" y="257" on="0"/>
        <pt x="385" y="318" on="0"/>
        <pt x="323" y="333" on="1"/>
        <pt x="241" y="353" on="1"/>
        <pt x="172" y="370" on="0"/>
        <pt x="107" y="448" on="0"/>
        <pt x="107" y="511" on="1"/>
        <pt x="107" y="551" on="0"/>
        <pt x="135" y="624" on="0"/>
        <pt x="190" y="678" on="0"/>
        <pt x="273" y="710" on="0"/>
        <pt x="329" y="710" on="1"/>
        <pt x="414" y="710" on="0"/>
        <pt x="510" y="658" on="0"/>
        <pt x="538" y="610" on="1"/>
        <pt x="510" y="590" on="1"/>
        <pt x="483" y="636" on="0"/>
        <pt x="398" y="677" on="0"/>
        <pt x="327" y="677" on="1"/>
        <pt x="280" y="677" on="0"/>
        <pt x="211" y="651" on="0"/>
        <pt x="166" y="607" on="0"/>
        <pt x="143" y="546" on="0"/>
        <pt x="143" y="512" on="1"/>
        <pt x="143" y="459" on="0"/>
        <pt x="196" y="399" on="0"/>
        <pt x="255" y="384" on="1"/>
        <pt x="335" y="364" on="1"/>
        <pt x="477" y="330" on="0"/>
        <pt x="477" y="206" on="1"/>
        <pt x="477" y="161" on="0"/>
        <pt x="448" y="82" on="0"/>
        <pt x="389" y="23" on="0"/>
        <pt x="299" y="-12" on="0"/>
        <pt x="238" y="-12" on="1"/>
        <pt x="237" y="-12" on="1"/>
        <pt x="213" y="-70" on="1"/>
        <pt x="215" y="-72" on="1"/>
        <pt x="221" y="-71" on="0"/>
        <pt x="237" y="-69" on="0"/>
        <pt x="244" y="-69" on="1"/>
        <pt x="271" y="-69" on="0"/>
        <pt x="302" y="-97" on="0"/>
        <pt x="302" y="-123" on="1"/>
        <pt x="302" y="-157" on="0"/>
        <pt x="249" y="-203" on="0"/>
      </contour>
    </TTGlyph>
    <TTGlyph name="Scircumflex" xMin="13" yMin="-12" xMax="538" yMax="926">
      <component glyphName="S" x="0" y="0" flags="0x204"/>
      <component glyphName="circumflex.case" x="31" y="0" flags="0x4"/>
    </TTGlyph>
    <TTGlyph name="Scommaaccent" xMin="13" yMin="-220" xMax="538" yMax="710">
      <component glyphName="S" x="0" y="0" flags="0x204"/>
      <component glyphName="uni0326" x="228" y="0" flags="0x4"/>
    </TTGlyph>
    <TTGlyph name="Sigma" xMin="0" yMin="0" xMax="575" yMax="698">
      <contour>
        <pt x="0" y="0" on="1"/>
        <pt x="8" y="35" on="1"/>
        <pt x="328" y="355" on="1"/>
        <pt x="139" y="663" on="1"/>
        <pt x="146" y="698" on="1"/>
        <pt x="575" y="698" on="1"/>
        <pt x="568" y="666" on="1"/>
        <pt x="176" y="666" on="1"/>
        <pt x="369" y="351" on="1"/>
        <pt x="50" y="32" on="1"/>
        <pt x="445" y="32" on="1"/>
        <pt x="439" y="0" on="1"/>
      </contour>
    </TTGlyph>
    <TTGlyph name="T" xMin="99" yMin="0" xMax="622" yMax="698">
      <contour>
        <pt x="375" y="666" on="1"/>
        <pt x="242" y="0" on="1"/>
        <pt x="206" y="0" on="1"/>
        <pt x="339" y="666" on="1"/>
        <pt x="99" y="666" on="1"/>
        <pt x="105" y="698" on="1"/>
        <pt x="622" y="698" on="1"/>
        <pt x="616" y="666" on="1"/>
      </contour>
    </TTGlyph>
    <TTGlyph name="Tau" xMin="99" yMin="0" xMax="622" yMax="698">
      <component glyphName="T" x="0" y="0" flags="0x204"/>
    </TTGlyph>
    <TTGlyph name="Tbar" xMin="96" yMin="0" xMax="622" yMax="698">
      <contour>
        <pt x="313" y="358" on="1"/>
        <pt x="242" y="0" on="1"/>
        <pt x="206" y="0" on="1"/>
        <pt x="277" y="358" on="1"/>
        <pt x="96" y="358" on="1"/>
        <pt x="102" y="388" on="1"/>
        <pt x="284" y="388" on="1"/>
        <pt x="339" y="666" on="1"/>
        <pt x="99" y="666" on="1"/>
        <pt x="105" y="698" on="1"/>
        <pt x="622" y="698" on="1"/>
        <pt x="616" y="666" on="1"/>
        <pt x="375" y="666" on="1"/>
        <pt x="320" y="388" on="1"/>
        <pt x="500" y="388" on="1"/>
        <pt x="494" y="358" on="1"/>
      </contour>
    </TTGlyph>
    <TTGlyph name="Tcaron" xMin="99" yMin="0" xMax="622" yMax="931">
      <component glyphName="T" x="0" y="0" flags="0x204"/>
      <component glyphName="caron.case" x="63" y="0" flags="0x4"/>
    </TTGlyph>
    <TTGlyph name="Theta" xMin="66" yMin="-12" xMax="630" yMax="710">
      <contour>
        <pt x="293" y="-12" on="1"/>
        <pt x="243" y="-12" on="0"/>
        <pt x="159" y="19" on="0"/>
        <pt x="99" y="81" on="0"/>
        <pt x="66" y="170" on="0"/>
        <pt x="66" y="229" on="1"/>
        <pt x="66" y="280" on="0"/>
        <pt x="83" y="392" on="0"/>
        <pt x="118" y="499" on="0"/>
        <pt x="172" y="595" on="0"/>
        <pt x="247" y="667" on="0"/>
        <pt x="343" y="710" on="0"/>
        <pt x="403" y="710" on="1"/>
        <pt x="453" y="710" on="0"/>
        <pt x="537" y="679" on="0"/>
        <pt x="597" y="617" on="0"/>
        <pt x="630" y="527" on="0"/>
        <pt x="630" y="469" on="1"/>
        <pt x="630" y="418" on="0"/>
        <pt x="613" y="306" on="0"/>
        <pt x="578" y="199" on="0"/>
        <pt x="524" y="103" on="0"/>
        <pt x="449" y="31" on="0"/>
        <pt x="352" y="-12" on="0"/>
      </contour>
      <contour>
        <pt x="295" y="21" on="1"/>
        <pt x="347" y="21" on="0"/>
        <pt x="437" y="61" on="0"/>
        <pt x="508" y="136" on="0"/>
        <pt x="559" y="243" on="0"/>
        <pt x="572" y="309" on="1"/>
        <pt x="585" y="375" on="1"/>
        <pt x="590" y="404" on="0"/>
        <pt x="594" y="454" on="0"/>
        <pt x="594" y="474" on="1"/>
        <pt x="594" y="568" on="0"/>
        <pt x="495" y="677" on="0"/>
        <pt x="401" y="677" on="1"/>
        <pt x="349" y="677" on="0"/>
        <pt x="259" y="636" on="0"/>
        <pt x="188" y="561" on="0"/>
        <pt x="137" y="455" on="0"/>
        <pt x="124" y="389" on="1"/>
        <pt x="111" y="323" on="1"/>
        <pt x="106" y="294" on="0"/>
        <pt x="102" y="244" on="0"/>
        <pt x="102" y="224" on="1"/>
        <pt x="102" y="130" on="0"/>
        <pt x="201" y="21" on="0"/>
      </contour>
      <contour>
        <pt x="190" y="338" on="1"/>
        <pt x="196" y="370" on="1"/>
        <pt x="508" y="370" on="1"/>
        <pt x="502" y="338" on="1"/>
      </contour>
    </TTGlyph>
    <TTGlyph name="Thorn" xMin="50" yMin="0" xMax="567" yMax="698">
      <contour>
        <pt x="50" y="0" on="1"/>
        <pt x="190" y="698" on="1"/>
        <pt x="226" y="698" on="1"/>
        <pt x="195" y="545" on="1"/>
        <pt x="410" y="545" on="1"/>
        <pt x="449" y="545" on="0"/>
        <pt x="508" y="522" on="0"/>
        <pt x="547" y="481" on="0"/>
        <pt x="567" y="426" on="0"/>
        <pt x="567" y="393" on="1"/>
        <pt x="567" y="340" on="0"/>
        <pt x="537" y="255" on="0"/>
        <pt x="481" y="195" on="0"/>
        <pt x="401" y="163" on="0"/>
        <pt x="351" y="163" on="1"/>
        <pt x="119" y="163" on="1"/>
        <pt x="86" y="0" on="1"/>
      </contour>
      <contour>
        <pt x="125" y="195" on="1"/>
        <pt x="355" y="195" on="1"/>
        <pt x="427" y="195" on="0"/>
        <pt x="509" y="268" on="0"/>
        <pt x="520" y="326" on="1"/>
        <pt x="526" y="356" on="0"/>
        <pt x="530" y="387" on="0"/>
        <pt x="530" y="396" on="1"/>
        <pt x="530" y="445" on="0"/>
        <pt x="472" y="513" on="0"/>
        <pt x="407" y="513" on="1"/>
        <pt x="189" y="513" on="1"/>
      </contour>
    </TTGlyph>
    <TTGlyph name="U" xMin="82" yMin="-12" xMax="637" yMax="698">
      <contour>
        <pt x="218" y="698" on="1"/>
        <pt x="133" y="271" on="1"/>
        <pt x="125" y="231" on="0"/>
        <pt x="118" y="181" on="0"/>
        <pt x="118" y="160" on="1"/>
        <pt x="118" y="94" on="0"/>
        <pt x="196" y="21" on="0"/>
        <pt x="277" y="21" on="1"/>
        <pt x="330" y="21" on="0"/>
        <pt x="408" y="47" on="0"/>
        <pt x="463" y="106" on="0"/>
        <pt x="502" y="203" on="0"/>
        <pt x="516" y="274" on="1"/>
        <pt x="601" y="698" on="1"/>
        <pt x="637" y="698" on="1"/>
        <pt x="552" y="272" on="1"/>
        <pt x="536" y="192" on="0"/>
        <pt x="492" y="83" on="0"/>
        <pt x="427" y="17" on="0"/>
        <pt x="337" y="-12" on="0"/>
        <pt x="275" y="-12" on="1"/>
        <pt x="184" y="-12" on="0"/>
        <pt x="82" y="74" on="0"/>
        <pt x="82" y="158" on="1"/>
        <pt x="82" y="184" on="0"/>
        <pt x="91" y="241" on="0"/>
        <pt x="99" y="280" on="1"/>
        <pt x="182" y="698" on="1"/>
      </contour>
    </TTGlyph>
    <TTGlyph name="Uacute" xMin="82" yMin="-12" xMax="637" yMax="936">
      <component glyphName="U" x="0" y="0" flags="0x204"/>
      <component glyphName="acute.case" x="108" y="0" flags="0x4"/>
    </TTGlyph>
    <TTGlyph name="Ubreve" xMin="82" yMin="-12" xMax="637" yMax="912">
      <component glyphName="U" x="0" y="0" flags="0x204"/>
      <component glyphName="breve.case" x="108" y="0" flags="0x4"/>
    </TTGlyph>
    <TTGlyph name="Ucircumflex" xMin="82" yMin="-12" xMax="637" yMax="926">
      <component glyphName="U" x="0" y="0" flags="0x204"/>
      <component glyphName="circumflex.case" x="108" y="0" flags="0x4"/>
    </TTGlyph>
    <TTGlyph name="Udieresis" xMin="82" yMin="-12" xMax="637" yMax="876">
      <component glyphName="U" x="0" y="0" flags="0x204"/>
      <component glyphName="dieresis.case" x="108" y="0" flags="0x4"/>
    </TTGlyph>
    <TTGlyph name="Ugrave" xMin="82" yMin="-12" xMax="637" yMax="936">
      <component glyphName="U" x="0" y="0" flags="0x204"/>
      <component glyphName="grave.case" x="108" y="0" flags="0x4"/>
    </TTGlyph>
    <TTGlyph name="Uhorn" xMin="83" yMin="-12" xMax="737" yMax="809">
      <contour>
        <pt x="218" y="698" on="1"/>
        <pt x="133" y="271" on="1"/>
        <pt x="125" y="231" on="0"/>
        <pt x="118" y="181" on="0"/>
        <pt x="118" y="160" on="1"/>
        <pt x="118" y="94" on="0"/>
        <pt x="196" y="21" on="0"/>
        <pt x="277" y="21" on="1"/>
        <pt x="330" y="21" on="0"/>
        <pt x="408" y="47" on="0"/>
        <pt x="463" y="106" on="0"/>
        <pt x="502" y="203" on="0"/>
        <pt x="516" y="274" on="1"/>
        <pt x="601" y="698" on="1"/>
        <pt x="684" y="698" on="1"/>
        <pt x="706" y="809" on="1"/>
        <pt x="737" y="809" on="1"/>
        <pt x="718" y="709" on="1"/>
        <pt x="714" y="691" on="0"/>
        <pt x="695" y="672" on="0"/>
        <pt x="675" y="672" on="1"/>
        <pt x="632" y="672" on="1"/>
        <pt x="552" y="272" on="1"/>
        <pt x="536" y="192" on="0"/>
        <pt x="491" y="83" on="0"/>
        <pt x="425" y="17" on="0"/>
        <pt x="335" y="-12" on="0"/>
        <pt x="273" y="-12" on="1"/>
        <pt x="181" y="-12" on="0"/>
        <pt x="83" y="74" on="0"/>
        <pt x="83" y="158" on="1"/>
        <pt x="83" y="184" on="0"/>
        <pt x="91" y="241" on="0"/>
        <pt x="99" y="280" on="1"/>
        <pt x="182" y="698" on="1"/>
      </contour>
    </TTGlyph>
    <TTGlyph name="Uhungarumlaut" xMin="82" yMin="-12" xMax="637" yMax="935">
      <component glyphName="U" x="0" y="0" flags="0x204"/>
      <component glyphName="hungarumlaut.case" x="108" y="0" flags="0x4"/>
    </TTGlyph>
    <TTGlyph name="Umacron" xMin="82" yMin="-12" xMax="637" yMax="861">
      <component glyphName="U" x="0" y="0" flags="0x204"/>
      <component glyphName="macron.case" x="108" y="0" flags="0x4"/>
    </TTGlyph>
    <TTGlyph name="Uogonek" xMin="82" yMin="-203" xMax="637" yMax="698">
      <contour>
        <pt x="219" y="698" on="1"/>
        <pt x="133" y="271" on="1"/>
        <pt x="125" y="231" on="0"/>
        <pt x="118" y="181" on="0"/>
        <pt x="118" y="160" on="1"/>
        <pt x="118" y="94" on="0"/>
        <pt x="197" y="21" on="0"/>
        <pt x="278" y="21" on="1"/>
        <pt x="331" y="21" on="0"/>
        <pt x="408" y="47" on="0"/>
        <pt x="464" y="106" on="0"/>
        <pt x="502" y="203" on="0"/>
        <pt x="516" y="274" on="1"/>
        <pt x="601" y="698" on="1"/>
        <pt x="637" y="698" on="1"/>
        <pt x="552" y="272" on="1"/>
        <pt x="538" y="207" on="0"/>
        <pt x="505" y="115" on="0"/>
        <pt x="463" y="52" on="0"/>
        <pt x="411" y="13" on="0"/>
        <pt x="379" y="0" on="1"/>
        <pt x="307" y="-29" on="0"/>
        <pt x="231" y="-101" on="0"/>
        <pt x="231" y="-133" on="1"/>
        <pt x="231" y="-155" on="0"/>
        <pt x="258" y="-177" on="0"/>
        <pt x="278" y="-177" on="1"/>
        <pt x="299" y="-177" on="0"/>
        <pt x="330" y="-162" on="0"/>
        <pt x="340" y="-151" on="1"/>
        <pt x="359" y="-170" on="1"/>
        <pt x="347" y="-184" on="0"/>
        <pt x="305" y="-203" on="0"/>
        <pt x="277" y="-203" on="1"/>
        <pt x="245" y="-203" on="0"/>
        <pt x="199" y="-170" on="0"/>
        <pt x="199" y="-135" on="1"/>
        <pt x="199" y="-121" on="0"/>
        <pt x="210" y="-90" on="0"/>
        <pt x="237" y="-59" on="0"/>
        <pt x="282" y="-28" on="0"/>
        <pt x="317" y="-13" on="1"/>
        <pt x="316" y="-10" on="1"/>
        <pt x="306" y="-11" on="0"/>
        <pt x="287" y="-12" on="0"/>
        <pt x="276" y="-12" on="1"/>
        <pt x="182" y="-12" on="0"/>
        <pt x="82" y="74" on="0"/>
        <pt x="82" y="159" on="1"/>
        <pt x="82" y="185" on="0"/>
        <pt x="91" y="241" on="0"/>
        <pt x="99" y="280" on="1"/>
        <pt x="183" y="698" on="1"/>
      </contour>
    </TTGlyph>
    <TTGlyph name="Upsilon" xMin="108" yMin="0" xMax="619" yMax="698">
      <component glyphName="Y" x="0" y="0" flags="0x204"/>
    </TTGlyph>
    <TTGlyph name="Upsilondieresis" xMin="108" yMin="0" xMax="619" yMax="876">
      <component glyphName="Y" x="0" y="0" flags="0x204"/>
      <component glyphName="dieresis.case" x="61" y="0" flags="0x4"/>
    </TTGlyph>
    <TTGlyph name="Upsilontonos" xMin="51" yMin="0" xMax="701" yMax="758">
      <component glyphName="Y" x="82" y="0" flags="0x4"/>
      <component glyphName="tonos.case" x="-282" y="0" flags="0x4"/>
    </TTGlyph>
    <TTGlyph name="Uring" xMin="82" yMin="-12" xMax="637" yMax="957">
      <component glyphName="U" x="0" y="0" flags="0x204"/>
      <component glyphName="ring.case" x="108" y="0" flags="0x4"/>
    </TTGlyph>
    <TTGlyph name="Utilde" xMin="82" yMin="-12" xMax="637" yMax="886">
      <component glyphName="U" x="0" y="0" flags="0x204"/>
      <component glyphName="tilde.case" x="108" y="0" flags="0x4"/>
    </TTGlyph>
    <TTGlyph name="V" xMin="116" yMin="0" xMax="635" yMax="698">
      <contour>
        <pt x="212" y="0" on="1"/>
        <pt x="116" y="698" on="1"/>
        <pt x="152" y="698" on="1"/>
        <pt x="240" y="39" on="1"/>
        <pt x="243" y="39" on="1"/>
        <pt x="596" y="698" on="1"/>
        <pt x="635" y="698" on="1"/>
        <pt x="258" y="0" on="1"/>
      </contour>
    </TTGlyph>
    <TTGlyph name="W" xMin="117" yMin="0" xMax="930" yMax="698">
      <contour>
        <pt x="154" y="0" on="1"/>
        <pt x="117" y="698" on="1"/>
        <pt x="153" y="698" on="1"/>
        <pt x="186" y="48" on="1"/>
        <pt x="189" y="48" on="1"/>
        <pt x="497" y="698" on="1"/>
        <pt x="544" y="698" on="1"/>
        <pt x="590" y="49" on="1"/>
        <pt x="593" y="49" on="1"/>
        <pt x="892" y="698" on="1"/>
        <pt x="930" y="698" on="1"/>
        <pt x="605" y="0" on="1"/>
        <pt x="560" y="0" on="1"/>
        <pt x="514" y="653" on="1"/>
        <pt x="511" y="653" on="1"/>
        <pt x="200" y="0" on="1"/>
      </contour>
    </TTGlyph>
    <TTGlyph name="Wacute" xMin="117" yMin="0" xMax="930" yMax="936">
      <component glyphName="W" x="0" y="0" flags="0x204"/>
      <component glyphName="acute.case" x="219" y="0" flags="0x4"/>
    </TTGlyph>
    <TTGlyph name="Wcircumflex" xMin="117" yMin="0" xMax="930" yMax="926">
      <component glyphName="W" x="0" y="0" flags="0x204"/>
      <component glyphName="circumflex.case" x="219" y="0" flags="0x4"/>
    </TTGlyph>
    <TTGlyph name="Wdieresis" xMin="117" yMin="0" xMax="930" yMax="876">
      <component glyphName="W" x="0" y="0" flags="0x204"/>
      <component glyphName="dieresis.case" x="219" y="0" flags="0x4"/>
    </TTGlyph>
    <TTGlyph name="Wgrave" xMin="117" yMin="0" xMax="930" yMax="936">
      <component glyphName="W" x="0" y="0" flags="0x204"/>
      <component glyphName="grave.case" x="219" y="0" flags="0x4"/>
    </TTGlyph>
    <TTGlyph name="X" xMin="-28" yMin="0" xMax="614" yMax="698">
      <contour>
        <pt x="481" y="0" on="1"/>
        <pt x="443" y="0" on="1"/>
        <pt x="295" y="324" on="1"/>
        <pt x="291" y="324" on="1"/>
        <pt x="16" y="0" on="1"/>
        <pt x="-28" y="0" on="1"/>
        <pt x="275" y="356" on="1"/>
        <pt x="118" y="698" on="1"/>
        <pt x="157" y="698" on="1"/>
        <pt x="301" y="384" on="1"/>
        <pt x="304" y="384" on="1"/>
        <pt x="570" y="698" on="1"/>
        <pt x="614" y="698" on="1"/>
        <pt x="319" y="352" on="1"/>
      </contour>
    </TTGlyph>
    <TTGlyph name="Xi" xMin="16" yMin="0" xMax="577" yMax="698">
      <contour>
        <pt x="156" y="698" on="1"/>
        <pt x="577" y="698" on="1"/>
        <pt x="570" y="666" on="1"/>
        <pt x="150" y="666" on="1"/>
      </contour>
      <contour>
        <pt x="125" y="370" on="1"/>
        <pt x="477" y="370" on="1"/>
        <pt x="470" y="338" on="1"/>
        <pt x="119" y="338" on="1"/>
      </contour>
      <contour>
        <pt x="23" y="32" on="1"/>
        <pt x="443" y="32" on="1"/>
        <pt x="437" y="0" on="1"/>
        <pt x="16" y="0" on="1"/>
      </contour>
    </TTGlyph>
    <TTGlyph name="Y" xMin="108" yMin="0" xMax="619" yMax="698">
      <contour>
        <pt x="205" y="0" on="1"/>
        <pt x="263" y="289" on="1"/>
        <pt x="108" y="698" on="1"/>
        <pt x="145" y="698" on="1"/>
        <pt x="285" y="329" on="1"/>
        <pt x="289" y="329" on="1"/>
        <pt x="577" y="698" on="1"/>
        <pt x="619" y="698" on="1"/>
        <pt x="299" y="289" on="1"/>
        <pt x="241" y="0" on="1"/>
      </contour>
    </TTGlyph>
    <TTGlyph name="Yacute" xMin="108" yMin="0" xMax="619" yMax="936">
      <component glyphName="Y" x="0" y="0" flags="0x204"/>
      <component glyphName="acute.case" x="59" y="0" flags="0x4"/>
    </TTGlyph>
    <TTGlyph name="Ycircumflex" xMin="108" yMin="0" xMax="619" yMax="926">
      <component glyphName="Y" x="0" y="0" flags="0x204"/>
      <component glyphName="circumflex.case" x="59" y="0" flags="0x4"/>
    </TTGlyph>
    <TTGlyph name="Ydieresis" xMin="108" yMin="0" xMax="619" yMax="876">
      <component glyphName="Y" x="0" y="0" flags="0x204"/>
      <component glyphName="dieresis.case" x="59" y="0" flags="0x4"/>
    </TTGlyph>
    <TTGlyph name="Ygrave" xMin="108" yMin="0" xMax="619" yMax="936">
      <component glyphName="Y" x="0" y="0" flags="0x204"/>
      <component glyphName="grave.case" x="59" y="0" flags="0x4"/>
    </TTGlyph>
    <TTGlyph name="Z" xMin="-20" yMin="0" xMax="586" yMax="698">
      <contour>
        <pt x="464" y="0" on="1"/>
        <pt x="-20" y="0" on="1"/>
        <pt x="-13" y="35" on="1"/>
        <pt x="536" y="666" on="1"/>
        <pt x="133" y="666" on="1"/>
        <pt x="139" y="698" on="1"/>
        <pt x="586" y="698" on="1"/>
        <pt x="579" y="663" on="1"/>
        <pt x="29" y="32" on="1"/>
        <pt x="471" y="32" on="1"/>
      </contour>
    </TTGlyph>
    <TTGlyph name="Zacute" xMin="-20" yMin="0" xMax="586" yMax="936">
      <component glyphName="Z" x="0" y="0" flags="0x204"/>
      <component glyphName="acute.case" x="58" y="0" flags="0x4"/>
    </TTGlyph>
    <TTGlyph name="Zcaron" xMin="-20" yMin="0" xMax="586" yMax="931">
      <component glyphName="Z" x="0" y="0" flags="0x204"/>
      <component glyphName="caron.case" x="58" y="0" flags="0x4"/>
    </TTGlyph>
    <TTGlyph name="Zdotaccent" xMin="-20" yMin="0" xMax="586" yMax="876">
      <component glyphName="Z" x="0" y="0" flags="0x204"/>
      <component glyphName="dotaccent.case" x="58" y="0" flags="0x4"/>
    </TTGlyph>
    <TTGlyph name="Zeta" xMin="-20" yMin="0" xMax="586" yMax="698">
      <component glyphName="Z" x="0" y="0" flags="0x204"/>
    </TTGlyph>
    <TTGlyph name="a" xMin="58" yMin="-12" xMax="514" yMax="520">
      <contour>
        <pt x="419" y="0" on="1"/>
        <pt x="385" y="0" on="0"/>
        <pt x="385" y="29" on="1"/>
        <pt x="385" y="34" on="0"/>
        <pt x="386" y="43" on="0"/>
        <pt x="387" y="48" on="1"/>
        <pt x="400" y="111" on="1"/>
        <pt x="397" y="111" on="1"/>
        <pt x="365" y="53" on="0"/>
        <pt x="282" y="-12" on="0"/>
        <pt x="220" y="-12" on="1"/>
        <pt x="181" y="-12" on="0"/>
        <pt x="121" y="16" on="0"/>
        <pt x="80" y="67" on="0"/>
        <pt x="58" y="136" on="0"/>
        <pt x="58" y="178" on="1"/>
        <pt x="58" y="244" on="0"/>
        <pt x="90" y="367" on="0"/>
        <pt x="153" y="463" on="0"/>
        <pt x="247" y="520" on="0"/>
        <pt x="308" y="520" on="1"/>
        <pt x="368" y="520" on="0"/>
        <pt x="445" y="465" on="0"/>
        <pt x="459" y="417" on="1"/>
        <pt x="462" y="417" on="1"/>
        <pt x="480" y="508" on="1"/>
        <pt x="514" y="508" on="1"/>
        <pt x="419" y="31" on="1"/>
        <pt x="501" y="31" on="1"/>
        <pt x="495" y="0" on="1"/>
      </contour>
      <contour>
        <pt x="225" y="19" on="1"/>
        <pt x="257" y="19" on="0"/>
        <pt x="308" y="39" on="0"/>
        <pt x="334" y="61" on="1"/>
        <pt x="363" y="86" on="0"/>
        <pt x="410" y="161" on="0"/>
        <pt x="420" y="211" on="1"/>
        <pt x="447" y="344" on="1"/>
        <pt x="452" y="369" on="0"/>
        <pt x="442" y="420" on="0"/>
        <pt x="409" y="462" on="0"/>
        <pt x="351" y="489" on="0"/>
        <pt x="309" y="489" on="1"/>
        <pt x="228" y="489" on="0"/>
        <pt x="126" y="380" on="0"/>
        <pt x="107" y="286" on="1"/>
        <pt x="99" y="242" on="1"/>
        <pt x="96" y="226" on="0"/>
        <pt x="93" y="195" on="0"/>
        <pt x="93" y="175" on="1"/>
        <pt x="93" y="143" on="0"/>
        <pt x="108" y="86" on="0"/>
        <pt x="141" y="44" on="0"/>
        <pt x="190" y="19" on="0"/>
      </contour>
    </TTGlyph>
    <TTGlyph name="a.alt01" xMin="41" yMin="-12" xMax="478" yMax="520">
      <contour>
        <pt x="194" y="-12" on="1"/>
        <pt x="123" y="-12" on="0"/>
        <pt x="41" y="50" on="0"/>
        <pt x="41" y="105" on="1"/>
        <pt x="41" y="277" on="0"/>
        <pt x="264" y="277" on="1"/>
        <pt x="411" y="277" on="1"/>
        <pt x="422" y="333" on="1"/>
        <pt x="426" y="356" on="0"/>
        <pt x="426" y="379" on="1"/>
        <pt x="426" y="403" on="0"/>
        <pt x="413" y="443" on="0"/>
        <pt x="383" y="473" on="0"/>
        <pt x="334" y="490" on="0"/>
        <pt x="299" y="490" on="1"/>
        <pt x="267" y="490" on="0"/>
        <pt x="218" y="479" on="0"/>
        <pt x="179" y="457" on="0"/>
        <pt x="147" y="422" on="0"/>
        <pt x="132" y="398" on="1"/>
        <pt x="108" y="416" on="1"/>
        <pt x="123" y="440" on="0"/>
        <pt x="159" y="478" on="0"/>
        <pt x="205" y="505" on="0"/>
        <pt x="265" y="520" on="0"/>
        <pt x="303" y="520" on="1"/>
        <pt x="345" y="520" on="0"/>
        <pt x="404" y="499" on="0"/>
        <pt x="443" y="462" on="0"/>
        <pt x="461" y="412" on="0"/>
        <pt x="461" y="382" on="1"/>
        <pt x="461" y="371" on="0"/>
        <pt x="459" y="346" on="0"/>
        <pt x="456" y="332" on="1"/>
        <pt x="396" y="31" on="1"/>
        <pt x="478" y="31" on="1"/>
        <pt x="472" y="0" on="1"/>
        <pt x="397" y="0" on="1"/>
        <pt x="364" y="0" on="0"/>
        <pt x="364" y="27" on="1"/>
        <pt x="364" y="31" on="0"/>
        <pt x="365" y="39" on="0"/>
        <pt x="366" y="44" on="1"/>
        <pt x="372" y="77" on="1"/>
        <pt x="368" y="77" on="1"/>
        <pt x="343" y="39" on="0"/>
        <pt x="259" y="-12" on="0"/>
      </contour>
      <contour>
        <pt x="200" y="18" on="1"/>
        <pt x="232" y="18" on="0"/>
        <pt x="293" y="35" on="0"/>
        <pt x="343" y="68" on="0"/>
        <pt x="379" y="116" on="0"/>
        <pt x="385" y="148" on="1"/>
        <pt x="405" y="250" on="1"/>
        <pt x="262" y="250" on="1"/>
        <pt x="177" y="250" on="0"/>
        <pt x="91" y="198" on="0"/>
        <pt x="82" y="153" on="1"/>
        <pt x="78" y="133" on="0"/>
        <pt x="76" y="114" on="0"/>
        <pt x="76" y="106" on="1"/>
        <pt x="76" y="64" on="0"/>
        <pt x="140" y="18" on="0"/>
      </contour>
    </TTGlyph>
    <TTGlyph name="aacute" xMin="58" yMin="-12" xMax="514" yMax="758">
      <component glyphName="a" x="0" y="0" flags="0x204"/>
      <component glyphName="acute" x="29" y="0" flags="0x4"/>
    </TTGlyph>
    <TTGlyph name="aacute.alt01" xMin="41" yMin="-12" xMax="478" yMax="758">
      <component glyphName="a.alt01" x="0" y="0" flags="0x204"/>
      <component glyphName="acute" x="8" y="0" flags="0x4"/>
    </TTGlyph>
    <TTGlyph name="abreve" xMin="58" yMin="-12" xMax="514" yMax="735">
      <component glyphName="a" x="0" y="0" flags="0x204"/>
      <component glyphName="breve" x="30" y="0" flags="0x4"/>
    </TTGlyph>
    <TTGlyph name="abreve.alt01" xMin="41" yMin="-12" xMax="478" yMax="735">
      <component glyphName="a.alt01" x="0" y="0" flags="0x204"/>
      <component glyphName="breve" x="9" y="0" flags="0x4"/>
    </TTGlyph>
    <TTGlyph name="acircumflex" xMin="58" yMin="-12" xMax="514" yMax="748">
      <component glyphName="a" x="0" y="0" flags="0x204"/>
      <component glyphName="circumflex" x="30" y="0" flags="0x4"/>
    </TTGlyph>
    <TTGlyph name="acircumflex.alt01" xMin="41" yMin="-12" xMax="478" yMax="748">
      <component glyphName="a.alt01" x="0" y="0" flags="0x204"/>
      <component glyphName="circumflex" x="9" y="0" flags="0x4"/>
    </TTGlyph>
    <TTGlyph name="acute" xMin="276" yMin="587" xMax="439" yMax="758">
      <contour>
        <pt x="298" y="587" on="1"/>
        <pt x="276" y="601" on="1"/>
        <pt x="410" y="758" on="1"/>
        <pt x="439" y="739" on="1"/>
      </contour>
    </TTGlyph>
    <TTGlyph name="acute.case" xMin="290" yMin="764" xMax="453" yMax="936">
      <contour>
        <pt x="312" y="764" on="1"/>
        <pt x="290" y="779" on="1"/>
        <pt x="424" y="936" on="1"/>
        <pt x="453" y="917" on="1"/>
      </contour>
    </TTGlyph>
    <TTGlyph name="adieresis" xMin="58" yMin="-12" xMax="514" yMax="698">
      <component glyphName="a" x="0" y="0" flags="0x204"/>
      <component glyphName="dieresis" x="30" y="0" flags="0x4"/>
    </TTGlyph>
    <TTGlyph name="adieresis.alt01" xMin="41" yMin="-12" xMax="478" yMax="698">
      <component glyphName="a.alt01" x="0" y="0" flags="0x204"/>
      <component glyphName="dieresis" x="9" y="0" flags="0x4"/>
    </TTGlyph>
    <TTGlyph name="ae" xMin="41" yMin="-12" xMax="811" yMax="520">
      <contour>
        <pt x="199" y="19" on="1"/>
        <pt x="231" y="19" on="0"/>
        <pt x="294" y="37" on="0"/>
        <pt x="346" y="72" on="0"/>
        <pt x="383" y="124" on="0"/>
        <pt x="389" y="159" on="1"/>
        <pt x="403" y="240" on="1"/>
        <pt x="242" y="232" on="1"/>
        <pt x="164" y="228" on="0"/>
        <pt x="89" y="186" on="0"/>
        <pt x="81" y="147" on="1"/>
        <pt x="77" y="128" on="0"/>
        <pt x="76" y="113" on="0"/>
        <pt x="76" y="106" on="1"/>
        <pt x="76" y="64" on="0"/>
        <pt x="139" y="19" on="0"/>
      </contour>
      <contour>
        <pt x="649" y="490" on="1"/>
        <pt x="609" y="490" on="0"/>
        <pt x="542" y="459" on="0"/>
        <pt x="489" y="403" on="0"/>
        <pt x="453" y="327" on="0"/>
        <pt x="445" y="282" on="1"/>
        <pt x="442" y="268" on="1"/>
        <pt x="547" y="270" on="0"/>
        <pt x="678" y="292" on="0"/>
        <pt x="751" y="327" on="0"/>
        <pt x="776" y="371" on="0"/>
        <pt x="776" y="395" on="1"/>
        <pt x="776" y="441" on="0"/>
        <pt x="713" y="490" on="0"/>
      </contour>
      <contour>
        <pt x="194" y="-12" on="1"/>
        <pt x="121" y="-12" on="0"/>
        <pt x="41" y="50" on="0"/>
        <pt x="41" y="108" on="1"/>
        <pt x="41" y="183" on="0"/>
        <pt x="139" y="254" on="0"/>
        <pt x="244" y="259" on="1"/>
        <pt x="409" y="267" on="1"/>
        <pt x="422" y="333" on="1"/>
        <pt x="426" y="356" on="0"/>
        <pt x="426" y="379" on="1"/>
        <pt x="426" y="402" on="0"/>
        <pt x="413" y="442" on="0"/>
        <pt x="383" y="472" on="0"/>
        <pt x="334" y="489" on="0"/>
        <pt x="298" y="489" on="1"/>
        <pt x="235" y="489" on="0"/>
        <pt x="163" y="445" on="0"/>
        <pt x="133" y="398" on="1"/>
        <pt x="108" y="416" on="1"/>
        <pt x="137" y="464" on="0"/>
        <pt x="226" y="520" on="0"/>
        <pt x="302" y="520" on="1"/>
        <pt x="340" y="520" on="0"/>
        <pt x="396" y="501" on="0"/>
        <pt x="432" y="468" on="0"/>
        <pt x="452" y="423" on="0"/>
        <pt x="454" y="398" on="1"/>
        <pt x="458" y="398" on="1"/>
        <pt x="489" y="454" on="0"/>
        <pt x="586" y="520" on="0"/>
        <pt x="652" y="520" on="1"/>
        <pt x="721" y="520" on="0"/>
        <pt x="811" y="457" on="0"/>
        <pt x="811" y="397" on="1"/>
        <pt x="811" y="367" on="0"/>
        <pt x="780" y="311" on="0"/>
        <pt x="698" y="268" on="0"/>
        <pt x="553" y="241" on="0"/>
        <pt x="438" y="239" on="1"/>
        <pt x="436" y="226" on="0"/>
        <pt x="432" y="199" on="0"/>
        <pt x="432" y="186" on="1"/>
        <pt x="432" y="111" on="0"/>
        <pt x="507" y="19" on="0"/>
        <pt x="581" y="19" on="1"/>
        <pt x="640" y="19" on="0"/>
        <pt x="732" y="80" on="0"/>
        <pt x="762" y="134" on="1"/>
        <pt x="789" y="118" on="1"/>
        <pt x="747" y="49" on="0"/>
        <pt x="641" y="-12" on="0"/>
        <pt x="579" y="-12" on="1"/>
        <pt x="510" y="-12" on="0"/>
        <pt x="420" y="60" on="0"/>
        <pt x="407" y="128" on="1"/>
        <pt x="403" y="128" on="1"/>
        <pt x="394" y="96" on="0"/>
        <pt x="354" y="44" on="0"/>
        <pt x="299" y="8" on="0"/>
        <pt x="231" y="-12" on="0"/>
      </contour>
    </TTGlyph>
    <TTGlyph name="aeacute" xMin="41" yMin="-12" xMax="811" yMax="758">
      <component glyphName="ae" x="0" y="0" flags="0x204"/>
      <component glyphName="acute" x="183" y="0" flags="0x4"/>
    </TTGlyph>
    <TTGlyph name="agrave" xMin="58" yMin="-12" xMax="514" yMax="757">
      <component glyphName="a" x="0" y="0" flags="0x204"/>
      <component glyphName="grave" x="30" y="0" flags="0x4"/>
    </TTGlyph>
    <TTGlyph name="agrave.alt01" xMin="41" yMin="-12" xMax="478" yMax="757">
      <component glyphName="a.alt01" x="0" y="0" flags="0x204"/>
      <component glyphName="grave" x="9" y="0" flags="0x4"/>
    </TTGlyph>
    <TTGlyph name="alpha" xMin="58" yMin="-12" xMax="610" yMax="520">
      <contour>
        <pt x="540" y="0" on="1"/>
        <pt x="483" y="0" on="1"/>
        <pt x="449" y="0" on="0"/>
        <pt x="449" y="32" on="1"/>
        <pt x="442" y="216" on="1"/>
        <pt x="438" y="216" on="1"/>
        <pt x="405" y="144" on="0"/>
        <pt x="349" y="55" on="0"/>
        <pt x="295" y="6" on="0"/>
        <pt x="240" y="-12" on="0"/>
        <pt x="209" y="-12" on="1"/>
        <pt x="140" y="-12" on="0"/>
        <pt x="58" y="87" on="0"/>
        <pt x="58" y="178" on="1"/>
        <pt x="58" y="245" on="0"/>
        <pt x="92" y="369" on="0"/>
        <pt x="155" y="464" on="0"/>
        <pt x="245" y="520" on="0"/>
        <pt x="301" y="520" on="1"/>
        <pt x="337" y="520" on="0"/>
        <pt x="393" y="498" on="0"/>
        <pt x="431" y="445" on="0"/>
        <pt x="452" y="358" on="0"/>
        <pt x="454" y="292" on="1"/>
        <pt x="457" y="292" on="1"/>
        <pt x="495" y="370" on="1"/>
        <pt x="570" y="508" on="1"/>
        <pt x="610" y="508" on="1"/>
        <pt x="465" y="253" on="1"/>
        <pt x="482" y="31" on="1"/>
        <pt x="546" y="31" on="1"/>
      </contour>
      <contour>
        <pt x="212" y="19" on="1"/>
        <pt x="236" y="19" on="0"/>
        <pt x="279" y="32" on="0"/>
        <pt x="321" y="69" on="0"/>
        <pt x="368" y="137" on="0"/>
        <pt x="397" y="193" on="1"/>
        <pt x="430" y="254" on="1"/>
        <pt x="424" y="316" on="1"/>
        <pt x="421" y="365" on="0"/>
        <pt x="402" y="431" on="0"/>
        <pt x="372" y="472" on="0"/>
        <pt x="329" y="489" on="0"/>
        <pt x="301" y="489" on="1"/>
        <pt x="229" y="489" on="0"/>
        <pt x="126" y="381" on="0"/>
        <pt x="107" y="287" on="1"/>
        <pt x="98" y="242" on="1"/>
        <pt x="96" y="226" on="0"/>
        <pt x="93" y="195" on="0"/>
        <pt x="93" y="176" on="1"/>
        <pt x="93" y="94" on="0"/>
        <pt x="160" y="19" on="0"/>
      </contour>
    </TTGlyph>
    <TTGlyph name="alpha.alt01" xMin="58" yMin="-12" xMax="514" yMax="520">
      <component glyphName="a" x="0" y="0" flags="0x204"/>
    </TTGlyph>
    <TTGlyph name="alphatonos" xMin="58" yMin="-12" xMax="610" yMax="758">
      <component glyphName="alpha" x="0" y="0" flags="0x204"/>
      <component glyphName="tonos" x="0" y="0" flags="0x4"/>
    </TTGlyph>
    <TTGlyph name="alphatonos.alt01" xMin="58" yMin="-12" xMax="514" yMax="758">
      <component glyphName="a" x="0" y="0" flags="0x204"/>
      <component glyphName="tonos" x="-5" y="0" flags="0x4"/>
    </TTGlyph>
    <TTGlyph name="amacron" xMin="58" yMin="-12" xMax="514" yMax="683">
      <component glyphName="a" x="0" y="0" flags="0x204"/>
      <component glyphName="macron" x="30" y="0" flags="0x4"/>
    </TTGlyph>
    <TTGlyph name="amacron.alt01" xMin="41" yMin="-12" xMax="478" yMax="683">
      <component glyphName="a.alt01" x="0" y="0" flags="0x204"/>
      <component glyphName="macron" x="9" y="0" flags="0x4"/>
    </TTGlyph>
    <TTGlyph name="ampersand" xMin="46" yMin="-12" xMax="649" yMax="710">
      <contour>
        <pt x="462" y="108" on="1"/>
        <pt x="419" y="54" on="0"/>
        <pt x="296" y="-12" on="0"/>
        <pt x="225" y="-12" on="1"/>
        <pt x="144" y="-12" on="0"/>
        <pt x="46" y="65" on="0"/>
        <pt x="46" y="140" on="1"/>
        <pt x="46" y="174" on="0"/>
        <pt x="69" y="235" on="0"/>
        <pt x="119" y="293" on="0"/>
        <pt x="198" y="348" on="0"/>
        <pt x="254" y="375" on="1"/>
        <pt x="219" y="421" on="0"/>
        <pt x="192" y="492" on="0"/>
        <pt x="192" y="521" on="1"/>
        <pt x="192" y="559" on="0"/>
        <pt x="218" y="628" on="0"/>
        <pt x="267" y="680" on="0"/>
        <pt x="339" y="710" on="0"/>
        <pt x="385" y="710" on="1"/>
        <pt x="452" y="710" on="0"/>
        <pt x="530" y="645" on="0"/>
        <pt x="530" y="590" on="1"/>
        <pt x="530" y="555" on="0"/>
        <pt x="505" y="500" on="0"/>
        <pt x="450" y="449" on="0"/>
        <pt x="363" y="397" on="0"/>
        <pt x="301" y="366" on="1"/>
        <pt x="463" y="160" on="1"/>
        <pt x="488" y="200" on="0"/>
        <pt x="523" y="304" on="0"/>
        <pt x="534" y="355" on="1"/>
        <pt x="649" y="355" on="1"/>
        <pt x="642" y="324" on="1"/>
        <pt x="557" y="324" on="1"/>
        <pt x="545" y="273" on="0"/>
        <pt x="508" y="174" on="0"/>
        <pt x="482" y="135" on="1"/>
        <pt x="587" y="0" on="1"/>
        <pt x="547" y="0" on="1"/>
      </contour>
      <contour>
        <pt x="381" y="680" on="1"/>
        <pt x="321" y="680" on="0"/>
        <pt x="243" y="615" on="0"/>
        <pt x="232" y="564" on="1"/>
        <pt x="229" y="547" on="0"/>
        <pt x="226" y="530" on="0"/>
        <pt x="226" y="522" on="1"/>
        <pt x="226" y="499" on="0"/>
        <pt x="248" y="436" on="0"/>
        <pt x="283" y="389" on="1"/>
        <pt x="341" y="417" on="0"/>
        <pt x="421" y="463" on="0"/>
        <pt x="472" y="509" on="0"/>
        <pt x="495" y="557" on="0"/>
        <pt x="495" y="586" on="1"/>
        <pt x="495" y="631" on="0"/>
        <pt x="435" y="680" on="0"/>
      </contour>
      <contour>
        <pt x="271" y="352" on="1"/>
        <pt x="225" y="329" on="0"/>
        <pt x="159" y="288" on="0"/>
        <pt x="114" y="245" on="0"/>
        <pt x="89" y="198" on="0"/>
        <pt x="84" y="170" on="1"/>
        <pt x="81" y="153" on="0"/>
        <pt x="81" y="140" on="1"/>
        <pt x="81" y="78" on="0"/>
        <pt x="163" y="19" on="0"/>
        <pt x="232" y="19" on="1"/>
        <pt x="298" y="19" on="0"/>
        <pt x="406" y="82" on="0"/>
        <pt x="444" y="132" on="1"/>
      </contour>
    </TTGlyph>
    <TTGlyph name="anoteleia" xMin="137" yMin="425" xMax="209" yMax="500">
      <component glyphName="period" x="95" y="432" flags="0x4"/>
    </TTGlyph>
    <TTGlyph name="aogonek" xMin="58" yMin="-203" xMax="514" yMax="520">
      <contour>
        <pt x="495" y="0" on="1"/>
        <pt x="456" y="-23" on="0"/>
        <pt x="402" y="-58" on="0"/>
        <pt x="369" y="-88" on="0"/>
        <pt x="354" y="-117" on="0"/>
        <pt x="354" y="-133" on="1"/>
        <pt x="354" y="-155" on="0"/>
        <pt x="380" y="-177" on="0"/>
        <pt x="400" y="-177" on="1"/>
        <pt x="422" y="-177" on="0"/>
        <pt x="452" y="-162" on="0"/>
        <pt x="463" y="-151" on="1"/>
        <pt x="481" y="-170" on="1"/>
        <pt x="469" y="-184" on="0"/>
        <pt x="427" y="-203" on="0"/>
        <pt x="399" y="-203" on="1"/>
        <pt x="367" y="-203" on="0"/>
        <pt x="322" y="-170" on="0"/>
        <pt x="322" y="-135" on="1"/>
        <pt x="322" y="-120" on="0"/>
        <pt x="335" y="-89" on="0"/>
        <pt x="366" y="-56" on="0"/>
        <pt x="418" y="-22" on="0"/>
        <pt x="457" y="-3" on="1"/>
        <pt x="456" y="0" on="1"/>
        <pt x="419" y="0" on="1"/>
        <pt x="385" y="0" on="0"/>
        <pt x="385" y="29" on="1"/>
        <pt x="385" y="34" on="0"/>
        <pt x="386" y="43" on="0"/>
        <pt x="387" y="48" on="1"/>
        <pt x="400" y="111" on="1"/>
        <pt x="397" y="111" on="1"/>
        <pt x="365" y="53" on="0"/>
        <pt x="282" y="-12" on="0"/>
        <pt x="219" y="-12" on="1"/>
        <pt x="181" y="-12" on="0"/>
        <pt x="121" y="16" on="0"/>
        <pt x="80" y="67" on="0"/>
        <pt x="58" y="137" on="0"/>
        <pt x="58" y="178" on="1"/>
        <pt x="58" y="244" on="0"/>
        <pt x="90" y="368" on="0"/>
        <pt x="153" y="463" on="0"/>
        <pt x="247" y="520" on="0"/>
        <pt x="308" y="520" on="1"/>
        <pt x="368" y="520" on="0"/>
        <pt x="445" y="465" on="0"/>
        <pt x="459" y="418" on="1"/>
        <pt x="462" y="418" on="1"/>
        <pt x="480" y="508" on="1"/>
        <pt x="514" y="508" on="1"/>
        <pt x="419" y="31" on="1"/>
        <pt x="501" y="31" on="1"/>
      </contour>
      <contour>
        <pt x="224" y="19" on="1"/>
        <pt x="256" y="19" on="0"/>
        <pt x="308" y="39" on="0"/>
        <pt x="334" y="62" on="1"/>
        <pt x="363" y="86" on="0"/>
        <pt x="410" y="162" on="0"/>
        <pt x="420" y="211" on="1"/>
        <pt x="448" y="349" on="1"/>
        <pt x="452" y="372" on="0"/>
        <pt x="441" y="421" on="0"/>
        <pt x="408" y="462" on="0"/>
        <pt x="351" y="489" on="0"/>
        <pt x="310" y="489" on="1"/>
        <pt x="228" y="489" on="0"/>
        <pt x="126" y="381" on="0"/>
        <pt x="107" y="287" on="1"/>
        <pt x="98" y="242" on="1"/>
        <pt x="96" y="226" on="0"/>
        <pt x="93" y="195" on="0"/>
        <pt x="93" y="176" on="1"/>
        <pt x="93" y="143" on="0"/>
        <pt x="108" y="86" on="0"/>
        <pt x="140" y="44" on="0"/>
        <pt x="190" y="19" on="0"/>
      </contour>
    </TTGlyph>
    <TTGlyph name="aogonek.alt01" xMin="41" yMin="-203" xMax="478" yMax="520">
      <contour>
        <pt x="200" y="18" on="1"/>
        <pt x="232" y="18" on="0"/>
        <pt x="293" y="35" on="0"/>
        <pt x="343" y="68" on="0"/>
        <pt x="379" y="116" on="0"/>
        <pt x="385" y="148" on="1"/>
        <pt x="405" y="250" on="1"/>
        <pt x="261" y="250" on="1"/>
        <pt x="177" y="250" on="0"/>
        <pt x="91" y="198" on="0"/>
        <pt x="82" y="153" on="1"/>
        <pt x="78" y="133" on="0"/>
        <pt x="76" y="114" on="0"/>
        <pt x="76" y="106" on="1"/>
        <pt x="76" y="64" on="0"/>
        <pt x="140" y="18" on="0"/>
      </contour>
      <contour>
        <pt x="472" y="0" on="1"/>
        <pt x="433" y="-23" on="0"/>
        <pt x="379" y="-58" on="0"/>
        <pt x="346" y="-88" on="0"/>
        <pt x="331" y="-117" on="0"/>
        <pt x="331" y="-133" on="1"/>
        <pt x="331" y="-155" on="0"/>
        <pt x="357" y="-177" on="0"/>
        <pt x="377" y="-177" on="1"/>
        <pt x="399" y="-177" on="0"/>
        <pt x="429" y="-162" on="0"/>
        <pt x="440" y="-151" on="1"/>
        <pt x="458" y="-170" on="1"/>
        <pt x="446" y="-184" on="0"/>
        <pt x="404" y="-203" on="0"/>
        <pt x="376" y="-203" on="1"/>
        <pt x="344" y="-203" on="0"/>
        <pt x="299" y="-170" on="0"/>
        <pt x="299" y="-135" on="1"/>
        <pt x="299" y="-120" on="0"/>
        <pt x="312" y="-89" on="0"/>
        <pt x="343" y="-56" on="0"/>
        <pt x="395" y="-22" on="0"/>
        <pt x="434" y="-3" on="1"/>
        <pt x="433" y="0" on="1"/>
        <pt x="395" y="0" on="1"/>
        <pt x="364" y="0" on="0"/>
        <pt x="364" y="28" on="1"/>
        <pt x="364" y="32" on="0"/>
        <pt x="365" y="40" on="0"/>
        <pt x="366" y="45" on="1"/>
        <pt x="372" y="77" on="1"/>
        <pt x="368" y="77" on="1"/>
        <pt x="343" y="39" on="0"/>
        <pt x="259" y="-12" on="0"/>
        <pt x="194" y="-12" on="1"/>
        <pt x="123" y="-12" on="0"/>
        <pt x="41" y="50" on="0"/>
        <pt x="41" y="105" on="1"/>
        <pt x="41" y="277" on="0"/>
        <pt x="264" y="277" on="1"/>
        <pt x="411" y="277" on="1"/>
        <pt x="422" y="333" on="1"/>
        <pt x="426" y="356" on="0"/>
        <pt x="426" y="379" on="1"/>
        <pt x="426" y="403" on="0"/>
        <pt x="413" y="443" on="0"/>
        <pt x="383" y="473" on="0"/>
        <pt x="334" y="490" on="0"/>
        <pt x="299" y="490" on="1"/>
        <pt x="267" y="490" on="0"/>
        <pt x="218" y="479" on="0"/>
        <pt x="179" y="457" on="0"/>
        <pt x="147" y="422" on="0"/>
        <pt x="132" y="398" on="1"/>
        <pt x="108" y="416" on="1"/>
        <pt x="123" y="440" on="0"/>
        <pt x="159" y="478" on="0"/>
        <pt x="205" y="505" on="0"/>
        <pt x="265" y="520" on="0"/>
        <pt x="303" y="520" on="1"/>
        <pt x="345" y="520" on="0"/>
        <pt x="404" y="499" on="0"/>
        <pt x="443" y="462" on="0"/>
        <pt x="461" y="412" on="0"/>
        <pt x="461" y="382" on="1"/>
        <pt x="461" y="371" on="0"/>
        <pt x="459" y="346" on="0"/>
        <pt x="456" y="332" on="1"/>
        <pt x="396" y="31" on="1"/>
        <pt x="478" y="31" on="1"/>
      </contour>
    </TTGlyph>
    <TTGlyph name="approxequal" xMin="53" yMin="163" xMax="562" yMax="448">
      <component glyphName="asciitilde" x="18" y="91" flags="0x204"/>
      <component glyphName="asciitilde" x="-23" y="-88" flags="0x4"/>
    </TTGlyph>
    <TTGlyph name="aring" xMin="58" yMin="-12" xMax="514" yMax="779">
      <component glyphName="a" x="0" y="0" flags="0x204"/>
      <component glyphName="ring" x="30" y="0" flags="0x4"/>
    </TTGlyph>
    <TTGlyph name="aring.alt01" xMin="41" yMin="-12" xMax="478" yMax="779">
      <component glyphName="a.alt01" x="0" y="0" flags="0x204"/>
      <component glyphName="ring" x="9" y="0" flags="0x4"/>
    </TTGlyph>
    <TTGlyph name="aringacute" xMin="58" yMin="-12" xMax="514" yMax="922">
      <component glyphName="a" x="0" y="0" flags="0x204"/>
      <component glyphName="ringacute" x="30" y="0" flags="0x4"/>
    </TTGlyph>
    <TTGlyph name="aringacute.alt01" xMin="41" yMin="-12" xMax="478" yMax="922">
      <component glyphName="a.alt01" x="0" y="0" flags="0x204"/>
      <component glyphName="ringacute" x="9" y="0" flags="0x4"/>
    </TTGlyph>
    <TTGlyph name="asciicircum" xMin="74" yMin="316" xMax="542" yMax="698">
      <contour>
        <pt x="514" y="316" on="1"/>
        <pt x="378" y="663" on="1"/>
        <pt x="376" y="663" on="1"/>
        <pt x="101" y="316" on="1"/>
        <pt x="74" y="332" on="1"/>
        <pt x="363" y="698" on="1"/>
        <pt x="400" y="698" on="1"/>
        <pt x="542" y="330" on="1"/>
      </contour>
    </TTGlyph>
    <TTGlyph name="asciitilde" xMin="76" yMin="251" xMax="544" yMax="357">
      <contour>
        <pt x="422" y="251" on="1"/>
        <pt x="407" y="251" on="0"/>
        <pt x="380" y="256" on="0"/>
        <pt x="353" y="266" on="0"/>
        <pt x="322" y="280" on="0"/>
        <pt x="302" y="290" on="1"/>
        <pt x="266" y="308" on="0"/>
        <pt x="220" y="326" on="0"/>
        <pt x="192" y="326" on="1"/>
        <pt x="164" y="326" on="0"/>
        <pt x="119" y="307" on="0"/>
        <pt x="91" y="286" on="1"/>
        <pt x="76" y="308" on="1"/>
        <pt x="105" y="333" on="0"/>
        <pt x="163" y="357" on="0"/>
        <pt x="198" y="357" on="1"/>
        <pt x="213" y="357" on="0"/>
        <pt x="240" y="352" on="0"/>
        <pt x="267" y="342" on="0"/>
        <pt x="298" y="328" on="0"/>
        <pt x="318" y="318" on="1"/>
        <pt x="354" y="300" on="0"/>
        <pt x="400" y="282" on="0"/>
        <pt x="428" y="282" on="1"/>
        <pt x="456" y="282" on="0"/>
        <pt x="501" y="301" on="0"/>
        <pt x="529" y="322" on="1"/>
        <pt x="544" y="300" on="1"/>
        <pt x="515" y="275" on="0"/>
        <pt x="457" y="251" on="0"/>
      </contour>
    </TTGlyph>
    <TTGlyph name="asterisk" xMin="95" yMin="423" xMax="431" yMax="747">
      <contour>
        <pt x="137" y="423" on="1"/>
        <pt x="113" y="442" on="1"/>
        <pt x="232" y="569" on="1"/>
        <pt x="95" y="612" on="1"/>
        <pt x="108" y="642" on="1"/>
        <pt x="244" y="592" on="1"/>
        <pt x="272" y="747" on="1"/>
        <pt x="304" y="747" on="1"/>
        <pt x="272" y="591" on="1"/>
        <pt x="425" y="642" on="1"/>
        <pt x="431" y="612" on="1"/>
        <pt x="276" y="566" on="1"/>
        <pt x="344" y="441" on="1"/>
        <pt x="318" y="424" on="1"/>
        <pt x="252" y="552" on="1"/>
      </contour>
    </TTGlyph>
    <TTGlyph name="at" xMin="66" yMin="-121" xMax="830" yMax="710">
      <contour>
        <pt x="363" y="-121" on="1"/>
        <pt x="294" y="-121" on="0"/>
        <pt x="183" y="-80" on="0"/>
        <pt x="107" y="-1" on="0"/>
        <pt x="66" y="114" on="0"/>
        <pt x="66" y="188" on="1"/>
        <pt x="66" y="213" on="0"/>
        <pt x="71" y="269" on="0"/>
        <pt x="78" y="301" on="1"/>
        <pt x="96" y="392" on="0"/>
        <pt x="178" y="543" on="0"/>
        <pt x="296" y="651" on="0"/>
        <pt x="444" y="710" on="0"/>
        <pt x="528" y="710" on="1"/>
        <pt x="594" y="710" on="0"/>
        <pt x="705" y="671" on="0"/>
        <pt x="785" y="595" on="0"/>
        <pt x="830" y="484" on="0"/>
        <pt x="830" y="413" on="1"/>
        <pt x="830" y="370" on="0"/>
        <pt x="820" y="320" on="1"/>
        <pt x="811" y="267" on="0"/>
        <pt x="777" y="175" on="0"/>
        <pt x="727" y="108" on="0"/>
        <pt x="663" y="69" on="0"/>
        <pt x="624" y="69" on="1"/>
        <pt x="586" y="69" on="0"/>
        <pt x="543" y="108" on="0"/>
        <pt x="543" y="143" on="1"/>
        <pt x="543" y="155" on="1"/>
        <pt x="540" y="155" on="1"/>
        <pt x="530" y="139" on="0"/>
        <pt x="502" y="108" on="0"/>
        <pt x="464" y="84" on="0"/>
        <pt x="419" y="69" on="0"/>
        <pt x="392" y="69" on="1"/>
        <pt x="329" y="69" on="0"/>
        <pt x="257" y="145" on="0"/>
        <pt x="257" y="214" on="1"/>
        <pt x="257" y="230" on="0"/>
        <pt x="260" y="269" on="0"/>
        <pt x="265" y="291" on="1"/>
        <pt x="285" y="400" on="0"/>
        <pt x="395" y="508" on="0"/>
        <pt x="476" y="508" on="1"/>
        <pt x="523" y="508" on="0"/>
        <pt x="585" y="460" on="0"/>
        <pt x="593" y="425" on="1"/>
        <pt x="596" y="425" on="1"/>
        <pt x="610" y="497" on="1"/>
        <pt x="641" y="497" on="1"/>
        <pt x="577" y="172" on="1"/>
        <pt x="574" y="157" on="0"/>
        <pt x="574" y="143" on="1"/>
        <pt x="574" y="97" on="0"/>
        <pt x="628" y="97" on="1"/>
        <pt x="680" y="97" on="0"/>
        <pt x="766" y="203" on="0"/>
        <pt x="784" y="297" on="1"/>
        <pt x="793" y="345" on="1"/>
        <pt x="800" y="380" on="0"/>
        <pt x="800" y="414" on="1"/>
        <pt x="800" y="477" on="0"/>
        <pt x="761" y="577" on="0"/>
        <pt x="689" y="646" on="0"/>
        <pt x="587" y="682" on="0"/>
        <pt x="524" y="682" on="1"/>
        <pt x="450" y="682" on="0"/>
        <pt x="316" y="628" on="0"/>
        <pt x="208" y="533" on="0"/>
        <pt x="132" y="402" on="0"/>
        <pt x="116" y="325" on="1"/>
        <pt x="104" y="271" on="1"/>
        <pt x="95" y="226" on="0"/>
        <pt x="95" y="188" on="1"/>
        <pt x="95" y="122" on="0"/>
        <pt x="133" y="18" on="0"/>
        <pt x="203" y="-55" on="0"/>
        <pt x="303" y="-93" on="0"/>
        <pt x="366" y="-93" on="1"/>
        <pt x="601" y="-93" on="1"/>
        <pt x="595" y="-121" on="1"/>
      </contour>
      <contour>
        <pt x="400" y="98" on="1"/>
        <pt x="427" y="98" on="0"/>
        <pt x="478" y="118" on="0"/>
        <pt x="520" y="151" on="0"/>
        <pt x="549" y="196" on="0"/>
        <pt x="554" y="220" on="1"/>
        <pt x="583" y="362" on="1"/>
        <pt x="588" y="387" on="0"/>
        <pt x="576" y="430" on="0"/>
        <pt x="547" y="461" on="0"/>
        <pt x="503" y="479" on="0"/>
        <pt x="476" y="479" on="1"/>
        <pt x="409" y="479" on="0"/>
        <pt x="320" y="390" on="0"/>
        <pt x="305" y="314" on="1"/>
        <pt x="295" y="263" on="1"/>
        <pt x="292" y="249" on="0"/>
        <pt x="290" y="224" on="0"/>
        <pt x="290" y="212" on="1"/>
        <pt x="290" y="158" on="0"/>
        <pt x="346" y="98" on="0"/>
      </contour>
    </TTGlyph>
    <TTGlyph name="atilde" xMin="58" yMin="-12" xMax="514" yMax="708">
      <component glyphName="a" x="0" y="0" flags="0x204"/>
      <component glyphName="tilde" x="28" y="0" flags="0x4"/>
    </TTGlyph>
    <TTGlyph name="atilde.alt01" xMin="41" yMin="-12" xMax="485" yMax="708">
      <component glyphName="a.alt01" x="0" y="0" flags="0x204"/>
      <component glyphName="tilde" x="7" y="0" flags="0x4"/>
    </TTGlyph>
    <TTGlyph name="b" xMin="49" yMin="-12" xMax="505" yMax="740">
      <contour>
        <pt x="197" y="740" on="1"/>
        <pt x="231" y="740" on="1"/>
        <pt x="163" y="397" on="1"/>
        <pt x="166" y="397" on="1"/>
        <pt x="198" y="455" on="0"/>
        <pt x="281" y="520" on="0"/>
        <pt x="343" y="520" on="1"/>
        <pt x="382" y="520" on="0"/>
        <pt x="442" y="492" on="0"/>
        <pt x="483" y="441" on="0"/>
        <pt x="505" y="372" on="0"/>
        <pt x="505" y="330" on="1"/>
        <pt x="505" y="264" on="0"/>
        <pt x="473" y="141" on="0"/>
        <pt x="410" y="45" on="0"/>
        <pt x="316" y="-12" on="0"/>
        <pt x="255" y="-12" on="1"/>
        <pt x="195" y="-12" on="0"/>
        <pt x="118" y="43" on="0"/>
        <pt x="104" y="91" on="1"/>
        <pt x="101" y="91" on="1"/>
        <pt x="83" y="0" on="1"/>
        <pt x="49" y="0" on="1"/>
      </contour>
      <contour>
        <pt x="254" y="19" on="1"/>
        <pt x="335" y="19" on="0"/>
        <pt x="437" y="128" on="0"/>
        <pt x="456" y="222" on="1"/>
        <pt x="464" y="266" on="1"/>
        <pt x="467" y="282" on="0"/>
        <pt x="470" y="313" on="0"/>
        <pt x="470" y="333" on="1"/>
        <pt x="470" y="365" on="0"/>
        <pt x="455" y="422" on="0"/>
        <pt x="422" y="464" on="0"/>
        <pt x="372" y="489" on="0"/>
        <pt x="338" y="489" on="1"/>
        <pt x="306" y="489" on="0"/>
        <pt x="255" y="469" on="0"/>
        <pt x="229" y="447" on="1"/>
        <pt x="200" y="422" on="0"/>
        <pt x="153" y="347" on="0"/>
        <pt x="143" y="297" on="1"/>
        <pt x="116" y="164" on="1"/>
        <pt x="111" y="139" on="0"/>
        <pt x="121" y="88" on="0"/>
        <pt x="154" y="46" on="0"/>
        <pt x="212" y="19" on="0"/>
      </contour>
    </TTGlyph>
    <TTGlyph name="backslash" xMin="130" yMin="-151" xMax="232" yMax="740">
      <contour>
        <pt x="202" y="-151" on="1"/>
        <pt x="130" y="740" on="1"/>
        <pt x="160" y="740" on="1"/>
        <pt x="232" y="-151" on="1"/>
      </contour>
    </TTGlyph>
    <TTGlyph name="bar" xMin="31" yMin="-138" xMax="241" yMax="760">
      <contour>
        <pt x="31" y="-138" on="1"/>
        <pt x="211" y="760" on="1"/>
        <pt x="241" y="760" on="1"/>
        <pt x="61" y="-138" on="1"/>
      </contour>
    </TTGlyph>
    <TTGlyph name="beta" xMin="10" yMin="-200" xMax="523" yMax="752">
      <contour>
        <pt x="154" y="520" on="1"/>
        <pt x="175" y="626" on="0"/>
        <pt x="285" y="752" on="0"/>
        <pt x="377" y="752" on="1"/>
        <pt x="416" y="752" on="0"/>
        <pt x="471" y="730" on="0"/>
        <pt x="506" y="692" on="0"/>
        <pt x="523" y="643" on="0"/>
        <pt x="523" y="615" on="1"/>
        <pt x="523" y="572" on="0"/>
        <pt x="498" y="501" on="0"/>
        <pt x="456" y="449" on="0"/>
        <pt x="401" y="414" on="0"/>
        <pt x="371" y="407" on="1"/>
        <pt x="371" y="404" on="1"/>
        <pt x="428" y="394" on="0"/>
        <pt x="488" y="314" on="0"/>
        <pt x="488" y="254" on="1"/>
        <pt x="488" y="194" on="0"/>
        <pt x="454" y="96" on="0"/>
        <pt x="392" y="26" on="0"/>
        <pt x="308" y="-12" on="0"/>
        <pt x="258" y="-12" on="1"/>
        <pt x="196" y="-12" on="0"/>
        <pt x="119" y="43" on="0"/>
        <pt x="105" y="91" on="1"/>
        <pt x="102" y="91" on="1"/>
        <pt x="44" y="-200" on="1"/>
        <pt x="10" y="-200" on="1"/>
      </contour>
      <contour>
        <pt x="247" y="420" on="1"/>
        <pt x="319" y="420" on="1"/>
        <pt x="353" y="420" on="0"/>
        <pt x="406" y="442" on="0"/>
        <pt x="447" y="479" on="0"/>
        <pt x="474" y="528" on="0"/>
        <pt x="481" y="555" on="1"/>
        <pt x="489" y="589" on="0"/>
        <pt x="489" y="615" on="1"/>
        <pt x="489" y="663" on="0"/>
        <pt x="435" y="721" on="0"/>
        <pt x="373" y="721" on="1"/>
        <pt x="343" y="721" on="0"/>
        <pt x="286" y="700" on="0"/>
        <pt x="237" y="652" on="0"/>
        <pt x="200" y="576" on="0"/>
        <pt x="189" y="522" on="1"/>
        <pt x="117" y="164" on="1"/>
        <pt x="112" y="139" on="0"/>
        <pt x="122" y="88" on="0"/>
        <pt x="155" y="46" on="0"/>
        <pt x="213" y="19" on="0"/>
        <pt x="256" y="19" on="1"/>
        <pt x="297" y="19" on="0"/>
        <pt x="363" y="46" on="0"/>
        <pt x="411" y="94" on="0"/>
        <pt x="443" y="159" on="0"/>
        <pt x="449" y="197" on="1"/>
        <pt x="451" y="214" on="0"/>
        <pt x="454" y="245" on="0"/>
        <pt x="454" y="259" on="1"/>
        <pt x="454" y="316" on="0"/>
        <pt x="384" y="390" on="0"/>
        <pt x="314" y="390" on="1"/>
        <pt x="240" y="390" on="1"/>
      </contour>
    </TTGlyph>
    <TTGlyph name="braceleft" xMin="32" yMin="-138" xMax="356" yMax="760">
      <contour>
        <pt x="81" y="-138" on="1"/>
        <pt x="50" y="-138" on="0"/>
        <pt x="50" y="-110" on="1"/>
        <pt x="50" y="-105" on="0"/>
        <pt x="54" y="-85" on="1"/>
        <pt x="110" y="196" on="1"/>
        <pt x="113" y="211" on="0"/>
        <pt x="113" y="223" on="1"/>
        <pt x="113" y="257" on="0"/>
        <pt x="70" y="283" on="0"/>
        <pt x="32" y="283" on="1"/>
        <pt x="44" y="339" on="1"/>
        <pt x="92" y="339" on="0"/>
        <pt x="148" y="384" on="0"/>
        <pt x="156" y="426" on="1"/>
        <pt x="215" y="720" on="1"/>
        <pt x="222" y="760" on="0"/>
        <pt x="259" y="760" on="1"/>
        <pt x="356" y="760" on="1"/>
        <pt x="350" y="731" on="1"/>
        <pt x="249" y="731" on="1"/>
        <pt x="188" y="427" on="1"/>
        <pt x="178" y="378" on="0"/>
        <pt x="118" y="320" on="0"/>
        <pt x="69" y="318" on="1"/>
        <pt x="65" y="302" on="1"/>
        <pt x="103" y="300" on="0"/>
        <pt x="145" y="262" on="0"/>
        <pt x="145" y="225" on="1"/>
        <pt x="145" y="211" on="0"/>
        <pt x="142" y="195" on="1"/>
        <pt x="81" y="-109" on="1"/>
        <pt x="183" y="-109" on="1"/>
        <pt x="176" y="-138" on="1"/>
      </contour>
    </TTGlyph>
    <TTGlyph name="braceright" xMin="-14" yMin="-138" xMax="309" yMax="760">
      <contour>
        <pt x="-8" y="-109" on="1"/>
        <pt x="93" y="-109" on="1"/>
        <pt x="154" y="195" on="1"/>
        <pt x="163" y="244" on="0"/>
        <pt x="224" y="301" on="0"/>
        <pt x="272" y="303" on="1"/>
        <pt x="276" y="319" on="1"/>
        <pt x="238" y="321" on="0"/>
        <pt x="197" y="360" on="0"/>
        <pt x="197" y="397" on="1"/>
        <pt x="197" y="410" on="0"/>
        <pt x="200" y="427" on="1"/>
        <pt x="261" y="731" on="1"/>
        <pt x="159" y="731" on="1"/>
        <pt x="165" y="760" on="1"/>
        <pt x="260" y="760" on="1"/>
        <pt x="292" y="760" on="0"/>
        <pt x="292" y="732" on="1"/>
        <pt x="292" y="727" on="0"/>
        <pt x="288" y="707" on="1"/>
        <pt x="231" y="426" on="1"/>
        <pt x="228" y="411" on="0"/>
        <pt x="228" y="399" on="1"/>
        <pt x="228" y="365" on="0"/>
        <pt x="272" y="339" on="0"/>
        <pt x="309" y="339" on="1"/>
        <pt x="298" y="283" on="1"/>
        <pt x="250" y="283" on="0"/>
        <pt x="194" y="238" on="0"/>
        <pt x="186" y="196" on="1"/>
        <pt x="126" y="-98" on="1"/>
        <pt x="119" y="-138" on="0"/>
        <pt x="83" y="-138" on="1"/>
        <pt x="-14" y="-138" on="1"/>
      </contour>
    </TTGlyph>
    <TTGlyph name="bracketleft" xMin="27" yMin="-138" xMax="340" yMax="760">
      <contour>
        <pt x="27" y="-138" on="1"/>
        <pt x="207" y="760" on="1"/>
        <pt x="340" y="760" on="1"/>
        <pt x="333" y="732" on="1"/>
        <pt x="233" y="732" on="1"/>
        <pt x="65" y="-110" on="1"/>
        <pt x="165" y="-110" on="1"/>
        <pt x="159" y="-138" on="1"/>
      </contour>
    </TTGlyph>
    <TTGlyph name="bracketright" xMin="-11" yMin="-138" xMax="301" yMax="760">
      <contour>
        <pt x="301" y="760" on="1"/>
        <pt x="121" y="-138" on="1"/>
        <pt x="-11" y="-138" on="1"/>
        <pt x="-5" y="-110" on="1"/>
        <pt x="95" y="-110" on="1"/>
        <pt x="264" y="732" on="1"/>
        <pt x="163" y="732" on="1"/>
        <pt x="169" y="760" on="1"/>
      </contour>
    </TTGlyph>
    <TTGlyph name="breve" xMin="196" yMin="604" xMax="467" yMax="735">
      <contour>
        <pt x="315" y="604" on="1"/>
        <pt x="287" y="604" on="0"/>
        <pt x="249" y="622" on="0"/>
        <pt x="222" y="654" on="0"/>
        <pt x="203" y="699" on="0"/>
        <pt x="196" y="725" on="1"/>
        <pt x="219" y="735" on="1"/>
        <pt x="233" y="701" on="1"/>
        <pt x="248" y="665" on="0"/>
        <pt x="285" y="633" on="0"/>
        <pt x="315" y="633" on="1"/>
        <pt x="348" y="633" on="0"/>
        <pt x="393" y="663" on="0"/>
        <pt x="421" y="702" on="1"/>
        <pt x="444" y="735" on="1"/>
        <pt x="467" y="725" on="1"/>
        <pt x="451" y="699" on="0"/>
        <pt x="421" y="655" on="0"/>
        <pt x="386" y="623" on="0"/>
        <pt x="343" y="604" on="0"/>
      </contour>
    </TTGlyph>
    <TTGlyph name="breve.case" xMin="201" yMin="781" xMax="473" yMax="912">
      <contour>
        <pt x="320" y="781" on="1"/>
        <pt x="293" y="781" on="0"/>
        <pt x="254" y="799" on="0"/>
        <pt x="227" y="832" on="0"/>
        <pt x="209" y="876" on="0"/>
        <pt x="201" y="902" on="1"/>
        <pt x="225" y="912" on="1"/>
        <pt x="238" y="879" on="1"/>
        <pt x="254" y="843" on="0"/>
        <pt x="290" y="810" on="0"/>
        <pt x="321" y="810" on="1"/>
        <pt x="353" y="810" on="0"/>
        <pt x="398" y="841" on="0"/>
        <pt x="426" y="880" on="1"/>
        <pt x="449" y="912" on="1"/>
        <pt x="473" y="902" on="1"/>
        <pt x="457" y="876" on="0"/>
        <pt x="427" y="832" on="0"/>
        <pt x="392" y="800" on="0"/>
        <pt x="349" y="781" on="0"/>
      </contour>
    </TTGlyph>
    <TTGlyph name="breve.cyrl" xMin="201" yMin="604" xMax="468" yMax="731">
      <contour>
        <pt x="314" y="604" on="1"/>
        <pt x="274" y="604" on="0"/>
        <pt x="230" y="640" on="0"/>
        <pt x="217" y="675" on="1"/>
        <pt x="201" y="719" on="1"/>
        <pt x="229" y="731" on="1"/>
        <pt x="252" y="662" on="1"/>
        <pt x="273" y="631" on="0"/>
        <pt x="316" y="631" on="1"/>
        <pt x="339" y="631" on="0"/>
        <pt x="374" y="645" on="0"/>
        <pt x="393" y="662" on="1"/>
        <pt x="442" y="731" on="1"/>
        <pt x="468" y="717" on="1"/>
        <pt x="436" y="675" on="1"/>
        <pt x="410" y="640" on="0"/>
        <pt x="352" y="604" on="0"/>
      </contour>
    </TTGlyph>
    <TTGlyph name="breve.cyrl_case" xMin="205" yMin="781" xMax="472" yMax="908">
      <contour>
        <pt x="318" y="781" on="1"/>
        <pt x="278" y="781" on="0"/>
        <pt x="234" y="817" on="0"/>
        <pt x="221" y="852" on="1"/>
        <pt x="205" y="896" on="1"/>
        <pt x="233" y="908" on="1"/>
        <pt x="256" y="839" on="1"/>
        <pt x="277" y="808" on="0"/>
        <pt x="320" y="808" on="1"/>
        <pt x="343" y="808" on="0"/>
        <pt x="378" y="822" on="0"/>
        <pt x="397" y="839" on="1"/>
        <pt x="446" y="908" on="1"/>
        <pt x="472" y="894" on="1"/>
        <pt x="440" y="852" on="1"/>
        <pt x="414" y="817" on="0"/>
        <pt x="356" y="781" on="0"/>
      </contour>
    </TTGlyph>
    <TTGlyph name="breveacute" xMin="-106" yMin="592" xMax="166" yMax="868">
      <contour>
        <pt x="13" y="592" on="1"/>
        <pt x="-15" y="592" on="0"/>
        <pt x="-54" y="609" on="0"/>
        <pt x="-81" y="640" on="0"/>
        <pt x="-99" y="681" on="0"/>
        <pt x="-106" y="705" on="1"/>
        <pt x="-83" y="715" on="1"/>
        <pt x="-69" y="683" on="1"/>
        <pt x="-55" y="650" on="0"/>
        <pt x="-17" y="620" on="0"/>
        <pt x="13" y="620" on="1"/>
        <pt x="46" y="620" on="0"/>
        <pt x="93" y="646" on="0"/>
        <pt x="119" y="682" on="1"/>
        <pt x="142" y="715" on="1"/>
        <pt x="166" y="705" on="1"/>
        <pt x="151" y="681" on="0"/>
        <pt x="121" y="639" on="0"/>
        <pt x="85" y="609" on="0"/>
        <pt x="41" y="592" on="0"/>
      </contour>
      <contour>
        <pt x="19" y="697" on="1"/>
        <pt x="-2" y="711" on="1"/>
        <pt x="131" y="868" on="1"/>
        <pt x="160" y="850" on="1"/>
      </contour>
    </TTGlyph>
    <TTGlyph name="breveacute.case" xMin="-101" yMin="771" xMax="170" yMax="1047">
      <contour>
        <pt x="18" y="771" on="1"/>
        <pt x="-10" y="771" on="0"/>
        <pt x="-49" y="788" on="0"/>
        <pt x="-76" y="819" on="0"/>
        <pt x="-94" y="861" on="0"/>
        <pt x="-101" y="885" on="1"/>
        <pt x="-78" y="895" on="1"/>
        <pt x="-65" y="863" on="1"/>
        <pt x="-51" y="829" on="0"/>
        <pt x="-13" y="800" on="0"/>
        <pt x="18" y="800" on="1"/>
        <pt x="34" y="800" on="0"/>
        <pt x="62" y="806" on="0"/>
        <pt x="87" y="820" on="0"/>
        <pt x="110" y="844" on="0"/>
        <pt x="123" y="862" on="1"/>
        <pt x="147" y="895" on="1"/>
        <pt x="170" y="885" on="1"/>
        <pt x="155" y="860" on="0"/>
        <pt x="126" y="818" on="0"/>
        <pt x="90" y="788" on="0"/>
        <pt x="46" y="771" on="0"/>
      </contour>
      <contour>
        <pt x="24" y="876" on="1"/>
        <pt x="2" y="890" on="1"/>
        <pt x="136" y="1047" on="1"/>
        <pt x="165" y="1029" on="1"/>
      </contour>
    </TTGlyph>
    <TTGlyph name="brevegrave" xMin="-106" yMin="592" xMax="166" yMax="868">
      <contour>
        <pt x="13" y="592" on="1"/>
        <pt x="-15" y="592" on="0"/>
        <pt x="-54" y="609" on="0"/>
        <pt x="-81" y="640" on="0"/>
        <pt x="-99" y="681" on="0"/>
        <pt x="-106" y="705" on="1"/>
        <pt x="-83" y="715" on="1"/>
        <pt x="-69" y="683" on="1"/>
        <pt x="-55" y="650" on="0"/>
        <pt x="-17" y="620" on="0"/>
        <pt x="13" y="620" on="1"/>
        <pt x="46" y="620" on="0"/>
        <pt x="93" y="646" on="0"/>
        <pt x="119" y="682" on="1"/>
        <pt x="142" y="715" on="1"/>
        <pt x="166" y="705" on="1"/>
        <pt x="151" y="681" on="0"/>
        <pt x="121" y="639" on="0"/>
        <pt x="85" y="609" on="0"/>
        <pt x="41" y="592" on="0"/>
      </contour>
      <contour>
        <pt x="-59" y="852" on="1"/>
        <pt x="-28" y="868" on="1"/>
        <pt x="48" y="710" on="1"/>
        <pt x="25" y="698" on="1"/>
      </contour>
    </TTGlyph>
    <TTGlyph name="brevegrave.case" xMin="-101" yMin="771" xMax="170" yMax="1046">
      <contour>
        <pt x="18" y="771" on="1"/>
        <pt x="-10" y="771" on="0"/>
        <pt x="-49" y="788" on="0"/>
        <pt x="-76" y="819" on="0"/>
        <pt x="-94" y="861" on="0"/>
        <pt x="-101" y="885" on="1"/>
        <pt x="-78" y="895" on="1"/>
        <pt x="-65" y="863" on="1"/>
        <pt x="-51" y="829" on="0"/>
        <pt x="-13" y="800" on="0"/>
        <pt x="18" y="800" on="1"/>
        <pt x="34" y="800" on="0"/>
        <pt x="62" y="806" on="0"/>
        <pt x="87" y="820" on="0"/>
        <pt x="110" y="844" on="0"/>
        <pt x="123" y="862" on="1"/>
        <pt x="147" y="895" on="1"/>
        <pt x="170" y="885" on="1"/>
        <pt x="155" y="860" on="0"/>
        <pt x="126" y="818" on="0"/>
        <pt x="90" y="788" on="0"/>
        <pt x="46" y="771" on="0"/>
      </contour>
      <contour>
        <pt x="-57" y="1030" on="1"/>
        <pt x="-26" y="1046" on="1"/>
        <pt x="50" y="888" on="1"/>
        <pt x="27" y="876" on="1"/>
      </contour>
    </TTGlyph>
    <TTGlyph name="brevehook" xMin="-106" yMin="592" xMax="166" yMax="855">
      <contour>
        <pt x="13" y="592" on="1"/>
        <pt x="-15" y="592" on="0"/>
        <pt x="-54" y="609" on="0"/>
        <pt x="-81" y="640" on="0"/>
        <pt x="-99" y="681" on="0"/>
        <pt x="-106" y="705" on="1"/>
        <pt x="-83" y="715" on="1"/>
        <pt x="-69" y="683" on="1"/>
        <pt x="-55" y="650" on="0"/>
        <pt x="-17" y="620" on="0"/>
        <pt x="13" y="620" on="1"/>
        <pt x="46" y="620" on="0"/>
        <pt x="93" y="646" on="0"/>
        <pt x="119" y="682" on="1"/>
        <pt x="142" y="715" on="1"/>
        <pt x="166" y="705" on="1"/>
        <pt x="151" y="681" on="0"/>
        <pt x="121" y="639" on="0"/>
        <pt x="85" y="609" on="0"/>
        <pt x="41" y="592" on="0"/>
      </contour>
      <contour>
        <pt x="-37" y="855" on="1"/>
        <pt x="89" y="855" on="1"/>
        <pt x="109" y="855" on="0"/>
        <pt x="122" y="841" on="0"/>
        <pt x="122" y="832" on="1"/>
        <pt x="122" y="821" on="0"/>
        <pt x="105" y="794" on="0"/>
        <pt x="79" y="764" on="1"/>
        <pt x="20" y="694" on="1"/>
        <pt x="-1" y="707" on="1"/>
        <pt x="93" y="828" on="1"/>
        <pt x="-42" y="828" on="1"/>
      </contour>
    </TTGlyph>
    <TTGlyph name="brevehook.case" xMin="-101" yMin="771" xMax="170" yMax="1032">
      <contour>
        <pt x="-29" y="1032" on="1"/>
        <pt x="98" y="1032" on="1"/>
        <pt x="117" y="1032" on="0"/>
        <pt x="131" y="1019" on="0"/>
        <pt x="131" y="1009" on="1"/>
        <pt x="131" y="998" on="0"/>
        <pt x="114" y="972" on="0"/>
        <pt x="88" y="942" on="1"/>
        <pt x="28" y="872" on="1"/>
        <pt x="7" y="884" on="1"/>
        <pt x="101" y="1005" on="1"/>
        <pt x="-33" y="1005" on="1"/>
      </contour>
      <contour>
        <pt x="18" y="771" on="1"/>
        <pt x="-10" y="771" on="0"/>
        <pt x="-49" y="788" on="0"/>
        <pt x="-76" y="819" on="0"/>
        <pt x="-94" y="861" on="0"/>
        <pt x="-101" y="885" on="1"/>
        <pt x="-78" y="895" on="1"/>
        <pt x="-65" y="863" on="1"/>
        <pt x="-51" y="829" on="0"/>
        <pt x="-13" y="800" on="0"/>
        <pt x="18" y="800" on="1"/>
        <pt x="34" y="800" on="0"/>
        <pt x="62" y="806" on="0"/>
        <pt x="87" y="820" on="0"/>
        <pt x="110" y="844" on="0"/>
        <pt x="123" y="862" on="1"/>
        <pt x="147" y="895" on="1"/>
        <pt x="170" y="885" on="1"/>
        <pt x="155" y="860" on="0"/>
        <pt x="126" y="818" on="0"/>
        <pt x="90" y="788" on="0"/>
        <pt x="46" y="771" on="0"/>
      </contour>
    </TTGlyph>
    <TTGlyph name="brevetilde" xMin="-107" yMin="592" xMax="199" yMax="847">
      <contour>
        <pt x="13" y="592" on="1"/>
        <pt x="-15" y="592" on="0"/>
        <pt x="-54" y="609" on="0"/>
        <pt x="-81" y="640" on="0"/>
        <pt x="-99" y="681" on="0"/>
        <pt x="-106" y="705" on="1"/>
        <pt x="-83" y="715" on="1"/>
        <pt x="-69" y="683" on="1"/>
        <pt x="-55" y="650" on="0"/>
        <pt x="-17" y="620" on="0"/>
        <pt x="13" y="620" on="1"/>
        <pt x="46" y="620" on="0"/>
        <pt x="93" y="646" on="0"/>
        <pt x="119" y="682" on="1"/>
        <pt x="142" y="715" on="1"/>
        <pt x="166" y="705" on="1"/>
        <pt x="151" y="681" on="0"/>
        <pt x="121" y="639" on="0"/>
        <pt x="85" y="609" on="0"/>
        <pt x="41" y="592" on="0"/>
      </contour>
      <contour>
        <pt x="111" y="764" on="1"/>
        <pt x="90" y="764" on="0"/>
        <pt x="59" y="780" on="0"/>
        <pt x="39" y="794" on="1"/>
        <pt x="19" y="808" on="0"/>
        <pt x="-9" y="819" on="0"/>
        <pt x="-26" y="819" on="1"/>
        <pt x="-43" y="819" on="0"/>
        <pt x="-74" y="803" on="0"/>
        <pt x="-93" y="788" on="1"/>
        <pt x="-107" y="806" on="1"/>
        <pt x="-67" y="847" on="0"/>
        <pt x="-19" y="847" on="1"/>
        <pt x="2" y="847" on="0"/>
        <pt x="33" y="832" on="0"/>
        <pt x="53" y="818" on="1"/>
        <pt x="73" y="805" on="0"/>
        <pt x="101" y="793" on="0"/>
        <pt x="118" y="793" on="1"/>
        <pt x="135" y="793" on="0"/>
        <pt x="167" y="809" on="0"/>
        <pt x="185" y="824" on="1"/>
        <pt x="199" y="807" on="1"/>
        <pt x="159" y="764" on="0"/>
      </contour>
    </TTGlyph>
    <TTGlyph name="brevetilde.case" xMin="-102" yMin="771" xMax="204" yMax="1026">
      <contour>
        <pt x="116" y="942" on="1"/>
        <pt x="95" y="942" on="0"/>
        <pt x="64" y="957" on="0"/>
        <pt x="44" y="971" on="1"/>
        <pt x="24" y="985" on="0"/>
        <pt x="-4" y="997" on="0"/>
        <pt x="-21" y="997" on="1"/>
        <pt x="-38" y="997" on="0"/>
        <pt x="-69" y="981" on="0"/>
        <pt x="-87" y="965" on="1"/>
        <pt x="-102" y="983" on="1"/>
        <pt x="-60" y="1026" on="0"/>
        <pt x="-14" y="1026" on="1"/>
        <pt x="7" y="1026" on="0"/>
        <pt x="38" y="1011" on="0"/>
        <pt x="58" y="997" on="1"/>
        <pt x="78" y="983" on="0"/>
        <pt x="106" y="971" on="0"/>
        <pt x="123" y="971" on="1"/>
        <pt x="140" y="971" on="0"/>
        <pt x="171" y="987" on="0"/>
        <pt x="189" y="1003" on="1"/>
        <pt x="204" y="985" on="1"/>
        <pt x="162" y="942" on="0"/>
      </contour>
      <contour>
        <pt x="18" y="771" on="1"/>
        <pt x="-10" y="771" on="0"/>
        <pt x="-49" y="788" on="0"/>
        <pt x="-76" y="819" on="0"/>
        <pt x="-94" y="861" on="0"/>
        <pt x="-101" y="885" on="1"/>
        <pt x="-78" y="895" on="1"/>
        <pt x="-65" y="863" on="1"/>
        <pt x="-51" y="829" on="0"/>
        <pt x="-13" y="800" on="0"/>
        <pt x="18" y="800" on="1"/>
        <pt x="34" y="800" on="0"/>
        <pt x="62" y="806" on="0"/>
        <pt x="87" y="820" on="0"/>
        <pt x="110" y="844" on="0"/>
        <pt x="123" y="862" on="1"/>
        <pt x="147" y="895" on="1"/>
        <pt x="170" y="885" on="1"/>
        <pt x="155" y="860" on="0"/>
        <pt x="126" y="818" on="0"/>
        <pt x="90" y="788" on="0"/>
        <pt x="46" y="771" on="0"/>
      </contour>
    </TTGlyph>
    <TTGlyph name="brokenbar" xMin="31" yMin="-138" xMax="241" yMax="760">
      <contour>
        <pt x="139" y="402" on="1"/>
        <pt x="211" y="760" on="1"/>
        <pt x="241" y="760" on="1"/>
        <pt x="169" y="402" on="1"/>
      </contour>
      <contour>
        <pt x="31" y="-138" on="1"/>
        <pt x="103" y="220" on="1"/>
        <pt x="133" y="220" on="1"/>
        <pt x="61" y="-138" on="1"/>
      </contour>
    </TTGlyph>
    <TTGlyph name="bullet" xMin="80" yMin="210" xMax="272" yMax="398">
      <contour>
        <pt x="160" y="210" on="1"/>
        <pt x="118" y="210" on="0"/>
        <pt x="80" y="243" on="0"/>
        <pt x="80" y="272" on="1"/>
        <pt x="80" y="277" on="0"/>
        <pt x="84" y="304" on="0"/>
        <pt x="87" y="319" on="1"/>
        <pt x="94" y="354" on="0"/>
        <pt x="142" y="398" on="0"/>
        <pt x="192" y="398" on="1"/>
        <pt x="234" y="398" on="0"/>
        <pt x="272" y="365" on="0"/>
        <pt x="272" y="336" on="1"/>
        <pt x="272" y="331" on="0"/>
        <pt x="268" y="304" on="0"/>
        <pt x="265" y="289" on="1"/>
        <pt x="258" y="254" on="0"/>
        <pt x="210" y="210" on="0"/>
      </contour>
    </TTGlyph>
    <TTGlyph name="c" xMin="58" yMin="-12" xMax="456" yMax="520">
      <contour>
        <pt x="226" y="-12" on="1"/>
        <pt x="185" y="-12" on="0"/>
        <pt x="122" y="17" on="0"/>
        <pt x="80" y="70" on="0"/>
        <pt x="58" y="144" on="0"/>
        <pt x="58" y="189" on="1"/>
        <pt x="58" y="258" on="0"/>
        <pt x="90" y="379" on="0"/>
        <pt x="152" y="469" on="0"/>
        <pt x="243" y="520" on="0"/>
        <pt x="301" y="520" on="1"/>
        <pt x="363" y="520" on="0"/>
        <pt x="445" y="455" on="0"/>
        <pt x="456" y="404" on="1"/>
        <pt x="427" y="393" on="1"/>
        <pt x="414" y="441" on="0"/>
        <pt x="348" y="489" on="0"/>
        <pt x="299" y="489" on="1"/>
        <pt x="226" y="489" on="0"/>
        <pt x="124" y="387" on="0"/>
        <pt x="108" y="301" on="1"/>
        <pt x="97" y="243" on="1"/>
        <pt x="94" y="226" on="0"/>
        <pt x="92" y="203" on="0"/>
        <pt x="92" y="186" on="1"/>
        <pt x="92" y="151" on="0"/>
        <pt x="108" y="90" on="0"/>
        <pt x="142" y="45" on="0"/>
        <pt x="193" y="19" on="0"/>
        <pt x="228" y="19" on="1"/>
        <pt x="282" y="19" on="0"/>
        <pt x="364" y="77" on="0"/>
        <pt x="398" y="131" on="1"/>
        <pt x="426" y="117" on="1"/>
        <pt x="390" y="57" on="0"/>
        <pt x="292" y="-12" on="0"/>
      </contour>
    </TTGlyph>
    <TTGlyph name="cacute" xMin="58" yMin="-12" xMax="456" yMax="758">
      <component glyphName="c" x="0" y="0" flags="0x204"/>
      <component glyphName="acute" x="5" y="0" flags="0x4"/>
    </TTGlyph>
    <TTGlyph name="caron" xMin="192" yMin="602" xMax="481" yMax="753">
      <contour>
        <pt x="293" y="602" on="1"/>
        <pt x="192" y="738" on="1"/>
        <pt x="214" y="753" on="1"/>
        <pt x="316" y="629" on="1"/>
        <pt x="461" y="753" on="1"/>
        <pt x="481" y="736" on="1"/>
        <pt x="333" y="602" on="1"/>
      </contour>
    </TTGlyph>
    <TTGlyph name="caron.case" xMin="197" yMin="780" xMax="486" yMax="931">
      <contour>
        <pt x="298" y="780" on="1"/>
        <pt x="197" y="916" on="1"/>
        <pt x="219" y="931" on="1"/>
        <pt x="320" y="807" on="1"/>
        <pt x="466" y="931" on="1"/>
        <pt x="486" y="915" on="1"/>
        <pt x="338" y="780" on="1"/>
      </contour>
    </TTGlyph>
    <TTGlyph name="ccaron" xMin="58" yMin="-12" xMax="487" yMax="753">
      <component glyphName="c" x="0" y="0" flags="0x204"/>
      <component glyphName="caron" x="6" y="0" flags="0x4"/>
    </TTGlyph>
    <TTGlyph name="ccedilla" xMin="58" yMin="-203" xMax="456" yMax="520">
      <contour>
        <pt x="301" y="520" on="1"/>
        <pt x="363" y="520" on="0"/>
        <pt x="445" y="455" on="0"/>
        <pt x="456" y="404" on="1"/>
        <pt x="427" y="393" on="1"/>
        <pt x="414" y="441" on="0"/>
        <pt x="348" y="489" on="0"/>
        <pt x="299" y="489" on="1"/>
        <pt x="226" y="489" on="0"/>
        <pt x="124" y="387" on="0"/>
        <pt x="108" y="301" on="1"/>
        <pt x="97" y="243" on="1"/>
        <pt x="94" y="226" on="0"/>
        <pt x="92" y="202" on="0"/>
        <pt x="92" y="185" on="1"/>
        <pt x="92" y="150" on="0"/>
        <pt x="108" y="90" on="0"/>
        <pt x="141" y="45" on="0"/>
        <pt x="192" y="19" on="0"/>
        <pt x="228" y="19" on="1"/>
        <pt x="282" y="19" on="0"/>
        <pt x="364" y="77" on="0"/>
        <pt x="398" y="131" on="1"/>
        <pt x="426" y="117" on="1"/>
        <pt x="391" y="60" on="0"/>
        <pt x="300" y="-8" on="0"/>
        <pt x="237" y="-12" on="1"/>
        <pt x="213" y="-70" on="1"/>
        <pt x="215" y="-72" on="1"/>
        <pt x="221" y="-71" on="0"/>
        <pt x="237" y="-69" on="0"/>
        <pt x="244" y="-69" on="1"/>
        <pt x="271" y="-69" on="0"/>
        <pt x="302" y="-97" on="0"/>
        <pt x="302" y="-123" on="1"/>
        <pt x="302" y="-157" on="0"/>
        <pt x="249" y="-203" on="0"/>
        <pt x="204" y="-203" on="1"/>
        <pt x="174" y="-203" on="0"/>
        <pt x="132" y="-184" on="0"/>
        <pt x="123" y="-170" on="1"/>
        <pt x="143" y="-150" on="1"/>
        <pt x="153" y="-162" on="0"/>
        <pt x="183" y="-177" on="0"/>
        <pt x="204" y="-177" on="1"/>
        <pt x="234" y="-177" on="0"/>
        <pt x="271" y="-147" on="0"/>
        <pt x="271" y="-124" on="1"/>
        <pt x="271" y="-107" on="0"/>
        <pt x="248" y="-86" on="0"/>
        <pt x="218" y="-84" on="1"/>
        <pt x="183" y="-82" on="1"/>
        <pt x="213" y="-12" on="1"/>
        <pt x="175" y="-9" on="0"/>
        <pt x="117" y="23" on="0"/>
        <pt x="78" y="76" on="0"/>
        <pt x="58" y="147" on="0"/>
        <pt x="58" y="189" on="1"/>
        <pt x="58" y="258" on="0"/>
        <pt x="90" y="379" on="0"/>
        <pt x="152" y="469" on="0"/>
        <pt x="243" y="520" on="0"/>
      </contour>
    </TTGlyph>
    <TTGlyph name="ccircumflex" xMin="58" yMin="-12" xMax="467" yMax="748">
      <component glyphName="c" x="0" y="0" flags="0x204"/>
      <component glyphName="circumflex" x="6" y="0" flags="0x4"/>
    </TTGlyph>
    <TTGlyph name="cdotaccent" xMin="58" yMin="-12" xMax="456" yMax="698">
      <component glyphName="c" x="0" y="0" flags="0x204"/>
      <component glyphName="dotaccent" x="6" y="0" flags="0x4"/>
    </TTGlyph>
    <TTGlyph name="cedilla" xMin="194" yMin="-203" xMax="373" yMax="7">
      <contour>
        <pt x="275" y="-203" on="1"/>
        <pt x="245" y="-203" on="0"/>
        <pt x="203" y="-184" on="0"/>
        <pt x="194" y="-170" on="1"/>
        <pt x="214" y="-150" on="1"/>
        <pt x="223" y="-162" on="0"/>
        <pt x="254" y="-177" on="0"/>
        <pt x="275" y="-177" on="1"/>
        <pt x="305" y="-177" on="0"/>
        <pt x="342" y="-147" on="0"/>
        <pt x="342" y="-124" on="1"/>
        <pt x="342" y="-107" on="0"/>
        <pt x="319" y="-86" on="0"/>
        <pt x="289" y="-84" on="1"/>
        <pt x="254" y="-82" on="1"/>
        <pt x="290" y="7" on="1"/>
        <pt x="316" y="7" on="1"/>
        <pt x="284" y="-70" on="1"/>
        <pt x="286" y="-72" on="1"/>
        <pt x="292" y="-71" on="0"/>
        <pt x="308" y="-69" on="0"/>
        <pt x="315" y="-69" on="1"/>
        <pt x="342" y="-69" on="0"/>
        <pt x="373" y="-97" on="0"/>
        <pt x="373" y="-123" on="1"/>
        <pt x="373" y="-157" on="0"/>
        <pt x="320" y="-203" on="0"/>
      </contour>
    </TTGlyph>
    <TTGlyph name="cent" xMin="58" yMin="-114" xMax="457" yMax="622">
      <contour>
        <pt x="194" y="-9" on="1"/>
        <pt x="126" y="2" on="0"/>
        <pt x="58" y="110" on="0"/>
        <pt x="58" y="189" on="1"/>
        <pt x="58" y="258" on="0"/>
        <pt x="89" y="377" on="0"/>
        <pt x="150" y="467" on="0"/>
        <pt x="240" y="519" on="0"/>
        <pt x="299" y="520" on="1"/>
        <pt x="319" y="622" on="1"/>
        <pt x="351" y="622" on="1"/>
        <pt x="330" y="518" on="1"/>
        <pt x="381" y="510" on="0"/>
        <pt x="446" y="449" on="0"/>
        <pt x="457" y="404" on="1"/>
        <pt x="426" y="393" on="1"/>
        <pt x="416" y="434" on="0"/>
        <pt x="362" y="482" on="0"/>
        <pt x="324" y="488" on="1"/>
        <pt x="230" y="18" on="1"/>
        <pt x="284" y="20" on="0"/>
        <pt x="363" y="75" on="0"/>
        <pt x="398" y="131" on="1"/>
        <pt x="425" y="117" on="1"/>
        <pt x="383" y="51" on="0"/>
        <pt x="287" y="-11" on="0"/>
        <pt x="224" y="-12" on="1"/>
        <pt x="204" y="-114" on="1"/>
        <pt x="173" y="-114" on="1"/>
      </contour>
      <contour>
        <pt x="91" y="185" on="1"/>
        <pt x="91" y="154" on="0"/>
        <pt x="104" y="98" on="0"/>
        <pt x="130" y="55" on="0"/>
        <pt x="171" y="25" on="0"/>
        <pt x="200" y="21" on="1"/>
        <pt x="293" y="489" on="1"/>
        <pt x="221" y="487" on="0"/>
        <pt x="124" y="386" on="0"/>
        <pt x="108" y="301" on="1"/>
        <pt x="97" y="243" on="1"/>
        <pt x="94" y="227" on="0"/>
        <pt x="91" y="202" on="0"/>
      </contour>
    </TTGlyph>
    <TTGlyph name="chi" xMin="-66" yMin="-200" xMax="472" yMax="508">
      <contour>
        <pt x="104" y="508" on="1"/>
        <pt x="132" y="508" on="0"/>
        <pt x="138" y="486" on="1"/>
        <pt x="210" y="195" on="1"/>
        <pt x="213" y="195" on="1"/>
        <pt x="432" y="508" on="1"/>
        <pt x="472" y="508" on="1"/>
        <pt x="227" y="164" on="1"/>
        <pt x="309" y="-169" on="1"/>
        <pt x="359" y="-169" on="1"/>
        <pt x="353" y="-200" on="1"/>
        <pt x="310" y="-200" on="1"/>
        <pt x="281" y="-200" on="0"/>
        <pt x="277" y="-176" on="1"/>
        <pt x="203" y="134" on="1"/>
        <pt x="200" y="134" on="1"/>
        <pt x="-26" y="-200" on="1"/>
        <pt x="-66" y="-200" on="1"/>
        <pt x="186" y="165" on="1"/>
        <pt x="106" y="477" on="1"/>
        <pt x="56" y="477" on="1"/>
        <pt x="62" y="508" on="1"/>
      </contour>
    </TTGlyph>
    <TTGlyph name="circumflex" xMin="172" yMin="597" xMax="461" yMax="748">
      <contour>
        <pt x="360" y="748" on="1"/>
        <pt x="461" y="612" on="1"/>
        <pt x="439" y="597" on="1"/>
        <pt x="337" y="721" on="1"/>
        <pt x="192" y="597" on="1"/>
        <pt x="172" y="614" on="1"/>
        <pt x="320" y="748" on="1"/>
      </contour>
    </TTGlyph>
    <TTGlyph name="circumflex.case" xMin="176" yMin="775" xMax="465" yMax="926">
      <contour>
        <pt x="364" y="926" on="1"/>
        <pt x="465" y="790" on="1"/>
        <pt x="443" y="775" on="1"/>
        <pt x="342" y="899" on="1"/>
        <pt x="196" y="775" on="1"/>
        <pt x="176" y="791" on="1"/>
        <pt x="324" y="926" on="1"/>
      </contour>
    </TTGlyph>
    <TTGlyph name="circumflexacute" xMin="-128" yMin="589" xMax="292" yMax="870">
      <contour>
        <pt x="151" y="699" on="1"/>
        <pt x="130" y="713" on="1"/>
        <pt x="263" y="870" on="1"/>
        <pt x="292" y="852" on="1"/>
      </contour>
      <contour>
        <pt x="58" y="737" on="1"/>
        <pt x="159" y="604" on="1"/>
        <pt x="137" y="589" on="1"/>
        <pt x="36" y="712" on="1"/>
        <pt x="-108" y="589" on="1"/>
        <pt x="-128" y="605" on="1"/>
        <pt x="17" y="737" on="1"/>
      </contour>
    </TTGlyph>
    <TTGlyph name="circumflexacute.case" xMin="-124" yMin="766" xMax="297" yMax="1046">
      <contour>
        <pt x="156" y="875" on="1"/>
        <pt x="134" y="889" on="1"/>
        <pt x="268" y="1046" on="1"/>
        <pt x="297" y="1028" on="1"/>
      </contour>
      <contour>
        <pt x="61" y="915" on="1"/>
        <pt x="162" y="781" on="1"/>
        <pt x="141" y="766" on="1"/>
        <pt x="39" y="890" on="1"/>
        <pt x="-105" y="766" on="1"/>
        <pt x="-124" y="783" on="1"/>
        <pt x="20" y="915" on="1"/>
      </contour>
    </TTGlyph>
    <TTGlyph name="circumflexbreve" xMin="-136" yMin="579" xMax="191" yMax="862">
      <contour>
        <pt x="51" y="708" on="1"/>
        <pt x="151" y="595" on="1"/>
        <pt x="132" y="579" on="1"/>
        <pt x="29" y="683" on="1"/>
        <pt x="-119" y="579" on="1"/>
        <pt x="-136" y="597" on="1"/>
        <pt x="11" y="708" on="1"/>
      </contour>
      <contour>
        <pt x="39" y="740" on="1"/>
        <pt x="12" y="740" on="0"/>
        <pt x="-27" y="757" on="0"/>
        <pt x="-54" y="787" on="0"/>
        <pt x="-72" y="829" on="0"/>
        <pt x="-79" y="853" on="1"/>
        <pt x="-57" y="862" on="1"/>
        <pt x="-43" y="829" on="1"/>
        <pt x="-29" y="797" on="0"/>
        <pt x="9" y="768" on="0"/>
        <pt x="39" y="768" on="1"/>
        <pt x="72" y="768" on="0"/>
        <pt x="119" y="794" on="0"/>
        <pt x="145" y="829" on="1"/>
        <pt x="168" y="862" on="1"/>
        <pt x="191" y="853" on="1"/>
        <pt x="177" y="827" on="0"/>
        <pt x="147" y="786" on="0"/>
        <pt x="111" y="756" on="0"/>
        <pt x="67" y="740" on="0"/>
      </contour>
    </TTGlyph>
    <TTGlyph name="circumflexbreve.case" xMin="-131" yMin="758" xMax="197" yMax="1039">
      <contour>
        <pt x="55" y="886" on="1"/>
        <pt x="155" y="774" on="1"/>
        <pt x="136" y="758" on="1"/>
        <pt x="33" y="861" on="1"/>
        <pt x="-115" y="758" on="1"/>
        <pt x="-131" y="775" on="1"/>
        <pt x="15" y="886" on="1"/>
      </contour>
      <contour>
        <pt x="45" y="917" on="1"/>
        <pt x="17" y="917" on="0"/>
        <pt x="-22" y="934" on="0"/>
        <pt x="-49" y="964" on="0"/>
        <pt x="-66" y="1006" on="0"/>
        <pt x="-73" y="1030" on="1"/>
        <pt x="-51" y="1039" on="1"/>
        <pt x="-37" y="1005" on="1"/>
        <pt x="-24" y="973" on="0"/>
        <pt x="15" y="945" on="0"/>
        <pt x="45" y="945" on="1"/>
        <pt x="78" y="945" on="0"/>
        <pt x="125" y="970" on="0"/>
        <pt x="151" y="1006" on="1"/>
        <pt x="174" y="1039" on="1"/>
        <pt x="197" y="1030" on="1"/>
        <pt x="183" y="1004" on="0"/>
        <pt x="153" y="963" on="0"/>
        <pt x="117" y="933" on="0"/>
        <pt x="73" y="917" on="0"/>
      </contour>
    </TTGlyph>
    <TTGlyph name="circumflexgrave" xMin="-193" yMin="589" xMax="158" yMax="868">
      <contour>
        <pt x="-193" y="852" on="1"/>
        <pt x="-163" y="868" on="1"/>
        <pt x="-86" y="710" on="1"/>
        <pt x="-109" y="698" on="1"/>
      </contour>
      <contour>
        <pt x="58" y="737" on="1"/>
        <pt x="158" y="604" on="1"/>
        <pt x="137" y="589" on="1"/>
        <pt x="35" y="712" on="1"/>
        <pt x="-108" y="589" on="1"/>
        <pt x="-128" y="605" on="1"/>
        <pt x="17" y="737" on="1"/>
      </contour>
    </TTGlyph>
    <TTGlyph name="circumflexgrave.case" xMin="-192" yMin="766" xMax="162" yMax="1046">
      <contour>
        <pt x="-192" y="1030" on="1"/>
        <pt x="-161" y="1046" on="1"/>
        <pt x="-85" y="887" on="1"/>
        <pt x="-108" y="875" on="1"/>
      </contour>
      <contour>
        <pt x="61" y="915" on="1"/>
        <pt x="162" y="781" on="1"/>
        <pt x="141" y="766" on="1"/>
        <pt x="39" y="890" on="1"/>
        <pt x="-105" y="766" on="1"/>
        <pt x="-125" y="783" on="1"/>
        <pt x="20" y="915" on="1"/>
      </contour>
    </TTGlyph>
    <TTGlyph name="circumflexhook" xMin="-128" yMin="589" xMax="251" yMax="855">
      <contour>
        <pt x="91" y="855" on="1"/>
        <pt x="218" y="855" on="1"/>
        <pt x="237" y="855" on="0"/>
        <pt x="251" y="841" on="0"/>
        <pt x="251" y="832" on="1"/>
        <pt x="251" y="821" on="0"/>
        <pt x="233" y="794" on="0"/>
        <pt x="207" y="764" on="1"/>
        <pt x="149" y="694" on="1"/>
        <pt x="128" y="707" on="1"/>
        <pt x="222" y="828" on="1"/>
        <pt x="87" y="828" on="1"/>
      </contour>
      <contour>
        <pt x="58" y="737" on="1"/>
        <pt x="158" y="604" on="1"/>
        <pt x="137" y="589" on="1"/>
        <pt x="35" y="712" on="1"/>
        <pt x="-108" y="589" on="1"/>
        <pt x="-128" y="605" on="1"/>
        <pt x="17" y="737" on="1"/>
      </contour>
    </TTGlyph>
    <TTGlyph name="circumflexhook.case" xMin="-125" yMin="766" xMax="254" yMax="1032">
      <contour>
        <pt x="95" y="1032" on="1"/>
        <pt x="221" y="1032" on="1"/>
        <pt x="241" y="1032" on="0"/>
        <pt x="254" y="1019" on="0"/>
        <pt x="254" y="1009" on="1"/>
        <pt x="254" y="998" on="0"/>
        <pt x="237" y="972" on="0"/>
        <pt x="211" y="942" on="1"/>
        <pt x="152" y="872" on="1"/>
        <pt x="130" y="884" on="1"/>
        <pt x="224" y="1005" on="1"/>
        <pt x="90" y="1005" on="1"/>
      </contour>
      <contour>
        <pt x="61" y="915" on="1"/>
        <pt x="162" y="781" on="1"/>
        <pt x="141" y="766" on="1"/>
        <pt x="39" y="890" on="1"/>
        <pt x="-105" y="766" on="1"/>
        <pt x="-125" y="783" on="1"/>
        <pt x="20" y="915" on="1"/>
      </contour>
    </TTGlyph>
    <TTGlyph name="circumflextilde" xMin="-128" yMin="589" xMax="199" yMax="857">
      <contour>
        <pt x="-19" y="857" on="1"/>
        <pt x="2" y="857" on="0"/>
        <pt x="33" y="842" on="0"/>
        <pt x="53" y="828" on="1"/>
        <pt x="73" y="814" on="0"/>
        <pt x="101" y="802" on="0"/>
        <pt x="118" y="802" on="1"/>
        <pt x="135" y="802" on="0"/>
        <pt x="166" y="818" on="0"/>
        <pt x="184" y="834" on="1"/>
        <pt x="199" y="816" on="1"/>
        <pt x="157" y="773" on="0"/>
        <pt x="111" y="773" on="1"/>
        <pt x="90" y="773" on="0"/>
        <pt x="59" y="788" on="0"/>
        <pt x="39" y="802" on="1"/>
        <pt x="19" y="816" on="0"/>
        <pt x="-9" y="828" on="0"/>
        <pt x="-26" y="828" on="1"/>
        <pt x="-43" y="828" on="0"/>
        <pt x="-74" y="812" on="0"/>
        <pt x="-92" y="796" on="1"/>
        <pt x="-107" y="814" on="1"/>
        <pt x="-65" y="857" on="0"/>
      </contour>
      <contour>
        <pt x="58" y="737" on="1"/>
        <pt x="158" y="604" on="1"/>
        <pt x="137" y="589" on="1"/>
        <pt x="35" y="712" on="1"/>
        <pt x="-108" y="589" on="1"/>
        <pt x="-128" y="605" on="1"/>
        <pt x="17" y="737" on="1"/>
      </contour>
    </TTGlyph>
    <TTGlyph name="circumflextilde.case" xMin="-125" yMin="765" xMax="203" yMax="1033">
      <contour>
        <pt x="-15" y="1033" on="1"/>
        <pt x="6" y="1033" on="0"/>
        <pt x="37" y="1018" on="0"/>
        <pt x="57" y="1004" on="1"/>
        <pt x="77" y="990" on="0"/>
        <pt x="105" y="978" on="0"/>
        <pt x="122" y="978" on="1"/>
        <pt x="139" y="978" on="0"/>
        <pt x="170" y="994" on="0"/>
        <pt x="188" y="1010" on="1"/>
        <pt x="203" y="992" on="1"/>
        <pt x="161" y="949" on="0"/>
        <pt x="115" y="949" on="1"/>
        <pt x="94" y="949" on="0"/>
        <pt x="63" y="964" on="0"/>
        <pt x="43" y="978" on="1"/>
        <pt x="23" y="992" on="0"/>
        <pt x="-5" y="1004" on="0"/>
        <pt x="-22" y="1004" on="1"/>
        <pt x="-39" y="1004" on="0"/>
        <pt x="-70" y="988" on="0"/>
        <pt x="-88" y="972" on="1"/>
        <pt x="-103" y="990" on="1"/>
        <pt x="-61" y="1033" on="0"/>
      </contour>
      <contour>
        <pt x="61" y="914" on="1"/>
        <pt x="162" y="781" on="1"/>
        <pt x="141" y="765" on="1"/>
        <pt x="39" y="889" on="1"/>
        <pt x="-105" y="765" on="1"/>
        <pt x="-125" y="782" on="1"/>
        <pt x="20" y="914" on="1"/>
      </contour>
    </TTGlyph>
    <TTGlyph name="colon" xMin="52" yMin="-7" xMax="216" yMax="515">
      <component glyphName="period" x="10" y="0" flags="0x4"/>
      <component glyphName="period" x="102" y="447" flags="0x4"/>
    </TTGlyph>
    <TTGlyph name="comma" xMin="-30" yMin="-144" xMax="114" yMax="68">
      <contour>
        <pt x="83" y="68" on="1"/>
        <pt x="100" y="68" on="0"/>
        <pt x="114" y="54" on="0"/>
        <pt x="114" y="44" on="1"/>
        <pt x="114" y="39" on="0"/>
        <pt x="112" y="27" on="0"/>
        <pt x="111" y="22" on="1"/>
        <pt x="106" y="2" on="0"/>
        <pt x="86" y="-43" on="0"/>
        <pt x="58" y="-87" on="0"/>
        <pt x="22" y="-128" on="0"/>
        <pt x="2" y="-144" on="1"/>
        <pt x="-30" y="-144" on="1"/>
        <pt x="14" y="-107" on="0"/>
        <pt x="60" y="-34" on="0"/>
        <pt x="71" y="-5" on="1"/>
        <pt x="54" y="-4" on="0"/>
        <pt x="42" y="9" on="0"/>
        <pt x="42" y="18" on="1"/>
        <pt x="42" y="23" on="0"/>
        <pt x="44" y="35" on="0"/>
        <pt x="45" y="39" on="1"/>
        <pt x="48" y="50" on="0"/>
        <pt x="63" y="68" on="0"/>
      </contour>
    </TTGlyph>
    <TTGlyph name="copyright" xMin="40" yMin="-12" xMax="708" yMax="710">
      <contour>
        <pt x="327" y="-12" on="1"/>
        <pt x="262" y="-12" on="0"/>
        <pt x="156" y="30" on="0"/>
        <pt x="81" y="107" on="0"/>
        <pt x="40" y="217" on="0"/>
        <pt x="40" y="285" on="1"/>
        <pt x="40" y="379" on="0"/>
        <pt x="99" y="535" on="0"/>
        <pt x="202" y="648" on="0"/>
        <pt x="341" y="710" on="0"/>
        <pt x="421" y="710" on="1"/>
        <pt x="486" y="710" on="0"/>
        <pt x="592" y="668" on="0"/>
        <pt x="667" y="590" on="0"/>
        <pt x="708" y="480" on="0"/>
        <pt x="708" y="412" on="1"/>
        <pt x="708" y="318" on="0"/>
        <pt x="649" y="162" on="0"/>
        <pt x="546" y="50" on="0"/>
        <pt x="407" y="-12" on="0"/>
      </contour>
      <contour>
        <pt x="328" y="15" on="1"/>
        <pt x="393" y="15" on="0"/>
        <pt x="505" y="59" on="0"/>
        <pt x="592" y="136" on="0"/>
        <pt x="650" y="238" on="0"/>
        <pt x="662" y="295" on="1"/>
        <pt x="671" y="342" on="0"/>
        <pt x="677" y="392" on="0"/>
        <pt x="677" y="412" on="1"/>
        <pt x="677" y="472" on="0"/>
        <pt x="642" y="571" on="0"/>
        <pt x="576" y="643" on="0"/>
        <pt x="481" y="682" on="0"/>
        <pt x="420" y="682" on="1"/>
        <pt x="355" y="682" on="0"/>
        <pt x="243" y="638" on="0"/>
        <pt x="157" y="562" on="0"/>
        <pt x="98" y="460" on="0"/>
        <pt x="86" y="402" on="1"/>
        <pt x="77" y="357" on="0"/>
        <pt x="71" y="305" on="0"/>
        <pt x="71" y="285" on="1"/>
        <pt x="71" y="225" on="0"/>
        <pt x="106" y="126" on="0"/>
        <pt x="172" y="55" on="0"/>
        <pt x="267" y="15" on="0"/>
      </contour>
      <contour>
        <pt x="348" y="150" on="1"/>
        <pt x="290" y="150" on="0"/>
        <pt x="216" y="227" on="0"/>
        <pt x="216" y="301" on="1"/>
        <pt x="216" y="354" on="0"/>
        <pt x="244" y="443" on="0"/>
        <pt x="295" y="507" on="0"/>
        <pt x="365" y="543" on="0"/>
        <pt x="407" y="543" on="1"/>
        <pt x="455" y="543" on="0"/>
        <pt x="515" y="493" on="0"/>
        <pt x="526" y="460" on="1"/>
        <pt x="499" y="450" on="1"/>
        <pt x="488" y="479" on="0"/>
        <pt x="444" y="516" on="0"/>
        <pt x="405" y="516" on="1"/>
        <pt x="351" y="516" on="0"/>
        <pt x="272" y="442" on="0"/>
        <pt x="258" y="371" on="1"/>
        <pt x="252" y="341" on="1"/>
        <pt x="249" y="315" on="0"/>
        <pt x="249" y="299" on="1"/>
        <pt x="249" y="243" on="0"/>
        <pt x="302" y="179" on="0"/>
        <pt x="351" y="179" on="1"/>
        <pt x="386" y="179" on="0"/>
        <pt x="443" y="215" on="0"/>
        <pt x="463" y="248" on="1"/>
        <pt x="486" y="233" on="1"/>
        <pt x="466" y="199" on="0"/>
        <pt x="394" y="150" on="0"/>
      </contour>
    </TTGlyph>
    <TTGlyph name="currency" xMin="1" yMin="71" xMax="626" yMax="627">
      <contour>
        <pt x="272" y="127" on="1"/>
        <pt x="183" y="127" on="0"/>
        <pt x="143" y="182" on="1"/>
        <pt x="22" y="82" on="1"/>
        <pt x="1" y="107" on="1"/>
        <pt x="126" y="210" on="1"/>
        <pt x="112" y="243" on="0"/>
        <pt x="112" y="283" on="1"/>
        <pt x="112" y="314" on="0"/>
        <pt x="120" y="352" on="1"/>
        <pt x="130" y="400" on="0"/>
        <pt x="160" y="468" on="0"/>
        <pt x="182" y="494" on="1"/>
        <pt x="91" y="607" on="1"/>
        <pt x="116" y="627" on="1"/>
        <pt x="205" y="517" on="1"/>
        <pt x="265" y="571" on="0"/>
        <pt x="355" y="571" on="1"/>
        <pt x="444" y="571" on="0"/>
        <pt x="484" y="516" on="1"/>
        <pt x="605" y="616" on="1"/>
        <pt x="626" y="591" on="1"/>
        <pt x="501" y="488" on="1"/>
        <pt x="515" y="455" on="0"/>
        <pt x="515" y="415" on="1"/>
        <pt x="515" y="384" on="0"/>
        <pt x="507" y="346" on="1"/>
        <pt x="497" y="298" on="0"/>
        <pt x="467" y="230" on="0"/>
        <pt x="445" y="204" on="1"/>
        <pt x="536" y="91" on="1"/>
        <pt x="511" y="71" on="1"/>
        <pt x="422" y="181" on="1"/>
        <pt x="362" y="127" on="0"/>
      </contour>
      <contour>
        <pt x="275" y="157" on="1"/>
        <pt x="351" y="157" on="0"/>
        <pt x="450" y="245" on="0"/>
        <pt x="466" y="324" on="1"/>
        <pt x="476" y="374" on="1"/>
        <pt x="478" y="386" on="0"/>
        <pt x="481" y="410" on="0"/>
        <pt x="481" y="422" on="1"/>
        <pt x="481" y="478" on="0"/>
        <pt x="416" y="541" on="0"/>
        <pt x="352" y="541" on="1"/>
        <pt x="276" y="541" on="0"/>
        <pt x="177" y="453" on="0"/>
        <pt x="161" y="374" on="1"/>
        <pt x="151" y="324" on="1"/>
        <pt x="149" y="312" on="0"/>
        <pt x="146" y="288" on="0"/>
        <pt x="146" y="276" on="1"/>
        <pt x="146" y="220" on="0"/>
        <pt x="211" y="157" on="0"/>
      </contour>
    </TTGlyph>
    <TTGlyph name="d" xMin="58" yMin="-12" xMax="560" yMax="740">
      <contour>
        <pt x="419" y="0" on="1"/>
        <pt x="385" y="0" on="0"/>
        <pt x="385" y="29" on="1"/>
        <pt x="385" y="34" on="0"/>
        <pt x="386" y="43" on="0"/>
        <pt x="387" y="48" on="1"/>
        <pt x="400" y="111" on="1"/>
        <pt x="397" y="111" on="1"/>
        <pt x="365" y="53" on="0"/>
        <pt x="282" y="-12" on="0"/>
        <pt x="220" y="-12" on="1"/>
        <pt x="181" y="-12" on="0"/>
        <pt x="121" y="16" on="0"/>
        <pt x="80" y="67" on="0"/>
        <pt x="58" y="136" on="0"/>
        <pt x="58" y="178" on="1"/>
        <pt x="58" y="244" on="0"/>
        <pt x="90" y="367" on="0"/>
        <pt x="153" y="463" on="0"/>
        <pt x="247" y="520" on="0"/>
        <pt x="308" y="520" on="1"/>
        <pt x="368" y="520" on="0"/>
        <pt x="445" y="465" on="0"/>
        <pt x="459" y="417" on="1"/>
        <pt x="462" y="417" on="1"/>
        <pt x="526" y="740" on="1"/>
        <pt x="560" y="740" on="1"/>
        <pt x="418" y="31" on="1"/>
        <pt x="501" y="31" on="1"/>
        <pt x="495" y="0" on="1"/>
      </contour>
      <contour>
        <pt x="225" y="19" on="1"/>
        <pt x="257" y="19" on="0"/>
        <pt x="308" y="39" on="0"/>
        <pt x="334" y="61" on="1"/>
        <pt x="363" y="86" on="0"/>
        <pt x="410" y="161" on="0"/>
        <pt x="420" y="211" on="1"/>
        <pt x="447" y="344" on="1"/>
        <pt x="452" y="369" on="0"/>
        <pt x="442" y="420" on="0"/>
        <pt x="409" y="462" on="0"/>
        <pt x="351" y="489" on="0"/>
        <pt x="309" y="489" on="1"/>
        <pt x="228" y="489" on="0"/>
        <pt x="126" y="380" on="0"/>
        <pt x="107" y="286" on="1"/>
        <pt x="99" y="242" on="1"/>
        <pt x="96" y="226" on="0"/>
        <pt x="93" y="195" on="0"/>
        <pt x="93" y="175" on="1"/>
        <pt x="93" y="143" on="0"/>
        <pt x="108" y="86" on="0"/>
        <pt x="141" y="44" on="0"/>
        <pt x="190" y="19" on="0"/>
      </contour>
    </TTGlyph>
    <TTGlyph name="dagger" xMin="101" yMin="-200" xMax="549" yMax="740">
      <contour>
        <pt x="170" y="-200" on="1"/>
        <pt x="306" y="479" on="1"/>
        <pt x="101" y="479" on="1"/>
        <pt x="107" y="508" on="1"/>
        <pt x="312" y="508" on="1"/>
        <pt x="359" y="740" on="1"/>
        <pt x="391" y="740" on="1"/>
        <pt x="344" y="508" on="1"/>
        <pt x="549" y="508" on="1"/>
        <pt x="543" y="479" on="1"/>
        <pt x="338" y="479" on="1"/>
        <pt x="202" y="-200" on="1"/>
      </contour>
    </TTGlyph>
    <TTGlyph name="daggerdbl" xMin="12" yMin="-200" xMax="549" yMax="740">
      <contour>
        <pt x="170" y="-200" on="1"/>
        <pt x="217" y="32" on="1"/>
        <pt x="12" y="32" on="1"/>
        <pt x="18" y="61" on="1"/>
        <pt x="223" y="61" on="1"/>
        <pt x="306" y="479" on="1"/>
        <pt x="101" y="479" on="1"/>
        <pt x="107" y="508" on="1"/>
        <pt x="312" y="508" on="1"/>
        <pt x="359" y="740" on="1"/>
        <pt x="391" y="740" on="1"/>
        <pt x="344" y="508" on="1"/>
        <pt x="549" y="508" on="1"/>
        <pt x="543" y="479" on="1"/>
        <pt x="338" y="479" on="1"/>
        <pt x="255" y="61" on="1"/>
        <pt x="460" y="61" on="1"/>
        <pt x="454" y="32" on="1"/>
        <pt x="249" y="32" on="1"/>
        <pt x="202" y="-200" on="1"/>
      </contour>
    </TTGlyph>
    <TTGlyph name="dcaron" xMin="58" yMin="-12" xMax="677" yMax="740">
      <component glyphName="d" x="0" y="0" flags="0x204"/>
      <component glyphName="uni02BC" x="324" y="0" flags="0x4"/>
    </TTGlyph>
    <TTGlyph name="dcroat" xMin="58" yMin="-12" xMax="608" yMax="740">
      <contour>
        <pt x="419" y="0" on="1"/>
        <pt x="385" y="0" on="0"/>
        <pt x="385" y="29" on="1"/>
        <pt x="385" y="34" on="0"/>
        <pt x="386" y="43" on="0"/>
        <pt x="387" y="48" on="1"/>
        <pt x="400" y="111" on="1"/>
        <pt x="397" y="111" on="1"/>
        <pt x="365" y="53" on="0"/>
        <pt x="282" y="-12" on="0"/>
        <pt x="220" y="-12" on="1"/>
        <pt x="181" y="-12" on="0"/>
        <pt x="121" y="16" on="0"/>
        <pt x="80" y="67" on="0"/>
        <pt x="58" y="136" on="0"/>
        <pt x="58" y="178" on="1"/>
        <pt x="58" y="244" on="0"/>
        <pt x="90" y="367" on="0"/>
        <pt x="153" y="463" on="0"/>
        <pt x="247" y="520" on="0"/>
        <pt x="308" y="520" on="1"/>
        <pt x="368" y="520" on="0"/>
        <pt x="445" y="465" on="0"/>
        <pt x="459" y="417" on="1"/>
        <pt x="462" y="417" on="1"/>
        <pt x="503" y="623" on="1"/>
        <pt x="344" y="623" on="1"/>
        <pt x="350" y="652" on="1"/>
        <pt x="509" y="652" on="1"/>
        <pt x="526" y="740" on="1"/>
        <pt x="560" y="740" on="1"/>
        <pt x="542" y="652" on="1"/>
        <pt x="608" y="652" on="1"/>
        <pt x="602" y="623" on="1"/>
        <pt x="537" y="623" on="1"/>
        <pt x="418" y="31" on="1"/>
        <pt x="501" y="31" on="1"/>
        <pt x="495" y="0" on="1"/>
      </contour>
      <contour>
        <pt x="225" y="19" on="1"/>
        <pt x="257" y="19" on="0"/>
        <pt x="308" y="39" on="0"/>
        <pt x="334" y="61" on="1"/>
        <pt x="363" y="86" on="0"/>
        <pt x="410" y="161" on="0"/>
        <pt x="420" y="211" on="1"/>
        <pt x="447" y="344" on="1"/>
        <pt x="452" y="369" on="0"/>
        <pt x="442" y="420" on="0"/>
        <pt x="409" y="462" on="0"/>
        <pt x="351" y="489" on="0"/>
        <pt x="309" y="489" on="1"/>
        <pt x="228" y="489" on="0"/>
        <pt x="126" y="380" on="0"/>
        <pt x="107" y="286" on="1"/>
        <pt x="99" y="242" on="1"/>
        <pt x="96" y="226" on="0"/>
        <pt x="93" y="195" on="0"/>
        <pt x="93" y="175" on="1"/>
        <pt x="93" y="143" on="0"/>
        <pt x="108" y="86" on="0"/>
        <pt x="141" y="44" on="0"/>
        <pt x="190" y="19" on="0"/>
      </contour>
    </TTGlyph>
    <TTGlyph name="degree" xMin="127" yMin="372" xMax="450" yMax="710">
      <contour>
        <pt x="269" y="372" on="1"/>
        <pt x="238" y="372" on="0"/>
        <pt x="186" y="394" on="0"/>
        <pt x="148" y="434" on="0"/>
        <pt x="127" y="489" on="0"/>
        <pt x="127" y="522" on="1"/>
        <pt x="127" y="563" on="0"/>
        <pt x="155" y="632" on="0"/>
        <pt x="204" y="682" on="0"/>
        <pt x="270" y="710" on="0"/>
        <pt x="308" y="710" on="1"/>
        <pt x="339" y="710" on="0"/>
        <pt x="391" y="688" on="0"/>
        <pt x="429" y="648" on="0"/>
        <pt x="450" y="593" on="0"/>
        <pt x="450" y="560" on="1"/>
        <pt x="450" y="519" on="0"/>
        <pt x="422" y="450" on="0"/>
        <pt x="373" y="400" on="0"/>
        <pt x="307" y="372" on="0"/>
      </contour>
      <contour>
        <pt x="273" y="402" on="1"/>
        <pt x="304" y="402" on="0"/>
        <pt x="357" y="426" on="0"/>
        <pt x="395" y="468" on="0"/>
        <pt x="417" y="525" on="0"/>
        <pt x="417" y="558" on="1"/>
        <pt x="417" y="611" on="0"/>
        <pt x="359" y="680" on="0"/>
        <pt x="304" y="680" on="1"/>
        <pt x="273" y="680" on="0"/>
        <pt x="220" y="656" on="0"/>
        <pt x="182" y="614" on="0"/>
        <pt x="160" y="557" on="0"/>
        <pt x="160" y="524" on="1"/>
        <pt x="160" y="471" on="0"/>
        <pt x="218" y="402" on="0"/>
      </contour>
    </TTGlyph>
    <TTGlyph name="delta" xMin="57" yMin="-12" xMax="542" yMax="740">
      <contour>
        <pt x="295" y="709" on="1"/>
        <pt x="234" y="713" on="1"/>
        <pt x="234" y="711" on="1"/>
        <pt x="333" y="601" on="1"/>
        <pt x="379" y="549" on="0"/>
        <pt x="436" y="469" on="0"/>
        <pt x="468" y="401" on="0"/>
        <pt x="480" y="342" on="0"/>
        <pt x="480" y="311" on="1"/>
        <pt x="480" y="256" on="0"/>
        <pt x="449" y="141" on="0"/>
        <pt x="386" y="48" on="0"/>
        <pt x="291" y="-12" on="0"/>
        <pt x="227" y="-12" on="1"/>
        <pt x="187" y="-12" on="0"/>
        <pt x="124" y="16" on="0"/>
        <pt x="80" y="66" on="0"/>
        <pt x="57" y="135" on="0"/>
        <pt x="57" y="176" on="1"/>
        <pt x="57" y="249" on="0"/>
        <pt x="101" y="372" on="0"/>
        <pt x="181" y="459" on="0"/>
        <pt x="293" y="508" on="0"/>
        <pt x="362" y="508" on="1"/>
        <pt x="363" y="515" on="1"/>
        <pt x="310" y="580" on="1"/>
        <pt x="203" y="703" on="1"/>
        <pt x="210" y="740" on="1"/>
        <pt x="542" y="740" on="1"/>
        <pt x="536" y="709" on="1"/>
      </contour>
      <contour>
        <pt x="446" y="317" on="1"/>
        <pt x="446" y="337" on="0"/>
        <pt x="441" y="375" on="0"/>
        <pt x="426" y="416" on="0"/>
        <pt x="401" y="463" on="0"/>
        <pt x="381" y="491" on="1"/>
        <pt x="318" y="490" on="0"/>
        <pt x="221" y="450" on="0"/>
        <pt x="152" y="388" on="0"/>
        <pt x="110" y="311" on="0"/>
        <pt x="103" y="272" on="1"/>
        <pt x="96" y="237" on="1"/>
        <pt x="93" y="221" on="0"/>
        <pt x="91" y="189" on="0"/>
        <pt x="91" y="171" on="1"/>
        <pt x="91" y="139" on="0"/>
        <pt x="108" y="84" on="0"/>
        <pt x="142" y="43" on="0"/>
        <pt x="195" y="19" on="0"/>
        <pt x="231" y="19" on="1"/>
        <pt x="309" y="19" on="0"/>
        <pt x="413" y="128" on="0"/>
        <pt x="433" y="225" on="1"/>
        <pt x="441" y="262" on="1"/>
        <pt x="446" y="287" on="0"/>
      </contour>
    </TTGlyph>
    <TTGlyph name="dieresis" xMin="205" yMin="636" xMax="446" yMax="698">
      <contour>
        <pt x="230" y="636" on="1"/>
        <pt x="216" y="636" on="0"/>
        <pt x="205" y="649" on="0"/>
        <pt x="205" y="657" on="1"/>
        <pt x="205" y="662" on="0"/>
        <pt x="208" y="674" on="1"/>
        <pt x="211" y="685" on="0"/>
        <pt x="224" y="698" on="0"/>
        <pt x="239" y="698" on="1"/>
        <pt x="253" y="698" on="0"/>
        <pt x="264" y="685" on="0"/>
        <pt x="264" y="677" on="1"/>
        <pt x="264" y="672" on="0"/>
        <pt x="261" y="660" on="1"/>
        <pt x="258" y="649" on="0"/>
        <pt x="245" y="636" on="0"/>
      </contour>
      <contour>
        <pt x="412" y="636" on="1"/>
        <pt x="398" y="636" on="0"/>
        <pt x="387" y="649" on="0"/>
        <pt x="387" y="657" on="1"/>
        <pt x="387" y="662" on="0"/>
        <pt x="390" y="674" on="1"/>
        <pt x="393" y="685" on="0"/>
        <pt x="406" y="698" on="0"/>
        <pt x="421" y="698" on="1"/>
        <pt x="435" y="698" on="0"/>
        <pt x="446" y="685" on="0"/>
        <pt x="446" y="677" on="1"/>
        <pt x="446" y="672" on="0"/>
        <pt x="443" y="660" on="1"/>
        <pt x="440" y="649" on="0"/>
        <pt x="427" y="636" on="0"/>
      </contour>
    </TTGlyph>
    <TTGlyph name="dieresis.case" xMin="209" yMin="814" xMax="450" yMax="876">
      <contour>
        <pt x="234" y="814" on="1"/>
        <pt x="220" y="814" on="0"/>
        <pt x="209" y="827" on="0"/>
        <pt x="209" y="835" on="1"/>
        <pt x="209" y="840" on="0"/>
        <pt x="212" y="852" on="1"/>
        <pt x="215" y="863" on="0"/>
        <pt x="228" y="876" on="0"/>
        <pt x="243" y="876" on="1"/>
        <pt x="257" y="876" on="0"/>
        <pt x="268" y="863" on="0"/>
        <pt x="268" y="855" on="1"/>
        <pt x="268" y="850" on="0"/>
        <pt x="265" y="838" on="1"/>
        <pt x="262" y="827" on="0"/>
        <pt x="249" y="814" on="0"/>
      </contour>
      <contour>
        <pt x="416" y="814" on="1"/>
        <pt x="402" y="814" on="0"/>
        <pt x="391" y="827" on="0"/>
        <pt x="391" y="835" on="1"/>
        <pt x="391" y="840" on="0"/>
        <pt x="394" y="852" on="1"/>
        <pt x="397" y="863" on="0"/>
        <pt x="410" y="876" on="0"/>
        <pt x="425" y="876" on="1"/>
        <pt x="439" y="876" on="0"/>
        <pt x="450" y="863" on="0"/>
        <pt x="450" y="855" on="1"/>
        <pt x="450" y="850" on="0"/>
        <pt x="447" y="838" on="1"/>
        <pt x="444" y="827" on="0"/>
        <pt x="431" y="814" on="0"/>
      </contour>
    </TTGlyph>
    <TTGlyph name="dieresisacute" xMin="-97" yMin="625" xMax="169" yMax="868">
      <contour>
        <pt x="27" y="697" on="1"/>
        <pt x="6" y="711" on="1"/>
        <pt x="140" y="868" on="1"/>
        <pt x="169" y="850" on="1"/>
      </contour>
      <contour>
        <pt x="-72" y="625" on="1"/>
        <pt x="-86" y="625" on="0"/>
        <pt x="-97" y="638" on="0"/>
        <pt x="-97" y="646" on="1"/>
        <pt x="-97" y="651" on="0"/>
        <pt x="-94" y="663" on="1"/>
        <pt x="-91" y="674" on="0"/>
        <pt x="-78" y="687" on="0"/>
        <pt x="-63" y="687" on="1"/>
        <pt x="-49" y="687" on="0"/>
        <pt x="-38" y="674" on="0"/>
        <pt x="-38" y="666" on="1"/>
        <pt x="-38" y="661" on="0"/>
        <pt x="-41" y="649" on="1"/>
        <pt x="-44" y="638" on="0"/>
        <pt x="-57" y="625" on="0"/>
      </contour>
      <contour>
        <pt x="110" y="625" on="1"/>
        <pt x="96" y="625" on="0"/>
        <pt x="85" y="638" on="0"/>
        <pt x="85" y="646" on="1"/>
        <pt x="85" y="651" on="0"/>
        <pt x="88" y="663" on="1"/>
        <pt x="91" y="674" on="0"/>
        <pt x="104" y="687" on="0"/>
        <pt x="119" y="687" on="1"/>
        <pt x="133" y="687" on="0"/>
        <pt x="144" y="674" on="0"/>
        <pt x="144" y="666" on="1"/>
        <pt x="144" y="661" on="0"/>
        <pt x="141" y="649" on="1"/>
        <pt x="138" y="638" on="0"/>
        <pt x="125" y="625" on="0"/>
      </contour>
    </TTGlyph>
    <TTGlyph name="dieresisacute.case" xMin="-95" yMin="803" xMax="171" yMax="1046">
      <contour>
        <pt x="30" y="875" on="1"/>
        <pt x="8" y="889" on="1"/>
        <pt x="142" y="1046" on="1"/>
        <pt x="171" y="1028" on="1"/>
      </contour>
      <contour>
        <pt x="-70" y="803" on="1"/>
        <pt x="-84" y="803" on="0"/>
        <pt x="-95" y="816" on="0"/>
        <pt x="-95" y="824" on="1"/>
        <pt x="-95" y="829" on="0"/>
        <pt x="-92" y="841" on="1"/>
        <pt x="-89" y="852" on="0"/>
        <pt x="-76" y="865" on="0"/>
        <pt x="-61" y="865" on="1"/>
        <pt x="-47" y="865" on="0"/>
        <pt x="-36" y="852" on="0"/>
        <pt x="-36" y="844" on="1"/>
        <pt x="-36" y="839" on="0"/>
        <pt x="-39" y="827" on="1"/>
        <pt x="-42" y="816" on="0"/>
        <pt x="-55" y="803" on="0"/>
      </contour>
      <contour>
        <pt x="112" y="803" on="1"/>
        <pt x="98" y="803" on="0"/>
        <pt x="87" y="816" on="0"/>
        <pt x="87" y="824" on="1"/>
        <pt x="87" y="829" on="0"/>
        <pt x="90" y="841" on="1"/>
        <pt x="93" y="852" on="0"/>
        <pt x="106" y="865" on="0"/>
        <pt x="121" y="865" on="1"/>
        <pt x="135" y="865" on="0"/>
        <pt x="146" y="852" on="0"/>
        <pt x="146" y="844" on="1"/>
        <pt x="146" y="839" on="0"/>
        <pt x="143" y="827" on="1"/>
        <pt x="140" y="816" on="0"/>
        <pt x="127" y="803" on="0"/>
      </contour>
    </TTGlyph>
    <TTGlyph name="dieresiscaron" xMin="-97" yMin="625" xMax="200" yMax="858">
      <contour>
        <pt x="14" y="709" on="1"/>
        <pt x="-88" y="843" on="1"/>
        <pt x="-66" y="858" on="1"/>
        <pt x="36" y="734" on="1"/>
        <pt x="180" y="858" on="1"/>
        <pt x="200" y="841" on="1"/>
        <pt x="56" y="709" on="1"/>
      </contour>
      <contour>
        <pt x="-72" y="625" on="1"/>
        <pt x="-86" y="625" on="0"/>
        <pt x="-97" y="638" on="0"/>
        <pt x="-97" y="646" on="1"/>
        <pt x="-97" y="651" on="0"/>
        <pt x="-94" y="663" on="1"/>
        <pt x="-91" y="674" on="0"/>
        <pt x="-78" y="687" on="0"/>
        <pt x="-63" y="687" on="1"/>
        <pt x="-49" y="687" on="0"/>
        <pt x="-38" y="674" on="0"/>
        <pt x="-38" y="666" on="1"/>
        <pt x="-38" y="661" on="0"/>
        <pt x="-41" y="649" on="1"/>
        <pt x="-44" y="638" on="0"/>
        <pt x="-57" y="625" on="0"/>
      </contour>
      <contour>
        <pt x="110" y="625" on="1"/>
        <pt x="96" y="625" on="0"/>
        <pt x="85" y="638" on="0"/>
        <pt x="85" y="646" on="1"/>
        <pt x="85" y="651" on="0"/>
        <pt x="88" y="663" on="1"/>
        <pt x="91" y="674" on="0"/>
        <pt x="104" y="687" on="0"/>
        <pt x="119" y="687" on="1"/>
        <pt x="133" y="687" on="0"/>
        <pt x="144" y="674" on="0"/>
        <pt x="144" y="666" on="1"/>
        <pt x="144" y="661" on="0"/>
        <pt x="141" y="649" on="1"/>
        <pt x="138" y="638" on="0"/>
        <pt x="125" y="625" on="0"/>
      </contour>
    </TTGlyph>
    <TTGlyph name="dieresiscaron.case" xMin="-95" yMin="803" xMax="202" yMax="1036">
      <contour>
        <pt x="16" y="887" on="1"/>
        <pt x="-86" y="1021" on="1"/>
        <pt x="-64" y="1036" on="1"/>
        <pt x="39" y="912" on="1"/>
        <pt x="182" y="1036" on="1"/>
        <pt x="202" y="1019" on="1"/>
        <pt x="58" y="887" on="1"/>
      </contour>
      <contour>
        <pt x="-70" y="803" on="1"/>
        <pt x="-84" y="803" on="0"/>
        <pt x="-95" y="816" on="0"/>
        <pt x="-95" y="824" on="1"/>
        <pt x="-95" y="829" on="0"/>
        <pt x="-92" y="841" on="1"/>
        <pt x="-89" y="852" on="0"/>
        <pt x="-76" y="865" on="0"/>
        <pt x="-61" y="865" on="1"/>
        <pt x="-47" y="865" on="0"/>
        <pt x="-36" y="852" on="0"/>
        <pt x="-36" y="844" on="1"/>
        <pt x="-36" y="839" on="0"/>
        <pt x="-39" y="827" on="1"/>
        <pt x="-42" y="816" on="0"/>
        <pt x="-55" y="803" on="0"/>
      </contour>
      <contour>
        <pt x="112" y="803" on="1"/>
        <pt x="98" y="803" on="0"/>
        <pt x="87" y="816" on="0"/>
        <pt x="87" y="824" on="1"/>
        <pt x="87" y="829" on="0"/>
        <pt x="90" y="841" on="1"/>
        <pt x="93" y="852" on="0"/>
        <pt x="106" y="865" on="0"/>
        <pt x="121" y="865" on="1"/>
        <pt x="135" y="865" on="0"/>
        <pt x="146" y="852" on="0"/>
        <pt x="146" y="844" on="1"/>
        <pt x="146" y="839" on="0"/>
        <pt x="143" y="827" on="1"/>
        <pt x="140" y="816" on="0"/>
        <pt x="127" y="803" on="0"/>
      </contour>
    </TTGlyph>
    <TTGlyph name="dieresisgrave" xMin="-97" yMin="625" xMax="144" yMax="872">
      <contour>
        <pt x="-57" y="856" on="1"/>
        <pt x="-27" y="872" on="1"/>
        <pt x="49" y="713" on="1"/>
        <pt x="27" y="701" on="1"/>
      </contour>
      <contour>
        <pt x="-72" y="625" on="1"/>
        <pt x="-86" y="625" on="0"/>
        <pt x="-97" y="638" on="0"/>
        <pt x="-97" y="646" on="1"/>
        <pt x="-97" y="651" on="0"/>
        <pt x="-94" y="663" on="1"/>
        <pt x="-91" y="674" on="0"/>
        <pt x="-78" y="687" on="0"/>
        <pt x="-63" y="687" on="1"/>
        <pt x="-49" y="687" on="0"/>
        <pt x="-38" y="674" on="0"/>
        <pt x="-38" y="666" on="1"/>
        <pt x="-38" y="661" on="0"/>
        <pt x="-41" y="649" on="1"/>
        <pt x="-44" y="638" on="0"/>
        <pt x="-57" y="625" on="0"/>
      </contour>
      <contour>
        <pt x="110" y="625" on="1"/>
        <pt x="96" y="625" on="0"/>
        <pt x="85" y="638" on="0"/>
        <pt x="85" y="646" on="1"/>
        <pt x="85" y="651" on="0"/>
        <pt x="88" y="663" on="1"/>
        <pt x="91" y="674" on="0"/>
        <pt x="104" y="687" on="0"/>
        <pt x="119" y="687" on="1"/>
        <pt x="133" y="687" on="0"/>
        <pt x="144" y="674" on="0"/>
        <pt x="144" y="666" on="1"/>
        <pt x="144" y="661" on="0"/>
        <pt x="141" y="649" on="1"/>
        <pt x="138" y="638" on="0"/>
        <pt x="125" y="625" on="0"/>
      </contour>
    </TTGlyph>
    <TTGlyph name="dieresisgrave.case" xMin="-95" yMin="803" xMax="146" yMax="1046">
      <contour>
        <pt x="-56" y="1030" on="1"/>
        <pt x="-26" y="1046" on="1"/>
        <pt x="51" y="886" on="1"/>
        <pt x="28" y="875" on="1"/>
      </contour>
      <contour>
        <pt x="-70" y="803" on="1"/>
        <pt x="-84" y="803" on="0"/>
        <pt x="-95" y="816" on="0"/>
        <pt x="-95" y="824" on="1"/>
        <pt x="-95" y="829" on="0"/>
        <pt x="-92" y="841" on="1"/>
        <pt x="-89" y="852" on="0"/>
        <pt x="-76" y="865" on="0"/>
        <pt x="-61" y="865" on="1"/>
        <pt x="-47" y="865" on="0"/>
        <pt x="-36" y="852" on="0"/>
        <pt x="-36" y="844" on="1"/>
        <pt x="-36" y="839" on="0"/>
        <pt x="-39" y="827" on="1"/>
        <pt x="-42" y="816" on="0"/>
        <pt x="-55" y="803" on="0"/>
      </contour>
      <contour>
        <pt x="112" y="803" on="1"/>
        <pt x="98" y="803" on="0"/>
        <pt x="87" y="816" on="0"/>
        <pt x="87" y="824" on="1"/>
        <pt x="87" y="829" on="0"/>
        <pt x="90" y="841" on="1"/>
        <pt x="93" y="852" on="0"/>
        <pt x="106" y="865" on="0"/>
        <pt x="121" y="865" on="1"/>
        <pt x="135" y="865" on="0"/>
        <pt x="146" y="852" on="0"/>
        <pt x="146" y="844" on="1"/>
        <pt x="146" y="839" on="0"/>
        <pt x="143" y="827" on="1"/>
        <pt x="140" y="816" on="0"/>
        <pt x="127" y="803" on="0"/>
      </contour>
    </TTGlyph>
    <TTGlyph name="dieresismacron" xMin="-97" yMin="625" xMax="174" yMax="801">
      <contour>
        <pt x="-69" y="801" on="1"/>
        <pt x="174" y="801" on="1"/>
        <pt x="168" y="772" on="1"/>
        <pt x="-75" y="772" on="1"/>
      </contour>
      <contour>
        <pt x="-72" y="625" on="1"/>
        <pt x="-86" y="625" on="0"/>
        <pt x="-97" y="638" on="0"/>
        <pt x="-97" y="646" on="1"/>
        <pt x="-97" y="651" on="0"/>
        <pt x="-94" y="663" on="1"/>
        <pt x="-91" y="674" on="0"/>
        <pt x="-78" y="687" on="0"/>
        <pt x="-63" y="687" on="1"/>
        <pt x="-49" y="687" on="0"/>
        <pt x="-38" y="674" on="0"/>
        <pt x="-38" y="666" on="1"/>
        <pt x="-38" y="661" on="0"/>
        <pt x="-41" y="649" on="1"/>
        <pt x="-44" y="638" on="0"/>
        <pt x="-57" y="625" on="0"/>
      </contour>
      <contour>
        <pt x="110" y="625" on="1"/>
        <pt x="96" y="625" on="0"/>
        <pt x="85" y="638" on="0"/>
        <pt x="85" y="646" on="1"/>
        <pt x="85" y="651" on="0"/>
        <pt x="88" y="663" on="1"/>
        <pt x="91" y="674" on="0"/>
        <pt x="104" y="687" on="0"/>
        <pt x="119" y="687" on="1"/>
        <pt x="133" y="687" on="0"/>
        <pt x="144" y="674" on="0"/>
        <pt x="144" y="666" on="1"/>
        <pt x="144" y="661" on="0"/>
        <pt x="141" y="649" on="1"/>
        <pt x="138" y="638" on="0"/>
        <pt x="125" y="625" on="0"/>
      </contour>
    </TTGlyph>
    <TTGlyph name="dieresismacron.case" xMin="-95" yMin="803" xMax="177" yMax="979">
      <contour>
        <pt x="-67" y="979" on="1"/>
        <pt x="177" y="979" on="1"/>
        <pt x="171" y="949" on="1"/>
        <pt x="-72" y="949" on="1"/>
      </contour>
      <contour>
        <pt x="-70" y="803" on="1"/>
        <pt x="-84" y="803" on="0"/>
        <pt x="-95" y="816" on="0"/>
        <pt x="-95" y="824" on="1"/>
        <pt x="-95" y="829" on="0"/>
        <pt x="-92" y="841" on="1"/>
        <pt x="-89" y="852" on="0"/>
        <pt x="-76" y="865" on="0"/>
        <pt x="-61" y="865" on="1"/>
        <pt x="-47" y="865" on="0"/>
        <pt x="-36" y="852" on="0"/>
        <pt x="-36" y="844" on="1"/>
        <pt x="-36" y="839" on="0"/>
        <pt x="-39" y="827" on="1"/>
        <pt x="-42" y="816" on="0"/>
        <pt x="-55" y="803" on="0"/>
      </contour>
      <contour>
        <pt x="112" y="803" on="1"/>
        <pt x="98" y="803" on="0"/>
        <pt x="87" y="816" on="0"/>
        <pt x="87" y="824" on="1"/>
        <pt x="87" y="829" on="0"/>
        <pt x="90" y="841" on="1"/>
        <pt x="93" y="852" on="0"/>
        <pt x="106" y="865" on="0"/>
        <pt x="121" y="865" on="1"/>
        <pt x="135" y="865" on="0"/>
        <pt x="146" y="852" on="0"/>
        <pt x="146" y="844" on="1"/>
        <pt x="146" y="839" on="0"/>
        <pt x="143" y="827" on="1"/>
        <pt x="140" y="816" on="0"/>
        <pt x="127" y="803" on="0"/>
      </contour>
    </TTGlyph>
    <TTGlyph name="dieresistonos" xMin="246" yMin="587" xMax="488" yMax="758">
      <contour>
        <pt x="333" y="587" on="1"/>
        <pt x="312" y="595" on="1"/>
        <pt x="401" y="758" on="1"/>
        <pt x="430" y="747" on="1"/>
      </contour>
      <contour>
        <pt x="270" y="636" on="1"/>
        <pt x="257" y="636" on="0"/>
        <pt x="246" y="649" on="0"/>
        <pt x="246" y="658" on="1"/>
        <pt x="246" y="663" on="0"/>
        <pt x="249" y="674" on="1"/>
        <pt x="252" y="685" on="0"/>
        <pt x="265" y="698" on="0"/>
        <pt x="279" y="698" on="1"/>
        <pt x="292" y="698" on="0"/>
        <pt x="303" y="685" on="0"/>
        <pt x="303" y="677" on="1"/>
        <pt x="303" y="672" on="0"/>
        <pt x="300" y="660" on="1"/>
        <pt x="297" y="649" on="0"/>
        <pt x="284" y="636" on="0"/>
      </contour>
      <contour>
        <pt x="456" y="636" on="1"/>
        <pt x="443" y="636" on="0"/>
        <pt x="432" y="649" on="0"/>
        <pt x="432" y="658" on="1"/>
        <pt x="432" y="663" on="0"/>
        <pt x="435" y="674" on="1"/>
        <pt x="437" y="685" on="0"/>
        <pt x="450" y="698" on="0"/>
        <pt x="464" y="698" on="1"/>
        <pt x="477" y="698" on="0"/>
        <pt x="488" y="685" on="0"/>
        <pt x="488" y="677" on="1"/>
        <pt x="488" y="672" on="0"/>
        <pt x="485" y="660" on="1"/>
        <pt x="483" y="649" on="0"/>
        <pt x="470" y="636" on="0"/>
      </contour>
    </TTGlyph>
    <TTGlyph name="divide" xMin="72" yMin="75" xMax="548" yMax="537">
      <contour>
        <pt x="72" y="290" on="1"/>
        <pt x="78" y="320" on="1"/>
        <pt x="548" y="320" on="1"/>
        <pt x="542" y="290" on="1"/>
      </contour>
      <contour>
        <pt x="268" y="75" on="1"/>
        <pt x="249" y="75" on="0"/>
        <pt x="234" y="89" on="0"/>
        <pt x="234" y="98" on="1"/>
        <pt x="234" y="103" on="0"/>
        <pt x="236" y="117" on="0"/>
        <pt x="238" y="122" on="1"/>
        <pt x="240" y="134" on="0"/>
        <pt x="257" y="150" on="0"/>
        <pt x="277" y="150" on="1"/>
        <pt x="296" y="150" on="0"/>
        <pt x="311" y="136" on="0"/>
        <pt x="311" y="126" on="1"/>
        <pt x="311" y="122" on="0"/>
        <pt x="309" y="108" on="0"/>
        <pt x="307" y="103" on="1"/>
        <pt x="305" y="90" on="0"/>
        <pt x="288" y="75" on="0"/>
      </contour>
      <contour>
        <pt x="346" y="461" on="1"/>
        <pt x="326" y="461" on="0"/>
        <pt x="312" y="475" on="0"/>
        <pt x="312" y="485" on="1"/>
        <pt x="312" y="490" on="0"/>
        <pt x="314" y="503" on="0"/>
        <pt x="315" y="508" on="1"/>
        <pt x="317" y="521" on="0"/>
        <pt x="335" y="537" on="0"/>
        <pt x="355" y="537" on="1"/>
        <pt x="373" y="537" on="0"/>
        <pt x="388" y="523" on="0"/>
        <pt x="388" y="513" on="1"/>
        <pt x="388" y="508" on="0"/>
        <pt x="386" y="495" on="0"/>
        <pt x="385" y="490" on="1"/>
        <pt x="383" y="477" on="0"/>
        <pt x="366" y="461" on="0"/>
      </contour>
    </TTGlyph>
    <TTGlyph name="dollar" xMin="13" yMin="-82" xMax="536" yMax="780">
      <contour>
        <pt x="208" y="1" on="1"/>
        <pt x="136" y="6" on="0"/>
        <pt x="42" y="66" on="0"/>
        <pt x="13" y="115" on="1"/>
        <pt x="41" y="136" on="1"/>
        <pt x="67" y="91" on="0"/>
        <pt x="150" y="38" on="0"/>
        <pt x="214" y="33" on="1"/>
        <pt x="277" y="344" on="1"/>
        <pt x="246" y="352" on="1"/>
        <pt x="175" y="370" on="0"/>
        <pt x="108" y="447" on="0"/>
        <pt x="108" y="510" on="1"/>
        <pt x="108" y="548" on="0"/>
        <pt x="136" y="616" on="0"/>
        <pt x="192" y="668" on="0"/>
        <pt x="276" y="698" on="0"/>
        <pt x="333" y="698" on="1"/>
        <pt x="348" y="698" on="1"/>
        <pt x="364" y="780" on="1"/>
        <pt x="392" y="780" on="1"/>
        <pt x="375" y="697" on="1"/>
        <pt x="440" y="691" on="0"/>
        <pt x="513" y="640" on="0"/>
        <pt x="536" y="597" on="1"/>
        <pt x="508" y="577" on="1"/>
        <pt x="485" y="618" on="0"/>
        <pt x="423" y="660" on="0"/>
        <pt x="368" y="665" on="1"/>
        <pt x="310" y="369" on="1"/>
        <pt x="334" y="363" on="1"/>
        <pt x="409" y="344" on="0"/>
        <pt x="479" y="268" on="0"/>
        <pt x="479" y="205" on="1"/>
        <pt x="479" y="163" on="0"/>
        <pt x="451" y="89" on="0"/>
        <pt x="392" y="33" on="0"/>
        <pt x="303" y="0" on="0"/>
        <pt x="243" y="0" on="1"/>
        <pt x="235" y="0" on="1"/>
        <pt x="219" y="-82" on="1"/>
        <pt x="191" y="-82" on="1"/>
      </contour>
      <contour>
        <pt x="303" y="338" on="1"/>
        <pt x="241" y="32" on="1"/>
        <pt x="295" y="32" on="0"/>
        <pt x="372" y="60" on="0"/>
        <pt x="421" y="107" on="0"/>
        <pt x="443" y="169" on="0"/>
        <pt x="443" y="203" on="1"/>
        <pt x="443" y="255" on="0"/>
        <pt x="388" y="317" on="0"/>
        <pt x="327" y="332" on="1"/>
      </contour>
      <contour>
        <pt x="144" y="511" on="1"/>
        <pt x="144" y="459" on="0"/>
        <pt x="197" y="397" on="0"/>
        <pt x="256" y="382" on="1"/>
        <pt x="283" y="375" on="1"/>
        <pt x="341" y="666" on="1"/>
        <pt x="329" y="666" on="1"/>
        <pt x="282" y="666" on="0"/>
        <pt x="213" y="642" on="0"/>
        <pt x="167" y="600" on="0"/>
        <pt x="144" y="543" on="0"/>
      </contour>
    </TTGlyph>
    <TTGlyph name="dotaccent" xMin="296" yMin="636" xMax="355" yMax="698">
      <contour>
        <pt x="321" y="636" on="1"/>
        <pt x="307" y="636" on="0"/>
        <pt x="296" y="649" on="0"/>
        <pt x="296" y="657" on="1"/>
        <pt x="296" y="662" on="0"/>
        <pt x="299" y="674" on="1"/>
        <pt x="302" y="685" on="0"/>
        <pt x="315" y="698" on="0"/>
        <pt x="330" y="698" on="1"/>
        <pt x="344" y="698" on="0"/>
        <pt x="355" y="685" on="0"/>
        <pt x="355" y="677" on="1"/>
        <pt x="355" y="672" on="0"/>
        <pt x="352" y="660" on="1"/>
        <pt x="349" y="649" on="0"/>
        <pt x="336" y="636" on="0"/>
      </contour>
    </TTGlyph>
    <TTGlyph name="dotaccent.case" xMin="301" yMin="814" xMax="360" yMax="876">
      <contour>
        <pt x="326" y="814" on="1"/>
        <pt x="312" y="814" on="0"/>
        <pt x="301" y="827" on="0"/>
        <pt x="301" y="835" on="1"/>
        <pt x="301" y="840" on="0"/>
        <pt x="304" y="852" on="1"/>
        <pt x="307" y="863" on="0"/>
        <pt x="320" y="876" on="0"/>
        <pt x="335" y="876" on="1"/>
        <pt x="349" y="876" on="0"/>
        <pt x="360" y="863" on="0"/>
        <pt x="360" y="855" on="1"/>
        <pt x="360" y="850" on="0"/>
        <pt x="357" y="838" on="1"/>
        <pt x="354" y="827" on="0"/>
        <pt x="341" y="814" on="0"/>
      </contour>
    </TTGlyph>
    <TTGlyph name="dotlessi" xMin="56" yMin="0" xMax="184" yMax="508">
      <contour>
        <pt x="89" y="0" on="1"/>
        <pt x="56" y="0" on="0"/>
        <pt x="56" y="28" on="1"/>
        <pt x="56" y="36" on="0"/>
        <pt x="59" y="51" on="1"/>
        <pt x="150" y="508" on="1"/>
        <pt x="184" y="508" on="1"/>
        <pt x="89" y="31" on="1"/>
        <pt x="171" y="31" on="1"/>
        <pt x="165" y="0" on="1"/>
      </contour>
    </TTGlyph>
</ttFont>
